  0
SECTION
  2
HEADER
  9
$ACADVER
  1
AC1014
  9
$HANDSEED
  5
FFFF
  9
$MEASUREMENT
 70
     1
  0
ENDSEC
  0
SECTION
  2
TABLES
  0
TABLE
  2
VPORT
  5
8
330
0
100
AcDbSymbolTable
 70
     4
  0
VPORT
  5
2E
330
8
100
AcDbSymbolTableRecord
100
AcDbViewportTableRecord
  2
*ACTIVE
 70
     0
 10
0.0
 20
0.0
 11
1.0
 21
1.0
 12
210.0
 22
148.5
 13
0.0
 23
0.0
 14
10.0
 24
10.0
 15
10.0
 25
10.0
 16
0.0
 26
0.0
 36
1.0
 17
0.0
 27
0.0
 37
0.0
 40
341.0
 41
1.24
 42
50.0
 43
0.0
 44
0.0
 50
0.0
 51
0.0
 71
     0
 72
   100
 73
     1
 74
     3
 75
     0
 76
     0
 77
     0
 78
     0
  0
ENDTAB
  0
TABLE
  2
LTYPE
  5
5
330
0
100
AcDbSymbolTable
 70
     1
  0
LTYPE
  5
14
330
5
100
AcDbSymbolTableRecord
100
AcDbLinetypeTableRecord
  2
BYBLOCK
 70
     0
  3

 72
    65
 73
     0
 40
0.0
  0
LTYPE
  5
15
330
5
100
AcDbSymbolTableRecord
100
AcDbLinetypeTableRecord
  2
BYLAYER
 70
     0
  3

 72
    65
 73
     0
 40
0.0
  0
LTYPE
  5
16
330
5
100
AcDbSymbolTableRecord
100
AcDbLinetypeTableRecord
  2
CONTINUOUS
 70
     0
  3
Solid line
 72
    65
 73
     0
 40
0.0
  0
ENDTAB
  0
TABLE
  2
LAYER
  5
2
100
AcDbSymbolTable
 70
37
  0
LAYER
  5
50
100
AcDbSymbolTableRecord
100
AcDbLayerTableRecord
  2
0
 70
0
  6
CONTINUOUS
  0
LAYER
  5
51
100
AcDbSymbolTableRecord
100
AcDbLayerTableRecord
  2
,
 70
0
  6
CONTINUOUS
  0
LAYER
  5
52
100
AcDbSymbolTableRecord
100
AcDbLayerTableRecord
  2
.
 70
0
  6
CONTINUOUS
  0
LAYER
  5
53
100
AcDbSymbolTableRecord
100
AcDbLayerTableRecord
  2
{
 70
0
  6
CONTINUOUS
  0
LAYER
  5
54
100
AcDbSymbolTableRecord
100
AcDbLayerTableRecord
  2
}
 70
0
  6
CONTINUOUS
  0
LAYER
  5
55
100
AcDbSymbolTableRecord
100
AcDbLayerTableRecord
  2
<
 70
0
  6
CONTINUOUS
  0
LAYER
  5
56
100
AcDbSymbolTableRecord
100
AcDbLayerTableRecord
  2
>
 70
0
  6
CONTINUOUS
  0
LAYER
  5
57
100
AcDbSymbolTableRecord
100
AcDbLayerTableRecord
  2
[
 70
0
  6
CONTINUOUS
  0
LAYER
  5
58
100
AcDbSymbolTableRecord
100
AcDbLayerTableRecord
  2
]
 70
0
  6
CONTINUOUS
  0
LAYER
  5
59
100
AcDbSymbolTableRecord
100
AcDbLayerTableRecord
  2
q_
 70
0
  6
CONTINUOUS
  0
LAYER
  5
5a
100
AcDbSymbolTableRecord
100
AcDbLayerTableRecord
  2
w_
 70
0
  6
CONTINUOUS
  0
LAYER
  5
5b
100
AcDbSymbolTableRecord
100
AcDbLayerTableRecord
  2
a_
 70
0
  6
CONTINUOUS
  0
LAYER
  5
5c
100
AcDbSymbolTableRecord
100
AcDbLayerTableRecord
  2
s_
 70
0
  6
CONTINUOUS
  0
LAYER
  5
5d
100
AcDbSymbolTableRecord
100
AcDbLayerTableRecord
  2
Q
 70
0
  6
CONTINUOUS
  0
LAYER
  5
5e
100
AcDbSymbolTableRecord
100
AcDbLayerTableRecord
  2
W
 70
0
  6
CONTINUOUS
  0
LAYER
  5
5f
100
AcDbSymbolTableRecord
100
AcDbLayerTableRecord
  2
A
 70
0
  6
CONTINUOUS
  0
LAYER
  5
60
100
AcDbSymbolTableRecord
100
AcDbLayerTableRecord
  2
S
 70
0
  6
CONTINUOUS
  0
LAYER
  5
61
100
AcDbSymbolTableRecord
100
AcDbLayerTableRecord
  2
e_
 70
0
  6
CONTINUOUS
  0
LAYER
  5
62
100
AcDbSymbolTableRecord
100
AcDbLayerTableRecord
  2
r_
 70
0
  6
CONTINUOUS
  0
LAYER
  5
63
100
AcDbSymbolTableRecord
100
AcDbLayerTableRecord
  2
d_
 70
0
  6
CONTINUOUS
  0
LAYER
  5
64
100
AcDbSymbolTableRecord
100
AcDbLayerTableRecord
  2
f_
 70
0
  6
CONTINUOUS
  0
LAYER
  5
65
100
AcDbSymbolTableRecord
100
AcDbLayerTableRecord
  2
E
 70
0
  6
CONTINUOUS
  0
LAYER
  5
66
100
AcDbSymbolTableRecord
100
AcDbLayerTableRecord
  2
R
 70
0
  6
CONTINUOUS
  0
LAYER
  5
67
100
AcDbSymbolTableRecord
100
AcDbLayerTableRecord
  2
D
 70
0
  6
CONTINUOUS
  0
LAYER
  5
68
100
AcDbSymbolTableRecord
100
AcDbLayerTableRecord
  2
F
 70
0
  6
CONTINUOUS
  0
LAYER
  5
69
100
AcDbSymbolTableRecord
100
AcDbLayerTableRecord
  2
t_
 70
0
  6
CONTINUOUS
  0
LAYER
  5
6a
100
AcDbSymbolTableRecord
100
AcDbLayerTableRecord
  2
y_
 70
0
  6
CONTINUOUS
  0
LAYER
  5
6b
100
AcDbSymbolTableRecord
100
AcDbLayerTableRecord
  2
g_
 70
0
  6
CONTINUOUS
  0
LAYER
  5
6c
100
AcDbSymbolTableRecord
100
AcDbLayerTableRecord
  2
h_
 70
0
  6
CONTINUOUS
  0
LAYER
  5
6d
100
AcDbSymbolTableRecord
100
AcDbLayerTableRecord
  2
T
 70
0
  6
CONTINUOUS
  0
LAYER
  5
6e
100
AcDbSymbolTableRecord
100
AcDbLayerTableRecord
  2
Y
 70
0
  6
CONTINUOUS
  0
LAYER
  5
6f
100
AcDbSymbolTableRecord
100
AcDbLayerTableRecord
  2
G
 70
0
  6
CONTINUOUS
  0
LAYER
  5
70
100
AcDbSymbolTableRecord
100
AcDbLayerTableRecord
  2
H
 70
0
  6
CONTINUOUS
  0
LAYER
  5
71
100
AcDbSymbolTableRecord
100
AcDbLayerTableRecord
  2
|
 70
0
  6
CONTINUOUS
  0
LAYER
  5
72
100
AcDbSymbolTableRecord
100
AcDbLayerTableRecord
  2
-
 70
0
  6
CONTINUOUS
  0
LAYER
  5
73
100
AcDbSymbolTableRecord
100
AcDbLayerTableRecord
  2
_
 70
0
  6
CONTINUOUS
  0
LAYER
  5
74
100
AcDbSymbolTableRecord
100
AcDbLayerTableRecord
  2
!
 70
0
  6
CONTINUOUS
  0
ENDTAB
  0
TABLE
  2
STYLE
  5
3
330
0
100
AcDbSymbolTable
 70
     1
  0
STYLE
  5
11
330
3
100
AcDbSymbolTableRecord
100
AcDbTextStyleTableRecord
  2
STANDARD
 70
     0
 40
0.0
 41
1.0
 50
0.0
 71
     0
 42
2.5
  3
txt
  4

  0
ENDTAB
  0
TABLE
  2
VIEW
  5
6
330
0
100
AcDbSymbolTable
 70
     0
  0
ENDTAB
  0
TABLE
  2
UCS
  5
7
330
0
100
AcDbSymbolTable
 70
     0
  0
ENDTAB
  0
TABLE
  2
APPID
  5
9
330
0
100
AcDbSymbolTable
 70
     2
  0
APPID
  5
12
330
9
100
AcDbSymbolTableRecord
100
AcDbRegAppTableRecord
  2
ACAD
 70
     0
  0
ENDTAB
  0
TABLE
  2
DIMSTYLE
  5
A
330
0
100
AcDbSymbolTable
 70
     1
  0
DIMSTYLE
105
27
330
A
100
AcDbSymbolTableRecord
100
AcDbDimStyleTableRecord
  2
ISO-25
 70
     0
  3

  4

  5

  6

  7

 40
1.0
 41
2.5
 42
0.625
 43
3.75
 44
1.25
 45
0.0
 46
0.0
 47
0.0
 48
0.0
140
2.5
141
2.5
142
0.0
143
0.03937007874016
144
1.0
145
0.0
146
1.0
147
0.625
 71
     0
 72
     0
 73
     0
 74
     0
 75
     0
 76
     0
 77
     1
 78
     8
170
     0
171
     3
172
     1
173
     0
174
     0
175
     0
176
     0
177
     0
178
     0
270
     2
271
     2
272
     2
273
     2
274
     3
340
11
275
     0
280
     0
281
     0
282
     0
283
     0
284
     8
285
     0
286
     0
287
     3
288
     0
  0
ENDTAB
  0
TABLE
  2
BLOCK_RECORD
  5
1
330
0
100
AcDbSymbolTable
 70
     1
  0
BLOCK_RECORD
  5
1F
330
1
100
AcDbSymbolTableRecord
100
AcDbBlockTableRecord
  2
*MODEL_SPACE
  0
BLOCK_RECORD
  5
1B
330
1
100
AcDbSymbolTableRecord
100
AcDbBlockTableRecord
  2
*PAPER_SPACE
  0
ENDTAB
  0
ENDSEC
  0
SECTION
  2
BLOCKS
  0
BLOCK
  5
20
330
1F
100
AcDbEntity
  8
0
100
AcDbBlockBegin
  2
*MODEL_SPACE
 70
     0
 10
0.0
 20
0.0
 30
0.0
  3
*MODEL_SPACE
  1

  0
ENDBLK
  5
21
330
1F
100
AcDbEntity
  8
0
100
AcDbBlockEnd
  0
BLOCK
  5
1C
330
1B
100
AcDbEntity
 67
     1
  8
0
100
AcDbBlockBegin
  2
*PAPER_SPACE
  1

  0
ENDBLK
  5
1D
330
1B
100
AcDbEntity
 67
     1
  8
0
100
AcDbBlockEnd
  0
ENDSEC
  0
SECTION
  2
ENTITIES
  0
LINE
  5
100
100
AcDbEntity
  8
,
 62
7
100
AcDbLine
 10
0.000000
 20
0.000000
 30
0.0
 11
0.155389
 21
3.652682
 31
0.0
  0
LINE
  5
101
100
AcDbEntity
  8
,
 62
7
100
AcDbLine
 10
0.155389
 20
3.652682
 30
0.0
 11
0.613083
 21
7.219082
 31
0.0
  0
LINE
  5
102
100
AcDbEntity
  8
,
 62
7
100
AcDbLine
 10
0.613083
 20
7.219082
 30
0.0
 11
1.360376
 21
10.686492
 31
0.0
  0
LINE
  5
103
100
AcDbEntity
  8
,
 62
7
100
AcDbLine
 10
1.360376
 20
10.686492
 30
0.0
 11
2.384560
 21
14.042204
 31
0.0
  0
LINE
  5
104
100
AcDbEntity
  8
,
 62
7
100
AcDbLine
 10
2.384560
 20
14.042204
 30
0.0
 11
3.672927
 21
17.273513
 31
0.0
  0
LINE
  5
105
100
AcDbEntity
  8
,
 62
7
100
AcDbLine
 10
3.672927
 20
17.273513
 30
0.0
 11
5.212772
 21
20.367710
 31
0.0
  0
LINE
  5
106
100
AcDbEntity
  8
,
 62
7
100
AcDbLine
 10
5.212772
 20
20.367710
 30
0.0
 11
6.991386
 21
23.312089
 31
0.0
  0
LINE
  5
107
100
AcDbEntity
  8
,
 62
7
100
AcDbLine
 10
6.991386
 20
23.312089
 30
0.0
 11
8.996062
 21
26.093941
 31
0.0
  0
LINE
  5
108
100
AcDbEntity
  8
,
 62
7
100
AcDbLine
 10
8.996062
 20
26.093941
 30
0.0
 11
11.214094
 21
28.700561
 31
0.0
  0
LINE
  5
109
100
AcDbEntity
  8
,
 62
7
100
AcDbLine
 10
11.214094
 20
28.700561
 30
0.0
 11
13.632772
 21
31.119240
 31
0.0
  0
LINE
  5
10a
100
AcDbEntity
  8
,
 62
7
100
AcDbLine
 10
13.632772
 20
31.119240
 30
0.0
 11
16.239392
 21
33.337271
 31
0.0
  0
LINE
  5
10b
100
AcDbEntity
  8
,
 62
7
100
AcDbLine
 10
16.239392
 20
33.337271
 30
0.0
 11
19.021244
 21
35.341947
 31
0.0
  0
LINE
  5
10c
100
AcDbEntity
  8
,
 62
7
100
AcDbLine
 10
19.021244
 20
35.341947
 30
0.0
 11
21.965623
 21
37.120561
 31
0.0
  0
LINE
  5
10d
100
AcDbEntity
  8
,
 62
7
100
AcDbLine
 10
21.965623
 20
37.120561
 30
0.0
 11
25.059820
 21
38.660406
 31
0.0
  0
LINE
  5
10e
100
AcDbEntity
  8
,
 62
7
100
AcDbLine
 10
25.059820
 20
38.660406
 30
0.0
 11
28.291129
 21
39.948774
 31
0.0
  0
LINE
  5
10f
100
AcDbEntity
  8
,
 62
7
100
AcDbLine
 10
28.291129
 20
39.948774
 30
0.0
 11
31.646842
 21
40.972958
 31
0.0
  0
LINE
  5
110
100
AcDbEntity
  8
,
 62
7
100
AcDbLine
 10
31.646842
 20
40.972958
 30
0.0
 11
35.114252
 21
41.720250
 31
0.0
  0
LINE
  5
111
100
AcDbEntity
  8
,
 62
7
100
AcDbLine
 10
35.114252
 20
41.720250
 30
0.0
 11
38.680651
 21
42.177945
 31
0.0
  0
LINE
  5
112
100
AcDbEntity
  8
,
 62
7
100
AcDbLine
 10
38.680651
 20
42.177945
 30
0.0
 11
42.333333
 21
42.333333
 31
0.0
  0
LINE
  5
113
100
AcDbEntity
  8
,
 62
7
100
AcDbLine
 10
42.333333
 20
42.333333
 30
0.0
 11
42.333333
 21
12.399146
 31
0.0
  0
LINE
  5
114
100
AcDbEntity
  8
,
 62
7
100
AcDbLine
 10
42.333333
 20
12.399146
 30
0.0
 11
41.263488
 21
12.353634
 31
0.0
  0
LINE
  5
115
100
AcDbEntity
  8
,
 62
7
100
AcDbLine
 10
41.263488
 20
12.353634
 30
0.0
 11
40.218913
 21
12.219578
 31
0.0
  0
LINE
  5
116
100
AcDbEntity
  8
,
 62
7
100
AcDbLine
 10
40.218913
 20
12.219578
 30
0.0
 11
39.203332
 21
12.000701
 31
0.0
  0
LINE
  5
117
100
AcDbEntity
  8
,
 62
7
100
AcDbLine
 10
39.203332
 20
12.000701
 30
0.0
 11
38.220467
 21
11.700725
 31
0.0
  0
LINE
  5
118
100
AcDbEntity
  8
,
 62
7
100
AcDbLine
 10
38.220467
 20
11.700725
 30
0.0
 11
37.274038
 21
11.323371
 31
0.0
  0
LINE
  5
119
100
AcDbEntity
  8
,
 62
7
100
AcDbLine
 10
37.274038
 20
11.323371
 30
0.0
 11
36.367769
 21
10.872361
 31
0.0
  0
LINE
  5
11a
100
AcDbEntity
  8
,
 62
7
100
AcDbLine
 10
36.367769
 20
10.872361
 30
0.0
 11
35.505381
 21
10.351417
 31
0.0
  0
LINE
  5
11b
100
AcDbEntity
  8
,
 62
7
100
AcDbLine
 10
35.505381
 20
10.351417
 30
0.0
 11
34.690595
 21
9.764261
 31
0.0
  0
LINE
  5
11c
100
AcDbEntity
  8
,
 62
7
100
AcDbLine
 10
34.690595
 20
9.764261
 30
0.0
 11
33.927134
 21
9.114614
 31
0.0
  0
LINE
  5
11d
100
AcDbEntity
  8
,
 62
7
100
AcDbLine
 10
33.927134
 20
9.114614
 30
0.0
 11
33.218719
 21
8.406200
 31
0.0
  0
LINE
  5
11e
100
AcDbEntity
  8
,
 62
7
100
AcDbLine
 10
33.218719
 20
8.406200
 30
0.0
 11
32.569073
 21
7.642739
 31
0.0
  0
LINE
  5
11f
100
AcDbEntity
  8
,
 62
7
100
AcDbLine
 10
32.569073
 20
7.642739
 30
0.0
 11
31.981917
 21
6.827953
 31
0.0
  0
LINE
  5
120
100
AcDbEntity
  8
,
 62
7
100
AcDbLine
 10
31.981917
 20
6.827953
 30
0.0
 11
31.460973
 21
5.965564
 31
0.0
  0
LINE
  5
121
100
AcDbEntity
  8
,
 62
7
100
AcDbLine
 10
31.460973
 20
5.965564
 30
0.0
 11
31.009963
 21
5.059295
 31
0.0
  0
LINE
  5
122
100
AcDbEntity
  8
,
 62
7
100
AcDbLine
 10
31.009963
 20
5.059295
 30
0.0
 11
30.632608
 21
4.112866
 31
0.0
  0
LINE
  5
123
100
AcDbEntity
  8
,
 62
7
100
AcDbLine
 10
30.632608
 20
4.112866
 30
0.0
 11
30.332632
 21
3.130001
 31
0.0
  0
LINE
  5
124
100
AcDbEntity
  8
,
 62
7
100
AcDbLine
 10
30.332632
 20
3.130001
 30
0.0
 11
30.113755
 21
2.114420
 31
0.0
  0
LINE
  5
125
100
AcDbEntity
  8
,
 62
7
100
AcDbLine
 10
30.113755
 20
2.114420
 30
0.0
 11
29.979699
 21
1.069846
 31
0.0
  0
LINE
  5
126
100
AcDbEntity
  8
,
 62
7
100
AcDbLine
 10
29.979699
 20
1.069846
 30
0.0
 11
29.934187
 21
-0.000000
 31
0.0
  0
LINE
  5
127
100
AcDbEntity
  8
,
 62
7
100
AcDbLine
 10
29.934187
 20
-0.000000
 30
0.0
 11
0.000000
 21
0.000000
 31
0.0
  0
LINE
  5
128
100
AcDbEntity
  8
.
 62
7
100
AcDbLine
 10
0.000000
 20
42.333333
 30
0.0
 11
3.652682
 21
42.177945
 31
0.0
  0
LINE
  5
129
100
AcDbEntity
  8
.
 62
7
100
AcDbLine
 10
3.652682
 20
42.177945
 30
0.0
 11
7.219082
 21
41.720250
 31
0.0
  0
LINE
  5
12a
100
AcDbEntity
  8
.
 62
7
100
AcDbLine
 10
7.219082
 20
41.720250
 30
0.0
 11
10.686492
 21
40.972958
 31
0.0
  0
LINE
  5
12b
100
AcDbEntity
  8
.
 62
7
100
AcDbLine
 10
10.686492
 20
40.972958
 30
0.0
 11
14.042204
 21
39.948774
 31
0.0
  0
LINE
  5
12c
100
AcDbEntity
  8
.
 62
7
100
AcDbLine
 10
14.042204
 20
39.948774
 30
0.0
 11
17.273513
 21
38.660406
 31
0.0
  0
LINE
  5
12d
100
AcDbEntity
  8
.
 62
7
100
AcDbLine
 10
17.273513
 20
38.660406
 30
0.0
 11
20.367710
 21
37.120561
 31
0.0
  0
LINE
  5
12e
100
AcDbEntity
  8
.
 62
7
100
AcDbLine
 10
20.367710
 20
37.120561
 30
0.0
 11
23.312089
 21
35.341947
 31
0.0
  0
LINE
  5
12f
100
AcDbEntity
  8
.
 62
7
100
AcDbLine
 10
23.312089
 20
35.341947
 30
0.0
 11
26.093941
 21
33.337271
 31
0.0
  0
LINE
  5
130
100
AcDbEntity
  8
.
 62
7
100
AcDbLine
 10
26.093941
 20
33.337271
 30
0.0
 11
28.700561
 21
31.119240
 31
0.0
  0
LINE
  5
131
100
AcDbEntity
  8
.
 62
7
100
AcDbLine
 10
28.700561
 20
31.119240
 30
0.0
 11
31.119240
 21
28.700561
 31
0.0
  0
LINE
  5
132
100
AcDbEntity
  8
.
 62
7
100
AcDbLine
 10
31.119240
 20
28.700561
 30
0.0
 11
33.337271
 21
26.093941
 31
0.0
  0
LINE
  5
133
100
AcDbEntity
  8
.
 62
7
100
AcDbLine
 10
33.337271
 20
26.093941
 30
0.0
 11
35.341947
 21
23.312089
 31
0.0
  0
LINE
  5
134
100
AcDbEntity
  8
.
 62
7
100
AcDbLine
 10
35.341947
 20
23.312089
 30
0.0
 11
37.120561
 21
20.367710
 31
0.0
  0
LINE
  5
135
100
AcDbEntity
  8
.
 62
7
100
AcDbLine
 10
37.120561
 20
20.367710
 30
0.0
 11
38.660406
 21
17.273513
 31
0.0
  0
LINE
  5
136
100
AcDbEntity
  8
.
 62
7
100
AcDbLine
 10
38.660406
 20
17.273513
 30
0.0
 11
39.948774
 21
14.042204
 31
0.0
  0
LINE
  5
137
100
AcDbEntity
  8
.
 62
7
100
AcDbLine
 10
39.948774
 20
14.042204
 30
0.0
 11
40.972958
 21
10.686492
 31
0.0
  0
LINE
  5
138
100
AcDbEntity
  8
.
 62
7
100
AcDbLine
 10
40.972958
 20
10.686492
 30
0.0
 11
41.720250
 21
7.219082
 31
0.0
  0
LINE
  5
139
100
AcDbEntity
  8
.
 62
7
100
AcDbLine
 10
41.720250
 20
7.219082
 30
0.0
 11
42.177945
 21
3.652682
 31
0.0
  0
LINE
  5
13a
100
AcDbEntity
  8
.
 62
7
100
AcDbLine
 10
42.177945
 20
3.652682
 30
0.0
 11
42.333333
 21
0.000000
 31
0.0
  0
LINE
  5
13b
100
AcDbEntity
  8
.
 62
7
100
AcDbLine
 10
42.333333
 20
0.000000
 30
0.0
 11
12.399146
 21
0.000000
 31
0.0
  0
LINE
  5
13c
100
AcDbEntity
  8
.
 62
7
100
AcDbLine
 10
12.399146
 20
0.000000
 30
0.0
 11
12.353634
 21
1.069846
 31
0.0
  0
LINE
  5
13d
100
AcDbEntity
  8
.
 62
7
100
AcDbLine
 10
12.353634
 20
1.069846
 30
0.0
 11
12.219578
 21
2.114420
 31
0.0
  0
LINE
  5
13e
100
AcDbEntity
  8
.
 62
7
100
AcDbLine
 10
12.219578
 20
2.114420
 30
0.0
 11
12.000701
 21
3.130001
 31
0.0
  0
LINE
  5
13f
100
AcDbEntity
  8
.
 62
7
100
AcDbLine
 10
12.000701
 20
3.130001
 30
0.0
 11
11.700725
 21
4.112866
 31
0.0
  0
LINE
  5
140
100
AcDbEntity
  8
.
 62
7
100
AcDbLine
 10
11.700725
 20
4.112866
 30
0.0
 11
11.323371
 21
5.059295
 31
0.0
  0
LINE
  5
141
100
AcDbEntity
  8
.
 62
7
100
AcDbLine
 10
11.323371
 20
5.059295
 30
0.0
 11
10.872361
 21
5.965564
 31
0.0
  0
LINE
  5
142
100
AcDbEntity
  8
.
 62
7
100
AcDbLine
 10
10.872361
 20
5.965564
 30
0.0
 11
10.351417
 21
6.827953
 31
0.0
  0
LINE
  5
143
100
AcDbEntity
  8
.
 62
7
100
AcDbLine
 10
10.351417
 20
6.827953
 30
0.0
 11
9.764261
 21
7.642739
 31
0.0
  0
LINE
  5
144
100
AcDbEntity
  8
.
 62
7
100
AcDbLine
 10
9.764261
 20
7.642739
 30
0.0
 11
9.114614
 21
8.406200
 31
0.0
  0
LINE
  5
145
100
AcDbEntity
  8
.
 62
7
100
AcDbLine
 10
9.114614
 20
8.406200
 30
0.0
 11
8.406200
 21
9.114614
 31
0.0
  0
LINE
  5
146
100
AcDbEntity
  8
.
 62
7
100
AcDbLine
 10
8.406200
 20
9.114614
 30
0.0
 11
7.642739
 21
9.764261
 31
0.0
  0
LINE
  5
147
100
AcDbEntity
  8
.
 62
7
100
AcDbLine
 10
7.642739
 20
9.764261
 30
0.0
 11
6.827953
 21
10.351417
 31
0.0
  0
LINE
  5
148
100
AcDbEntity
  8
.
 62
7
100
AcDbLine
 10
6.827953
 20
10.351417
 30
0.0
 11
5.965564
 21
10.872361
 31
0.0
  0
LINE
  5
149
100
AcDbEntity
  8
.
 62
7
100
AcDbLine
 10
5.965564
 20
10.872361
 30
0.0
 11
5.059295
 21
11.323371
 31
0.0
  0
LINE
  5
14a
100
AcDbEntity
  8
.
 62
7
100
AcDbLine
 10
5.059295
 20
11.323371
 30
0.0
 11
4.112866
 21
11.700725
 31
0.0
  0
LINE
  5
14b
100
AcDbEntity
  8
.
 62
7
100
AcDbLine
 10
4.112866
 20
11.700725
 30
0.0
 11
3.130001
 21
12.000701
 31
0.0
  0
LINE
  5
14c
100
AcDbEntity
  8
.
 62
7
100
AcDbLine
 10
3.130001
 20
12.000701
 30
0.0
 11
2.114420
 21
12.219578
 31
0.0
  0
LINE
  5
14d
100
AcDbEntity
  8
.
 62
7
100
AcDbLine
 10
2.114420
 20
12.219578
 30
0.0
 11
1.069846
 21
12.353634
 31
0.0
  0
LINE
  5
14e
100
AcDbEntity
  8
.
 62
7
100
AcDbLine
 10
1.069846
 20
12.353634
 30
0.0
 11
0.000000
 21
12.399146
 31
0.0
  0
LINE
  5
14f
100
AcDbEntity
  8
.
 62
7
100
AcDbLine
 10
0.000000
 20
12.399146
 30
0.0
 11
0.000000
 21
42.333333
 31
0.0
  0
LINE
  5
150
100
AcDbEntity
  8
{
 62
7
100
AcDbLine
 10
42.333333
 20
0.000000
 30
0.0
 11
38.680651
 21
0.155389
 31
0.0
  0
LINE
  5
151
100
AcDbEntity
  8
{
 62
7
100
AcDbLine
 10
38.680651
 20
0.155389
 30
0.0
 11
35.114252
 21
0.613083
 31
0.0
  0
LINE
  5
152
100
AcDbEntity
  8
{
 62
7
100
AcDbLine
 10
35.114252
 20
0.613083
 30
0.0
 11
31.646842
 21
1.360376
 31
0.0
  0
LINE
  5
153
100
AcDbEntity
  8
{
 62
7
100
AcDbLine
 10
31.646842
 20
1.360376
 30
0.0
 11
28.291129
 21
2.384560
 31
0.0
  0
LINE
  5
154
100
AcDbEntity
  8
{
 62
7
100
AcDbLine
 10
28.291129
 20
2.384560
 30
0.0
 11
25.059820
 21
3.672927
 31
0.0
  0
LINE
  5
155
100
AcDbEntity
  8
{
 62
7
100
AcDbLine
 10
25.059820
 20
3.672927
 30
0.0
 11
21.965623
 21
5.212772
 31
0.0
  0
LINE
  5
156
100
AcDbEntity
  8
{
 62
7
100
AcDbLine
 10
21.965623
 20
5.212772
 30
0.0
 11
19.021244
 21
6.991386
 31
0.0
  0
LINE
  5
157
100
AcDbEntity
  8
{
 62
7
100
AcDbLine
 10
19.021244
 20
6.991386
 30
0.0
 11
16.239392
 21
8.996062
 31
0.0
  0
LINE
  5
158
100
AcDbEntity
  8
{
 62
7
100
AcDbLine
 10
16.239392
 20
8.996062
 30
0.0
 11
13.632772
 21
11.214094
 31
0.0
  0
LINE
  5
159
100
AcDbEntity
  8
{
 62
7
100
AcDbLine
 10
13.632772
 20
11.214094
 30
0.0
 11
11.214094
 21
13.632772
 31
0.0
  0
LINE
  5
15a
100
AcDbEntity
  8
{
 62
7
100
AcDbLine
 10
11.214094
 20
13.632772
 30
0.0
 11
8.996062
 21
16.239392
 31
0.0
  0
LINE
  5
15b
100
AcDbEntity
  8
{
 62
7
100
AcDbLine
 10
8.996062
 20
16.239392
 30
0.0
 11
6.991386
 21
19.021244
 31
0.0
  0
LINE
  5
15c
100
AcDbEntity
  8
{
 62
7
100
AcDbLine
 10
6.991386
 20
19.021244
 30
0.0
 11
5.212772
 21
21.965623
 31
0.0
  0
LINE
  5
15d
100
AcDbEntity
  8
{
 62
7
100
AcDbLine
 10
5.212772
 20
21.965623
 30
0.0
 11
3.672927
 21
25.059820
 31
0.0
  0
LINE
  5
15e
100
AcDbEntity
  8
{
 62
7
100
AcDbLine
 10
3.672927
 20
25.059820
 30
0.0
 11
2.384560
 21
28.291129
 31
0.0
  0
LINE
  5
15f
100
AcDbEntity
  8
{
 62
7
100
AcDbLine
 10
2.384560
 20
28.291129
 30
0.0
 11
1.360376
 21
31.646842
 31
0.0
  0
LINE
  5
160
100
AcDbEntity
  8
{
 62
7
100
AcDbLine
 10
1.360376
 20
31.646842
 30
0.0
 11
0.613083
 21
35.114252
 31
0.0
  0
LINE
  5
161
100
AcDbEntity
  8
{
 62
7
100
AcDbLine
 10
0.613083
 20
35.114252
 30
0.0
 11
0.155389
 21
38.680651
 31
0.0
  0
LINE
  5
162
100
AcDbEntity
  8
{
 62
7
100
AcDbLine
 10
0.155389
 20
38.680651
 30
0.0
 11
-0.000000
 21
42.333333
 31
0.0
  0
LINE
  5
163
100
AcDbEntity
  8
{
 62
7
100
AcDbLine
 10
-0.000000
 20
42.333333
 30
0.0
 11
29.934187
 21
42.333333
 31
0.0
  0
LINE
  5
164
100
AcDbEntity
  8
{
 62
7
100
AcDbLine
 10
29.934187
 20
42.333333
 30
0.0
 11
29.979699
 21
41.263488
 31
0.0
  0
LINE
  5
165
100
AcDbEntity
  8
{
 62
7
100
AcDbLine
 10
29.979699
 20
41.263488
 30
0.0
 11
30.113755
 21
40.218913
 31
0.0
  0
LINE
  5
166
100
AcDbEntity
  8
{
 62
7
100
AcDbLine
 10
30.113755
 20
40.218913
 30
0.0
 11
30.332632
 21
39.203332
 31
0.0
  0
LINE
  5
167
100
AcDbEntity
  8
{
 62
7
100
AcDbLine
 10
30.332632
 20
39.203332
 30
0.0
 11
30.632608
 21
38.220467
 31
0.0
  0
LINE
  5
168
100
AcDbEntity
  8
{
 62
7
100
AcDbLine
 10
30.632608
 20
38.220467
 30
0.0
 11
31.009963
 21
37.274038
 31
0.0
  0
LINE
  5
169
100
AcDbEntity
  8
{
 62
7
100
AcDbLine
 10
31.009963
 20
37.274038
 30
0.0
 11
31.460973
 21
36.367769
 31
0.0
  0
LINE
  5
16a
100
AcDbEntity
  8
{
 62
7
100
AcDbLine
 10
31.460973
 20
36.367769
 30
0.0
 11
31.981917
 21
35.505381
 31
0.0
  0
LINE
  5
16b
100
AcDbEntity
  8
{
 62
7
100
AcDbLine
 10
31.981917
 20
35.505381
 30
0.0
 11
32.569073
 21
34.690595
 31
0.0
  0
LINE
  5
16c
100
AcDbEntity
  8
{
 62
7
100
AcDbLine
 10
32.569073
 20
34.690595
 30
0.0
 11
33.218719
 21
33.927134
 31
0.0
  0
LINE
  5
16d
100
AcDbEntity
  8
{
 62
7
100
AcDbLine
 10
33.218719
 20
33.927134
 30
0.0
 11
33.927134
 21
33.218719
 31
0.0
  0
LINE
  5
16e
100
AcDbEntity
  8
{
 62
7
100
AcDbLine
 10
33.927134
 20
33.218719
 30
0.0
 11
34.690595
 21
32.569073
 31
0.0
  0
LINE
  5
16f
100
AcDbEntity
  8
{
 62
7
100
AcDbLine
 10
34.690595
 20
32.569073
 30
0.0
 11
35.505381
 21
31.981917
 31
0.0
  0
LINE
  5
170
100
AcDbEntity
  8
{
 62
7
100
AcDbLine
 10
35.505381
 20
31.981917
 30
0.0
 11
36.367769
 21
31.460973
 31
0.0
  0
LINE
  5
171
100
AcDbEntity
  8
{
 62
7
100
AcDbLine
 10
36.367769
 20
31.460973
 30
0.0
 11
37.274038
 21
31.009963
 31
0.0
  0
LINE
  5
172
100
AcDbEntity
  8
{
 62
7
100
AcDbLine
 10
37.274038
 20
31.009963
 30
0.0
 11
38.220467
 21
30.632608
 31
0.0
  0
LINE
  5
173
100
AcDbEntity
  8
{
 62
7
100
AcDbLine
 10
38.220467
 20
30.632608
 30
0.0
 11
39.203332
 21
30.332632
 31
0.0
  0
LINE
  5
174
100
AcDbEntity
  8
{
 62
7
100
AcDbLine
 10
39.203332
 20
30.332632
 30
0.0
 11
40.218913
 21
30.113755
 31
0.0
  0
LINE
  5
175
100
AcDbEntity
  8
{
 62
7
100
AcDbLine
 10
40.218913
 20
30.113755
 30
0.0
 11
41.263488
 21
29.979699
 31
0.0
  0
LINE
  5
176
100
AcDbEntity
  8
{
 62
7
100
AcDbLine
 10
41.263488
 20
29.979699
 30
0.0
 11
42.333333
 21
29.934187
 31
0.0
  0
LINE
  5
177
100
AcDbEntity
  8
{
 62
7
100
AcDbLine
 10
42.333333
 20
29.934187
 30
0.0
 11
42.333333
 21
0.000000
 31
0.0
  0
LINE
  5
178
100
AcDbEntity
  8
}
 62
7
100
AcDbLine
 10
42.333333
 20
42.333333
 30
0.0
 11
42.177945
 21
38.680651
 31
0.0
  0
LINE
  5
179
100
AcDbEntity
  8
}
 62
7
100
AcDbLine
 10
42.177945
 20
38.680651
 30
0.0
 11
41.720250
 21
35.114252
 31
0.0
  0
LINE
  5
17a
100
AcDbEntity
  8
}
 62
7
100
AcDbLine
 10
41.720250
 20
35.114252
 30
0.0
 11
40.972958
 21
31.646842
 31
0.0
  0
LINE
  5
17b
100
AcDbEntity
  8
}
 62
7
100
AcDbLine
 10
40.972958
 20
31.646842
 30
0.0
 11
39.948774
 21
28.291129
 31
0.0
  0
LINE
  5
17c
100
AcDbEntity
  8
}
 62
7
100
AcDbLine
 10
39.948774
 20
28.291129
 30
0.0
 11
38.660406
 21
25.059820
 31
0.0
  0
LINE
  5
17d
100
AcDbEntity
  8
}
 62
7
100
AcDbLine
 10
38.660406
 20
25.059820
 30
0.0
 11
37.120561
 21
21.965623
 31
0.0
  0
LINE
  5
17e
100
AcDbEntity
  8
}
 62
7
100
AcDbLine
 10
37.120561
 20
21.965623
 30
0.0
 11
35.341947
 21
19.021244
 31
0.0
  0
LINE
  5
17f
100
AcDbEntity
  8
}
 62
7
100
AcDbLine
 10
35.341947
 20
19.021244
 30
0.0
 11
33.337271
 21
16.239392
 31
0.0
  0
LINE
  5
180
100
AcDbEntity
  8
}
 62
7
100
AcDbLine
 10
33.337271
 20
16.239392
 30
0.0
 11
31.119240
 21
13.632772
 31
0.0
  0
LINE
  5
181
100
AcDbEntity
  8
}
 62
7
100
AcDbLine
 10
31.119240
 20
13.632772
 30
0.0
 11
28.700561
 21
11.214094
 31
0.0
  0
LINE
  5
182
100
AcDbEntity
  8
}
 62
7
100
AcDbLine
 10
28.700561
 20
11.214094
 30
0.0
 11
26.093941
 21
8.996062
 31
0.0
  0
LINE
  5
183
100
AcDbEntity
  8
}
 62
7
100
AcDbLine
 10
26.093941
 20
8.996062
 30
0.0
 11
23.312089
 21
6.991386
 31
0.0
  0
LINE
  5
184
100
AcDbEntity
  8
}
 62
7
100
AcDbLine
 10
23.312089
 20
6.991386
 30
0.0
 11
20.367710
 21
5.212772
 31
0.0
  0
LINE
  5
185
100
AcDbEntity
  8
}
 62
7
100
AcDbLine
 10
20.367710
 20
5.212772
 30
0.0
 11
17.273513
 21
3.672927
 31
0.0
  0
LINE
  5
186
100
AcDbEntity
  8
}
 62
7
100
AcDbLine
 10
17.273513
 20
3.672927
 30
0.0
 11
14.042204
 21
2.384560
 31
0.0
  0
LINE
  5
187
100
AcDbEntity
  8
}
 62
7
100
AcDbLine
 10
14.042204
 20
2.384560
 30
0.0
 11
10.686492
 21
1.360376
 31
0.0
  0
LINE
  5
188
100
AcDbEntity
  8
}
 62
7
100
AcDbLine
 10
10.686492
 20
1.360376
 30
0.0
 11
7.219082
 21
0.613083
 31
0.0
  0
LINE
  5
189
100
AcDbEntity
  8
}
 62
7
100
AcDbLine
 10
7.219082
 20
0.613083
 30
0.0
 11
3.652682
 21
0.155389
 31
0.0
  0
LINE
  5
18a
100
AcDbEntity
  8
}
 62
7
100
AcDbLine
 10
3.652682
 20
0.155389
 30
0.0
 11
0.000000
 21
0.000000
 31
0.0
  0
LINE
  5
18b
100
AcDbEntity
  8
}
 62
7
100
AcDbLine
 10
0.000000
 20
0.000000
 30
0.0
 11
0.000000
 21
29.934187
 31
0.0
  0
LINE
  5
18c
100
AcDbEntity
  8
}
 62
7
100
AcDbLine
 10
0.000000
 20
29.934187
 30
0.0
 11
1.069846
 21
29.979699
 31
0.0
  0
LINE
  5
18d
100
AcDbEntity
  8
}
 62
7
100
AcDbLine
 10
1.069846
 20
29.979699
 30
0.0
 11
2.114420
 21
30.113755
 31
0.0
  0
LINE
  5
18e
100
AcDbEntity
  8
}
 62
7
100
AcDbLine
 10
2.114420
 20
30.113755
 30
0.0
 11
3.130001
 21
30.332632
 31
0.0
  0
LINE
  5
18f
100
AcDbEntity
  8
}
 62
7
100
AcDbLine
 10
3.130001
 20
30.332632
 30
0.0
 11
4.112866
 21
30.632608
 31
0.0
  0
LINE
  5
190
100
AcDbEntity
  8
}
 62
7
100
AcDbLine
 10
4.112866
 20
30.632608
 30
0.0
 11
5.059295
 21
31.009963
 31
0.0
  0
LINE
  5
191
100
AcDbEntity
  8
}
 62
7
100
AcDbLine
 10
5.059295
 20
31.009963
 30
0.0
 11
5.965564
 21
31.460973
 31
0.0
  0
LINE
  5
192
100
AcDbEntity
  8
}
 62
7
100
AcDbLine
 10
5.965564
 20
31.460973
 30
0.0
 11
6.827953
 21
31.981917
 31
0.0
  0
LINE
  5
193
100
AcDbEntity
  8
}
 62
7
100
AcDbLine
 10
6.827953
 20
31.981917
 30
0.0
 11
7.642739
 21
32.569073
 31
0.0
  0
LINE
  5
194
100
AcDbEntity
  8
}
 62
7
100
AcDbLine
 10
7.642739
 20
32.569073
 30
0.0
 11
8.406200
 21
33.218719
 31
0.0
  0
LINE
  5
195
100
AcDbEntity
  8
}
 62
7
100
AcDbLine
 10
8.406200
 20
33.218719
 30
0.0
 11
9.114614
 21
33.927134
 31
0.0
  0
LINE
  5
196
100
AcDbEntity
  8
}
 62
7
100
AcDbLine
 10
9.114614
 20
33.927134
 30
0.0
 11
9.764261
 21
34.690595
 31
0.0
  0
LINE
  5
197
100
AcDbEntity
  8
}
 62
7
100
AcDbLine
 10
9.764261
 20
34.690595
 30
0.0
 11
10.351417
 21
35.505381
 31
0.0
  0
LINE
  5
198
100
AcDbEntity
  8
}
 62
7
100
AcDbLine
 10
10.351417
 20
35.505381
 30
0.0
 11
10.872361
 21
36.367769
 31
0.0
  0
LINE
  5
199
100
AcDbEntity
  8
}
 62
7
100
AcDbLine
 10
10.872361
 20
36.367769
 30
0.0
 11
11.323371
 21
37.274038
 31
0.0
  0
LINE
  5
19a
100
AcDbEntity
  8
}
 62
7
100
AcDbLine
 10
11.323371
 20
37.274038
 30
0.0
 11
11.700725
 21
38.220467
 31
0.0
  0
LINE
  5
19b
100
AcDbEntity
  8
}
 62
7
100
AcDbLine
 10
11.700725
 20
38.220467
 30
0.0
 11
12.000701
 21
39.203332
 31
0.0
  0
LINE
  5
19c
100
AcDbEntity
  8
}
 62
7
100
AcDbLine
 10
12.000701
 20
39.203332
 30
0.0
 11
12.219578
 21
40.218913
 31
0.0
  0
LINE
  5
19d
100
AcDbEntity
  8
}
 62
7
100
AcDbLine
 10
12.219578
 20
40.218913
 30
0.0
 11
12.353634
 21
41.263488
 31
0.0
  0
LINE
  5
19e
100
AcDbEntity
  8
}
 62
7
100
AcDbLine
 10
12.353634
 20
41.263488
 30
0.0
 11
12.399146
 21
42.333333
 31
0.0
  0
LINE
  5
19f
100
AcDbEntity
  8
}
 62
7
100
AcDbLine
 10
12.399146
 20
42.333333
 30
0.0
 11
42.333333
 21
42.333333
 31
0.0
  0
LINE
  5
1a0
100
AcDbEntity
  8
<
 62
7
100
AcDbLine
 10
0.000000
 20
0.000000
 30
0.0
 11
0.000000
 21
42.333333
 31
0.0
  0
LINE
  5
1a1
100
AcDbEntity
  8
<
 62
7
100
AcDbLine
 10
0.000000
 20
42.333333
 30
0.0
 11
42.333333
 21
42.333333
 31
0.0
  0
LINE
  5
1a2
100
AcDbEntity
  8
<
 62
7
100
AcDbLine
 10
42.333333
 20
42.333333
 30
0.0
 11
42.333333
 21
12.399146
 31
0.0
  0
LINE
  5
1a3
100
AcDbEntity
  8
<
 62
7
100
AcDbLine
 10
42.333333
 20
12.399146
 30
0.0
 11
29.934187
 21
12.399146
 31
0.0
  0
LINE
  5
1a4
100
AcDbEntity
  8
<
 62
7
100
AcDbLine
 10
29.934187
 20
12.399146
 30
0.0
 11
29.934187
 21
-0.000000
 31
0.0
  0
LINE
  5
1a5
100
AcDbEntity
  8
<
 62
7
100
AcDbLine
 10
29.934187
 20
-0.000000
 30
0.0
 11
0.000000
 21
0.000000
 31
0.0
  0
LINE
  5
1a6
100
AcDbEntity
  8
>
 62
7
100
AcDbLine
 10
0.000000
 20
42.333333
 30
0.0
 11
42.333333
 21
42.333333
 31
0.0
  0
LINE
  5
1a7
100
AcDbEntity
  8
>
 62
7
100
AcDbLine
 10
42.333333
 20
42.333333
 30
0.0
 11
42.333333
 21
0.000000
 31
0.0
  0
LINE
  5
1a8
100
AcDbEntity
  8
>
 62
7
100
AcDbLine
 10
42.333333
 20
0.000000
 30
0.0
 11
12.399146
 21
0.000000
 31
0.0
  0
LINE
  5
1a9
100
AcDbEntity
  8
>
 62
7
100
AcDbLine
 10
12.399146
 20
0.000000
 30
0.0
 11
12.399146
 21
12.399146
 31
0.0
  0
LINE
  5
1aa
100
AcDbEntity
  8
>
 62
7
100
AcDbLine
 10
12.399146
 20
12.399146
 30
0.0
 11
0.000000
 21
12.399146
 31
0.0
  0
LINE
  5
1ab
100
AcDbEntity
  8
>
 62
7
100
AcDbLine
 10
0.000000
 20
12.399146
 30
0.0
 11
0.000000
 21
42.333333
 31
0.0
  0
LINE
  5
1ac
100
AcDbEntity
  8
[
 62
7
100
AcDbLine
 10
42.333333
 20
0.000000
 30
0.0
 11
0.000000
 21
-0.000000
 31
0.0
  0
LINE
  5
1ad
100
AcDbEntity
  8
[
 62
7
100
AcDbLine
 10
0.000000
 20
-0.000000
 30
0.0
 11
-0.000000
 21
42.333333
 31
0.0
  0
LINE
  5
1ae
100
AcDbEntity
  8
[
 62
7
100
AcDbLine
 10
-0.000000
 20
42.333333
 30
0.0
 11
29.934187
 21
42.333333
 31
0.0
  0
LINE
  5
1af
100
AcDbEntity
  8
[
 62
7
100
AcDbLine
 10
29.934187
 20
42.333333
 30
0.0
 11
29.934187
 21
29.934187
 31
0.0
  0
LINE
  5
1b0
100
AcDbEntity
  8
[
 62
7
100
AcDbLine
 10
29.934187
 20
29.934187
 30
0.0
 11
42.333333
 21
29.934187
 31
0.0
  0
LINE
  5
1b1
100
AcDbEntity
  8
[
 62
7
100
AcDbLine
 10
42.333333
 20
29.934187
 30
0.0
 11
42.333333
 21
0.000000
 31
0.0
  0
LINE
  5
1b2
100
AcDbEntity
  8
]
 62
7
100
AcDbLine
 10
42.333333
 20
42.333333
 30
0.0
 11
42.333333
 21
0.000000
 31
0.0
  0
LINE
  5
1b3
100
AcDbEntity
  8
]
 62
7
100
AcDbLine
 10
42.333333
 20
0.000000
 30
0.0
 11
0.000000
 21
0.000000
 31
0.0
  0
LINE
  5
1b4
100
AcDbEntity
  8
]
 62
7
100
AcDbLine
 10
0.000000
 20
0.000000
 30
0.0
 11
0.000000
 21
29.934187
 31
0.0
  0
LINE
  5
1b5
100
AcDbEntity
  8
]
 62
7
100
AcDbLine
 10
0.000000
 20
29.934187
 30
0.0
 11
12.399146
 21
29.934187
 31
0.0
  0
LINE
  5
1b6
100
AcDbEntity
  8
]
 62
7
100
AcDbLine
 10
12.399146
 20
29.934187
 30
0.0
 11
12.399146
 21
42.333333
 31
0.0
  0
LINE
  5
1b7
100
AcDbEntity
  8
]
 62
7
100
AcDbLine
 10
12.399146
 20
42.333333
 30
0.0
 11
42.333333
 21
42.333333
 31
0.0
  0
LINE
  5
1b8
100
AcDbEntity
  8
q_
 62
7
100
AcDbLine
 10
42.333333
 20
42.333333
 30
0.0
 11
42.333333
 21
12.399146
 31
0.0
  0
LINE
  5
1b9
100
AcDbEntity
  8
q_
 62
7
100
AcDbLine
 10
42.333333
 20
12.399146
 30
0.0
 11
41.241992
 21
12.348530
 31
0.0
  0
LINE
  5
1ba
100
AcDbEntity
  8
q_
 62
7
100
AcDbLine
 10
41.241992
 20
12.348530
 30
0.0
 11
40.132312
 21
12.200297
 31
0.0
  0
LINE
  5
1bb
100
AcDbEntity
  8
q_
 62
7
100
AcDbLine
 10
40.132312
 20
12.200297
 30
0.0
 11
39.007083
 21
11.959870
 31
0.0
  0
LINE
  5
1bc
100
AcDbEntity
  8
q_
 62
7
100
AcDbLine
 10
39.007083
 20
11.959870
 30
0.0
 11
37.869097
 21
11.632673
 31
0.0
  0
LINE
  5
1bd
100
AcDbEntity
  8
q_
 62
7
100
AcDbLine
 10
37.869097
 20
11.632673
 30
0.0
 11
36.721147
 21
11.224129
 31
0.0
  0
LINE
  5
1be
100
AcDbEntity
  8
q_
 62
7
100
AcDbLine
 10
36.721147
 20
11.224129
 30
0.0
 11
35.566022
 21
10.739660
 31
0.0
  0
LINE
  5
1bf
100
AcDbEntity
  8
q_
 62
7
100
AcDbLine
 10
35.566022
 20
10.739660
 30
0.0
 11
34.406515
 21
10.184690
 31
0.0
  0
LINE
  5
1c0
100
AcDbEntity
  8
q_
 62
7
100
AcDbLine
 10
34.406515
 20
10.184690
 30
0.0
 11
33.245417
 21
9.564642
 31
0.0
  0
LINE
  5
1c1
100
AcDbEntity
  8
q_
 62
7
100
AcDbLine
 10
33.245417
 20
9.564642
 30
0.0
 11
32.085519
 21
8.884940
 31
0.0
  0
LINE
  5
1c2
100
AcDbEntity
  8
q_
 62
7
100
AcDbLine
 10
32.085519
 20
8.884940
 30
0.0
 11
30.929613
 21
8.151006
 31
0.0
  0
LINE
  5
1c3
100
AcDbEntity
  8
q_
 62
7
100
AcDbLine
 10
30.929613
 20
8.151006
 30
0.0
 11
29.780490
 21
7.368264
 31
0.0
  0
LINE
  5
1c4
100
AcDbEntity
  8
q_
 62
7
100
AcDbLine
 10
29.780490
 20
7.368264
 30
0.0
 11
28.640942
 21
6.542136
 31
0.0
  0
LINE
  5
1c5
100
AcDbEntity
  8
q_
 62
7
100
AcDbLine
 10
28.640942
 20
6.542136
 30
0.0
 11
27.513759
 21
5.678046
 31
0.0
  0
LINE
  5
1c6
100
AcDbEntity
  8
q_
 62
7
100
AcDbLine
 10
27.513759
 20
5.678046
 30
0.0
 11
26.401734
 21
4.781417
 31
0.0
  0
LINE
  5
1c7
100
AcDbEntity
  8
q_
 62
7
100
AcDbLine
 10
26.401734
 20
4.781417
 30
0.0
 11
25.307657
 21
3.857673
 31
0.0
  0
LINE
  5
1c8
100
AcDbEntity
  8
q_
 62
7
100
AcDbLine
 10
25.307657
 20
3.857673
 30
0.0
 11
24.234321
 21
2.912236
 31
0.0
  0
LINE
  5
1c9
100
AcDbEntity
  8
q_
 62
7
100
AcDbLine
 10
24.234321
 20
2.912236
 30
0.0
 11
23.184516
 21
1.950529
 31
0.0
  0
LINE
  5
1ca
100
AcDbEntity
  8
q_
 62
7
100
AcDbLine
 10
23.184516
 20
1.950529
 30
0.0
 11
22.161034
 21
0.977976
 31
0.0
  0
LINE
  5
1cb
100
AcDbEntity
  8
q_
 62
7
100
AcDbLine
 10
22.161034
 20
0.977976
 30
0.0
 11
21.166667
 21
0.000000
 31
0.0
  0
LINE
  5
1cc
100
AcDbEntity
  8
q_
 62
7
100
AcDbLine
 10
21.166667
 20
0.000000
 30
0.0
 11
0.000000
 21
0.000000
 31
0.0
  0
LINE
  5
1cd
100
AcDbEntity
  8
q_
 62
7
100
AcDbLine
 10
0.000000
 20
0.000000
 30
0.0
 11
0.000000
 21
21.166667
 31
0.0
  0
LINE
  5
1ce
100
AcDbEntity
  8
q_
 62
7
100
AcDbLine
 10
0.000000
 20
21.166667
 30
0.0
 11
2.276400
 21
23.457406
 31
0.0
  0
LINE
  5
1cf
100
AcDbEntity
  8
q_
 62
7
100
AcDbLine
 10
2.276400
 20
23.457406
 30
0.0
 11
4.396862
 21
25.604671
 31
0.0
  0
LINE
  5
1d0
100
AcDbEntity
  8
q_
 62
7
100
AcDbLine
 10
4.396862
 20
25.604671
 30
0.0
 11
6.387957
 21
27.610709
 31
0.0
  0
LINE
  5
1d1
100
AcDbEntity
  8
q_
 62
7
100
AcDbLine
 10
6.387957
 20
27.610709
 30
0.0
 11
8.276257
 21
29.477764
 31
0.0
  0
LINE
  5
1d2
100
AcDbEntity
  8
q_
 62
7
100
AcDbLine
 10
8.276257
 20
29.477764
 30
0.0
 11
10.088331
 21
31.208085
 31
0.0
  0
LINE
  5
1d3
100
AcDbEntity
  8
q_
 62
7
100
AcDbLine
 10
10.088331
 20
31.208085
 30
0.0
 11
11.850751
 21
32.803917
 31
0.0
  0
LINE
  5
1d4
100
AcDbEntity
  8
q_
 62
7
100
AcDbLine
 10
11.850751
 20
32.803917
 30
0.0
 11
13.590087
 21
34.267506
 31
0.0
  0
LINE
  5
1d5
100
AcDbEntity
  8
q_
 62
7
100
AcDbLine
 10
13.590087
 20
34.267506
 30
0.0
 11
15.332910
 21
35.601099
 31
0.0
  0
LINE
  5
1d6
100
AcDbEntity
  8
q_
 62
7
100
AcDbLine
 10
15.332910
 20
35.601099
 30
0.0
 11
17.105791
 21
36.806943
 31
0.0
  0
LINE
  5
1d7
100
AcDbEntity
  8
q_
 62
7
100
AcDbLine
 10
17.105791
 20
36.806943
 30
0.0
 11
18.935300
 21
37.887282
 31
0.0
  0
LINE
  5
1d8
100
AcDbEntity
  8
q_
 62
7
100
AcDbLine
 10
18.935300
 20
37.887282
 30
0.0
 11
20.848008
 21
38.844365
 31
0.0
  0
LINE
  5
1d9
100
AcDbEntity
  8
q_
 62
7
100
AcDbLine
 10
20.848008
 20
38.844365
 30
0.0
 11
22.870487
 21
39.680437
 31
0.0
  0
LINE
  5
1da
100
AcDbEntity
  8
q_
 62
7
100
AcDbLine
 10
22.870487
 20
39.680437
 30
0.0
 11
25.029306
 21
40.397745
 31
0.0
  0
LINE
  5
1db
100
AcDbEntity
  8
q_
 62
7
100
AcDbLine
 10
25.029306
 20
40.397745
 30
0.0
 11
27.351036
 21
40.998535
 31
0.0
  0
LINE
  5
1dc
100
AcDbEntity
  8
q_
 62
7
100
AcDbLine
 10
27.351036
 20
40.998535
 30
0.0
 11
29.862248
 21
41.485052
 31
0.0
  0
LINE
  5
1dd
100
AcDbEntity
  8
q_
 62
7
100
AcDbLine
 10
29.862248
 20
41.485052
 30
0.0
 11
32.589513
 21
41.859545
 31
0.0
  0
LINE
  5
1de
100
AcDbEntity
  8
q_
 62
7
100
AcDbLine
 10
32.589513
 20
41.859545
 30
0.0
 11
35.559402
 21
42.124258
 31
0.0
  0
LINE
  5
1df
100
AcDbEntity
  8
q_
 62
7
100
AcDbLine
 10
35.559402
 20
42.124258
 30
0.0
 11
38.798485
 21
42.281439
 31
0.0
  0
LINE
  5
1e0
100
AcDbEntity
  8
q_
 62
7
100
AcDbLine
 10
38.798485
 20
42.281439
 30
0.0
 11
42.333333
 21
42.333333
 31
0.0
  0
LINE
  5
1e1
100
AcDbEntity
  8
q_
 62
7
100
AcDbLine
 10
42.333333
 20
42.333333
 30
0.0
 11
42.333333
 21
42.333333
 31
0.0
  0
LINE
  5
1e2
100
AcDbEntity
  8
w_
 62
7
100
AcDbLine
 10
0.000000
 20
42.333333
 30
0.0
 11
0.000000
 21
12.399146
 31
0.0
  0
LINE
  5
1e3
100
AcDbEntity
  8
w_
 62
7
100
AcDbLine
 10
0.000000
 20
12.399146
 30
0.0
 11
1.091341
 21
12.348530
 31
0.0
  0
LINE
  5
1e4
100
AcDbEntity
  8
w_
 62
7
100
AcDbLine
 10
1.091341
 20
12.348530
 30
0.0
 11
2.201022
 21
12.200297
 31
0.0
  0
LINE
  5
1e5
100
AcDbEntity
  8
w_
 62
7
100
AcDbLine
 10
2.201022
 20
12.200297
 30
0.0
 11
3.326251
 21
11.959870
 31
0.0
  0
LINE
  5
1e6
100
AcDbEntity
  8
w_
 62
7
100
AcDbLine
 10
3.326251
 20
11.959870
 30
0.0
 11
4.464236
 21
11.632673
 31
0.0
  0
LINE
  5
1e7
100
AcDbEntity
  8
w_
 62
7
100
AcDbLine
 10
4.464236
 20
11.632673
 30
0.0
 11
5.612187
 21
11.224129
 31
0.0
  0
LINE
  5
1e8
100
AcDbEntity
  8
w_
 62
7
100
AcDbLine
 10
5.612187
 20
11.224129
 30
0.0
 11
6.767311
 21
10.739660
 31
0.0
  0
LINE
  5
1e9
100
AcDbEntity
  8
w_
 62
7
100
AcDbLine
 10
6.767311
 20
10.739660
 30
0.0
 11
7.926818
 21
10.184690
 31
0.0
  0
LINE
  5
1ea
100
AcDbEntity
  8
w_
 62
7
100
AcDbLine
 10
7.926818
 20
10.184690
 30
0.0
 11
9.087916
 21
9.564642
 31
0.0
  0
LINE
  5
1eb
100
AcDbEntity
  8
w_
 62
7
100
AcDbLine
 10
9.087916
 20
9.564642
 30
0.0
 11
10.247814
 21
8.884940
 31
0.0
  0
LINE
  5
1ec
100
AcDbEntity
  8
w_
 62
7
100
AcDbLine
 10
10.247814
 20
8.884940
 30
0.0
 11
11.403720
 21
8.151006
 31
0.0
  0
LINE
  5
1ed
100
AcDbEntity
  8
w_
 62
7
100
AcDbLine
 10
11.403720
 20
8.151006
 30
0.0
 11
12.552843
 21
7.368264
 31
0.0
  0
LINE
  5
1ee
100
AcDbEntity
  8
w_
 62
7
100
AcDbLine
 10
12.552843
 20
7.368264
 30
0.0
 11
13.692392
 21
6.542136
 31
0.0
  0
LINE
  5
1ef
100
AcDbEntity
  8
w_
 62
7
100
AcDbLine
 10
13.692392
 20
6.542136
 30
0.0
 11
14.819574
 21
5.678046
 31
0.0
  0
LINE
  5
1f0
100
AcDbEntity
  8
w_
 62
7
100
AcDbLine
 10
14.819574
 20
5.678046
 30
0.0
 11
15.931599
 21
4.781417
 31
0.0
  0
LINE
  5
1f1
100
AcDbEntity
  8
w_
 62
7
100
AcDbLine
 10
15.931599
 20
4.781417
 30
0.0
 11
17.025676
 21
3.857673
 31
0.0
  0
LINE
  5
1f2
100
AcDbEntity
  8
w_
 62
7
100
AcDbLine
 10
17.025676
 20
3.857673
 30
0.0
 11
18.099012
 21
2.912236
 31
0.0
  0
LINE
  5
1f3
100
AcDbEntity
  8
w_
 62
7
100
AcDbLine
 10
18.099012
 20
2.912236
 30
0.0
 11
19.148817
 21
1.950529
 31
0.0
  0
LINE
  5
1f4
100
AcDbEntity
  8
w_
 62
7
100
AcDbLine
 10
19.148817
 20
1.950529
 30
0.0
 11
20.172299
 21
0.977976
 31
0.0
  0
LINE
  5
1f5
100
AcDbEntity
  8
w_
 62
7
100
AcDbLine
 10
20.172299
 20
0.977976
 30
0.0
 11
21.166667
 21
0.000000
 31
0.0
  0
LINE
  5
1f6
100
AcDbEntity
  8
w_
 62
7
100
AcDbLine
 10
21.166667
 20
0.000000
 30
0.0
 11
42.333333
 21
0.000000
 31
0.0
  0
LINE
  5
1f7
100
AcDbEntity
  8
w_
 62
7
100
AcDbLine
 10
42.333333
 20
0.000000
 30
0.0
 11
42.333333
 21
21.166667
 31
0.0
  0
LINE
  5
1f8
100
AcDbEntity
  8
w_
 62
7
100
AcDbLine
 10
42.333333
 20
21.166667
 30
0.0
 11
40.056934
 21
23.457406
 31
0.0
  0
LINE
  5
1f9
100
AcDbEntity
  8
w_
 62
7
100
AcDbLine
 10
40.056934
 20
23.457406
 30
0.0
 11
37.936471
 21
25.604671
 31
0.0
  0
LINE
  5
1fa
100
AcDbEntity
  8
w_
 62
7
100
AcDbLine
 10
37.936471
 20
25.604671
 30
0.0
 11
35.945376
 21
27.610709
 31
0.0
  0
LINE
  5
1fb
100
AcDbEntity
  8
w_
 62
7
100
AcDbLine
 10
35.945376
 20
27.610709
 30
0.0
 11
34.057076
 21
29.477764
 31
0.0
  0
LINE
  5
1fc
100
AcDbEntity
  8
w_
 62
7
100
AcDbLine
 10
34.057076
 20
29.477764
 30
0.0
 11
32.245002
 21
31.208085
 31
0.0
  0
LINE
  5
1fd
100
AcDbEntity
  8
w_
 62
7
100
AcDbLine
 10
32.245002
 20
31.208085
 30
0.0
 11
30.482582
 21
32.803917
 31
0.0
  0
LINE
  5
1fe
100
AcDbEntity
  8
w_
 62
7
100
AcDbLine
 10
30.482582
 20
32.803917
 30
0.0
 11
28.743246
 21
34.267506
 31
0.0
  0
LINE
  5
1ff
100
AcDbEntity
  8
w_
 62
7
100
AcDbLine
 10
28.743246
 20
34.267506
 30
0.0
 11
27.000423
 21
35.601099
 31
0.0
  0
LINE
  5
200
100
AcDbEntity
  8
w_
 62
7
100
AcDbLine
 10
27.000423
 20
35.601099
 30
0.0
 11
25.227542
 21
36.806943
 31
0.0
  0
LINE
  5
201
100
AcDbEntity
  8
w_
 62
7
100
AcDbLine
 10
25.227542
 20
36.806943
 30
0.0
 11
23.398033
 21
37.887282
 31
0.0
  0
LINE
  5
202
100
AcDbEntity
  8
w_
 62
7
100
AcDbLine
 10
23.398033
 20
37.887282
 30
0.0
 11
21.485325
 21
38.844365
 31
0.0
  0
LINE
  5
203
100
AcDbEntity
  8
w_
 62
7
100
AcDbLine
 10
21.485325
 20
38.844365
 30
0.0
 11
19.462847
 21
39.680437
 31
0.0
  0
LINE
  5
204
100
AcDbEntity
  8
w_
 62
7
100
AcDbLine
 10
19.462847
 20
39.680437
 30
0.0
 11
17.304028
 21
40.397745
 31
0.0
  0
LINE
  5
205
100
AcDbEntity
  8
w_
 62
7
100
AcDbLine
 10
17.304028
 20
40.397745
 30
0.0
 11
14.982297
 21
40.998535
 31
0.0
  0
LINE
  5
206
100
AcDbEntity
  8
w_
 62
7
100
AcDbLine
 10
14.982297
 20
40.998535
 30
0.0
 11
12.471085
 21
41.485052
 31
0.0
  0
LINE
  5
207
100
AcDbEntity
  8
w_
 62
7
100
AcDbLine
 10
12.471085
 20
41.485052
 30
0.0
 11
9.743820
 21
41.859545
 31
0.0
  0
LINE
  5
208
100
AcDbEntity
  8
w_
 62
7
100
AcDbLine
 10
9.743820
 20
41.859545
 30
0.0
 11
6.773931
 21
42.124258
 31
0.0
  0
LINE
  5
209
100
AcDbEntity
  8
w_
 62
7
100
AcDbLine
 10
6.773931
 20
42.124258
 30
0.0
 11
3.534848
 21
42.281439
 31
0.0
  0
LINE
  5
20a
100
AcDbEntity
  8
w_
 62
7
100
AcDbLine
 10
3.534848
 20
42.281439
 30
0.0
 11
0.000000
 21
42.333333
 31
0.0
  0
LINE
  5
20b
100
AcDbEntity
  8
w_
 62
7
100
AcDbLine
 10
0.000000
 20
42.333333
 30
0.0
 11
0.000000
 21
42.333333
 31
0.0
  0
LINE
  5
20c
100
AcDbEntity
  8
a_
 62
7
100
AcDbLine
 10
42.333333
 20
0.000000
 30
0.0
 11
42.333333
 21
29.934187
 31
0.0
  0
LINE
  5
20d
100
AcDbEntity
  8
a_
 62
7
100
AcDbLine
 10
42.333333
 20
29.934187
 30
0.0
 11
41.241992
 21
29.984803
 31
0.0
  0
LINE
  5
20e
100
AcDbEntity
  8
a_
 62
7
100
AcDbLine
 10
41.241992
 20
29.984803
 30
0.0
 11
40.132312
 21
30.133036
 31
0.0
  0
LINE
  5
20f
100
AcDbEntity
  8
a_
 62
7
100
AcDbLine
 10
40.132312
 20
30.133036
 30
0.0
 11
39.007083
 21
30.373463
 31
0.0
  0
LINE
  5
210
100
AcDbEntity
  8
a_
 62
7
100
AcDbLine
 10
39.007083
 20
30.373463
 30
0.0
 11
37.869097
 21
30.700660
 31
0.0
  0
LINE
  5
211
100
AcDbEntity
  8
a_
 62
7
100
AcDbLine
 10
37.869097
 20
30.700660
 30
0.0
 11
36.721147
 21
31.109205
 31
0.0
  0
LINE
  5
212
100
AcDbEntity
  8
a_
 62
7
100
AcDbLine
 10
36.721147
 20
31.109205
 30
0.0
 11
35.566022
 21
31.593673
 31
0.0
  0
LINE
  5
213
100
AcDbEntity
  8
a_
 62
7
100
AcDbLine
 10
35.566022
 20
31.593673
 30
0.0
 11
34.406515
 21
32.148643
 31
0.0
  0
LINE
  5
214
100
AcDbEntity
  8
a_
 62
7
100
AcDbLine
 10
34.406515
 20
32.148643
 30
0.0
 11
33.245417
 21
32.768691
 31
0.0
  0
LINE
  5
215
100
AcDbEntity
  8
a_
 62
7
100
AcDbLine
 10
33.245417
 20
32.768691
 30
0.0
 11
32.085519
 21
33.448393
 31
0.0
  0
LINE
  5
216
100
AcDbEntity
  8
a_
 62
7
100
AcDbLine
 10
32.085519
 20
33.448393
 30
0.0
 11
30.929613
 21
34.182327
 31
0.0
  0
LINE
  5
217
100
AcDbEntity
  8
a_
 62
7
100
AcDbLine
 10
30.929613
 20
34.182327
 30
0.0
 11
29.780490
 21
34.965070
 31
0.0
  0
LINE
  5
218
100
AcDbEntity
  8
a_
 62
7
100
AcDbLine
 10
29.780490
 20
34.965070
 30
0.0
 11
28.640942
 21
35.791197
 31
0.0
  0
LINE
  5
219
100
AcDbEntity
  8
a_
 62
7
100
AcDbLine
 10
28.640942
 20
35.791197
 30
0.0
 11
27.513759
 21
36.655287
 31
0.0
  0
LINE
  5
21a
100
AcDbEntity
  8
a_
 62
7
100
AcDbLine
 10
27.513759
 20
36.655287
 30
0.0
 11
26.401734
 21
37.551916
 31
0.0
  0
LINE
  5
21b
100
AcDbEntity
  8
a_
 62
7
100
AcDbLine
 10
26.401734
 20
37.551916
 30
0.0
 11
25.307657
 21
38.475660
 31
0.0
  0
LINE
  5
21c
100
AcDbEntity
  8
a_
 62
7
100
AcDbLine
 10
25.307657
 20
38.475660
 30
0.0
 11
24.234321
 21
39.421098
 31
0.0
  0
LINE
  5
21d
100
AcDbEntity
  8
a_
 62
7
100
AcDbLine
 10
24.234321
 20
39.421098
 30
0.0
 11
23.184516
 21
40.382804
 31
0.0
  0
LINE
  5
21e
100
AcDbEntity
  8
a_
 62
7
100
AcDbLine
 10
23.184516
 20
40.382804
 30
0.0
 11
22.161034
 21
41.355357
 31
0.0
  0
LINE
  5
21f
100
AcDbEntity
  8
a_
 62
7
100
AcDbLine
 10
22.161034
 20
41.355357
 30
0.0
 11
21.166667
 21
42.333333
 31
0.0
  0
LINE
  5
220
100
AcDbEntity
  8
a_
 62
7
100
AcDbLine
 10
21.166667
 20
42.333333
 30
0.0
 11
0.000000
 21
42.333333
 31
0.0
  0
LINE
  5
221
100
AcDbEntity
  8
a_
 62
7
100
AcDbLine
 10
0.000000
 20
42.333333
 30
0.0
 11
0.000000
 21
21.166667
 31
0.0
  0
LINE
  5
222
100
AcDbEntity
  8
a_
 62
7
100
AcDbLine
 10
0.000000
 20
21.166667
 30
0.0
 11
2.276400
 21
18.875927
 31
0.0
  0
LINE
  5
223
100
AcDbEntity
  8
a_
 62
7
100
AcDbLine
 10
2.276400
 20
18.875927
 30
0.0
 11
4.396862
 21
16.728662
 31
0.0
  0
LINE
  5
224
100
AcDbEntity
  8
a_
 62
7
100
AcDbLine
 10
4.396862
 20
16.728662
 30
0.0
 11
6.387957
 21
14.722625
 31
0.0
  0
LINE
  5
225
100
AcDbEntity
  8
a_
 62
7
100
AcDbLine
 10
6.387957
 20
14.722625
 30
0.0
 11
8.276257
 21
12.855569
 31
0.0
  0
LINE
  5
226
100
AcDbEntity
  8
a_
 62
7
100
AcDbLine
 10
8.276257
 20
12.855569
 30
0.0
 11
10.088331
 21
11.125248
 31
0.0
  0
LINE
  5
227
100
AcDbEntity
  8
a_
 62
7
100
AcDbLine
 10
10.088331
 20
11.125248
 30
0.0
 11
11.850751
 21
9.529417
 31
0.0
  0
LINE
  5
228
100
AcDbEntity
  8
a_
 62
7
100
AcDbLine
 10
11.850751
 20
9.529417
 30
0.0
 11
13.590087
 21
8.065827
 31
0.0
  0
LINE
  5
229
100
AcDbEntity
  8
a_
 62
7
100
AcDbLine
 10
13.590087
 20
8.065827
 30
0.0
 11
15.332910
 21
6.732234
 31
0.0
  0
LINE
  5
22a
100
AcDbEntity
  8
a_
 62
7
100
AcDbLine
 10
15.332910
 20
6.732234
 30
0.0
 11
17.105791
 21
5.526391
 31
0.0
  0
LINE
  5
22b
100
AcDbEntity
  8
a_
 62
7
100
AcDbLine
 10
17.105791
 20
5.526391
 30
0.0
 11
18.935300
 21
4.446051
 31
0.0
  0
LINE
  5
22c
100
AcDbEntity
  8
a_
 62
7
100
AcDbLine
 10
18.935300
 20
4.446051
 30
0.0
 11
20.848008
 21
3.488968
 31
0.0
  0
LINE
  5
22d
100
AcDbEntity
  8
a_
 62
7
100
AcDbLine
 10
20.848008
 20
3.488968
 30
0.0
 11
22.870487
 21
2.652896
 31
0.0
  0
LINE
  5
22e
100
AcDbEntity
  8
a_
 62
7
100
AcDbLine
 10
22.870487
 20
2.652896
 30
0.0
 11
25.029306
 21
1.935588
 31
0.0
  0
LINE
  5
22f
100
AcDbEntity
  8
a_
 62
7
100
AcDbLine
 10
25.029306
 20
1.935588
 30
0.0
 11
27.351036
 21
1.334799
 31
0.0
  0
LINE
  5
230
100
AcDbEntity
  8
a_
 62
7
100
AcDbLine
 10
27.351036
 20
1.334799
 30
0.0
 11
29.862248
 21
0.848281
 31
0.0
  0
LINE
  5
231
100
AcDbEntity
  8
a_
 62
7
100
AcDbLine
 10
29.862248
 20
0.848281
 30
0.0
 11
32.589513
 21
0.473789
 31
0.0
  0
LINE
  5
232
100
AcDbEntity
  8
a_
 62
7
100
AcDbLine
 10
32.589513
 20
0.473789
 30
0.0
 11
35.559402
 21
0.209075
 31
0.0
  0
LINE
  5
233
100
AcDbEntity
  8
a_
 62
7
100
AcDbLine
 10
35.559402
 20
0.209075
 30
0.0
 11
38.798485
 21
0.051894
 31
0.0
  0
LINE
  5
234
100
AcDbEntity
  8
a_
 62
7
100
AcDbLine
 10
38.798485
 20
0.051894
 30
0.0
 11
42.333333
 21
0.000000
 31
0.0
  0
LINE
  5
235
100
AcDbEntity
  8
a_
 62
7
100
AcDbLine
 10
42.333333
 20
0.000000
 30
0.0
 11
42.333333
 21
0.000000
 31
0.0
  0
LINE
  5
236
100
AcDbEntity
  8
s_
 62
7
100
AcDbLine
 10
0.000000
 20
-0.000000
 30
0.0
 11
-0.000000
 21
29.934187
 31
0.0
  0
LINE
  5
237
100
AcDbEntity
  8
s_
 62
7
100
AcDbLine
 10
-0.000000
 20
29.934187
 30
0.0
 11
1.091341
 21
29.984803
 31
0.0
  0
LINE
  5
238
100
AcDbEntity
  8
s_
 62
7
100
AcDbLine
 10
1.091341
 20
29.984803
 30
0.0
 11
2.201022
 21
30.133036
 31
0.0
  0
LINE
  5
239
100
AcDbEntity
  8
s_
 62
7
100
AcDbLine
 10
2.201022
 20
30.133036
 30
0.0
 11
3.326251
 21
30.373463
 31
0.0
  0
LINE
  5
23a
100
AcDbEntity
  8
s_
 62
7
100
AcDbLine
 10
3.326251
 20
30.373463
 30
0.0
 11
4.464236
 21
30.700660
 31
0.0
  0
LINE
  5
23b
100
AcDbEntity
  8
s_
 62
7
100
AcDbLine
 10
4.464236
 20
30.700660
 30
0.0
 11
5.612187
 21
31.109205
 31
0.0
  0
LINE
  5
23c
100
AcDbEntity
  8
s_
 62
7
100
AcDbLine
 10
5.612187
 20
31.109205
 30
0.0
 11
6.767311
 21
31.593673
 31
0.0
  0
LINE
  5
23d
100
AcDbEntity
  8
s_
 62
7
100
AcDbLine
 10
6.767311
 20
31.593673
 30
0.0
 11
7.926818
 21
32.148643
 31
0.0
  0
LINE
  5
23e
100
AcDbEntity
  8
s_
 62
7
100
AcDbLine
 10
7.926818
 20
32.148643
 30
0.0
 11
9.087916
 21
32.768691
 31
0.0
  0
LINE
  5
23f
100
AcDbEntity
  8
s_
 62
7
100
AcDbLine
 10
9.087916
 20
32.768691
 30
0.0
 11
10.247814
 21
33.448393
 31
0.0
  0
LINE
  5
240
100
AcDbEntity
  8
s_
 62
7
100
AcDbLine
 10
10.247814
 20
33.448393
 30
0.0
 11
11.403720
 21
34.182327
 31
0.0
  0
LINE
  5
241
100
AcDbEntity
  8
s_
 62
7
100
AcDbLine
 10
11.403720
 20
34.182327
 30
0.0
 11
12.552843
 21
34.965070
 31
0.0
  0
LINE
  5
242
100
AcDbEntity
  8
s_
 62
7
100
AcDbLine
 10
12.552843
 20
34.965070
 30
0.0
 11
13.692392
 21
35.791197
 31
0.0
  0
LINE
  5
243
100
AcDbEntity
  8
s_
 62
7
100
AcDbLine
 10
13.692392
 20
35.791197
 30
0.0
 11
14.819574
 21
36.655287
 31
0.0
  0
LINE
  5
244
100
AcDbEntity
  8
s_
 62
7
100
AcDbLine
 10
14.819574
 20
36.655287
 30
0.0
 11
15.931599
 21
37.551916
 31
0.0
  0
LINE
  5
245
100
AcDbEntity
  8
s_
 62
7
100
AcDbLine
 10
15.931599
 20
37.551916
 30
0.0
 11
17.025676
 21
38.475660
 31
0.0
  0
LINE
  5
246
100
AcDbEntity
  8
s_
 62
7
100
AcDbLine
 10
17.025676
 20
38.475660
 30
0.0
 11
18.099012
 21
39.421098
 31
0.0
  0
LINE
  5
247
100
AcDbEntity
  8
s_
 62
7
100
AcDbLine
 10
18.099012
 20
39.421098
 30
0.0
 11
19.148817
 21
40.382804
 31
0.0
  0
LINE
  5
248
100
AcDbEntity
  8
s_
 62
7
100
AcDbLine
 10
19.148817
 20
40.382804
 30
0.0
 11
20.172299
 21
41.355357
 31
0.0
  0
LINE
  5
249
100
AcDbEntity
  8
s_
 62
7
100
AcDbLine
 10
20.172299
 20
41.355357
 30
0.0
 11
21.166667
 21
42.333333
 31
0.0
  0
LINE
  5
24a
100
AcDbEntity
  8
s_
 62
7
100
AcDbLine
 10
21.166667
 20
42.333333
 30
0.0
 11
42.333333
 21
42.333333
 31
0.0
  0
LINE
  5
24b
100
AcDbEntity
  8
s_
 62
7
100
AcDbLine
 10
42.333333
 20
42.333333
 30
0.0
 11
42.333333
 21
21.166667
 31
0.0
  0
LINE
  5
24c
100
AcDbEntity
  8
s_
 62
7
100
AcDbLine
 10
42.333333
 20
21.166667
 30
0.0
 11
40.056934
 21
18.875927
 31
0.0
  0
LINE
  5
24d
100
AcDbEntity
  8
s_
 62
7
100
AcDbLine
 10
40.056934
 20
18.875927
 30
0.0
 11
37.936471
 21
16.728662
 31
0.0
  0
LINE
  5
24e
100
AcDbEntity
  8
s_
 62
7
100
AcDbLine
 10
37.936471
 20
16.728662
 30
0.0
 11
35.945376
 21
14.722625
 31
0.0
  0
LINE
  5
24f
100
AcDbEntity
  8
s_
 62
7
100
AcDbLine
 10
35.945376
 20
14.722625
 30
0.0
 11
34.057076
 21
12.855569
 31
0.0
  0
LINE
  5
250
100
AcDbEntity
  8
s_
 62
7
100
AcDbLine
 10
34.057076
 20
12.855569
 30
0.0
 11
32.245002
 21
11.125248
 31
0.0
  0
LINE
  5
251
100
AcDbEntity
  8
s_
 62
7
100
AcDbLine
 10
32.245002
 20
11.125248
 30
0.0
 11
30.482582
 21
9.529417
 31
0.0
  0
LINE
  5
252
100
AcDbEntity
  8
s_
 62
7
100
AcDbLine
 10
30.482582
 20
9.529417
 30
0.0
 11
28.743246
 21
8.065827
 31
0.0
  0
LINE
  5
253
100
AcDbEntity
  8
s_
 62
7
100
AcDbLine
 10
28.743246
 20
8.065827
 30
0.0
 11
27.000423
 21
6.732234
 31
0.0
  0
LINE
  5
254
100
AcDbEntity
  8
s_
 62
7
100
AcDbLine
 10
27.000423
 20
6.732234
 30
0.0
 11
25.227542
 21
5.526391
 31
0.0
  0
LINE
  5
255
100
AcDbEntity
  8
s_
 62
7
100
AcDbLine
 10
25.227542
 20
5.526391
 30
0.0
 11
23.398033
 21
4.446051
 31
0.0
  0
LINE
  5
256
100
AcDbEntity
  8
s_
 62
7
100
AcDbLine
 10
23.398033
 20
4.446051
 30
0.0
 11
21.485325
 21
3.488968
 31
0.0
  0
LINE
  5
257
100
AcDbEntity
  8
s_
 62
7
100
AcDbLine
 10
21.485325
 20
3.488968
 30
0.0
 11
19.462847
 21
2.652896
 31
0.0
  0
LINE
  5
258
100
AcDbEntity
  8
s_
 62
7
100
AcDbLine
 10
19.462847
 20
2.652896
 30
0.0
 11
17.304028
 21
1.935588
 31
0.0
  0
LINE
  5
259
100
AcDbEntity
  8
s_
 62
7
100
AcDbLine
 10
17.304028
 20
1.935588
 30
0.0
 11
14.982297
 21
1.334799
 31
0.0
  0
LINE
  5
25a
100
AcDbEntity
  8
s_
 62
7
100
AcDbLine
 10
14.982297
 20
1.334799
 30
0.0
 11
12.471085
 21
0.848281
 31
0.0
  0
LINE
  5
25b
100
AcDbEntity
  8
s_
 62
7
100
AcDbLine
 10
12.471085
 20
0.848281
 30
0.0
 11
9.743820
 21
0.473789
 31
0.0
  0
LINE
  5
25c
100
AcDbEntity
  8
s_
 62
7
100
AcDbLine
 10
9.743820
 20
0.473789
 30
0.0
 11
6.773931
 21
0.209075
 31
0.0
  0
LINE
  5
25d
100
AcDbEntity
  8
s_
 62
7
100
AcDbLine
 10
6.773931
 20
0.209075
 30
0.0
 11
3.534848
 21
0.051894
 31
0.0
  0
LINE
  5
25e
100
AcDbEntity
  8
s_
 62
7
100
AcDbLine
 10
3.534848
 20
0.051894
 30
0.0
 11
0.000000
 21
-0.000000
 31
0.0
  0
LINE
  5
25f
100
AcDbEntity
  8
s_
 62
7
100
AcDbLine
 10
0.000000
 20
-0.000000
 30
0.0
 11
0.000000
 21
-0.000000
 31
0.0
  0
LINE
  5
260
100
AcDbEntity
  8
Q
 62
7
100
AcDbLine
 10
0.000000
 20
0.000000
 30
0.0
 11
29.934187
 21
0.000000
 31
0.0
  0
LINE
  5
261
100
AcDbEntity
  8
Q
 62
7
100
AcDbLine
 10
29.934187
 20
0.000000
 30
0.0
 11
29.984803
 21
1.091341
 31
0.0
  0
LINE
  5
262
100
AcDbEntity
  8
Q
 62
7
100
AcDbLine
 10
29.984803
 20
1.091341
 30
0.0
 11
30.133036
 21
2.201022
 31
0.0
  0
LINE
  5
263
100
AcDbEntity
  8
Q
 62
7
100
AcDbLine
 10
30.133036
 20
2.201022
 30
0.0
 11
30.373463
 21
3.326251
 31
0.0
  0
LINE
  5
264
100
AcDbEntity
  8
Q
 62
7
100
AcDbLine
 10
30.373463
 20
3.326251
 30
0.0
 11
30.700660
 21
4.464236
 31
0.0
  0
LINE
  5
265
100
AcDbEntity
  8
Q
 62
7
100
AcDbLine
 10
30.700660
 20
4.464236
 30
0.0
 11
31.109205
 21
5.612187
 31
0.0
  0
LINE
  5
266
100
AcDbEntity
  8
Q
 62
7
100
AcDbLine
 10
31.109205
 20
5.612187
 30
0.0
 11
31.593673
 21
6.767311
 31
0.0
  0
LINE
  5
267
100
AcDbEntity
  8
Q
 62
7
100
AcDbLine
 10
31.593673
 20
6.767311
 30
0.0
 11
32.148643
 21
7.926818
 31
0.0
  0
LINE
  5
268
100
AcDbEntity
  8
Q
 62
7
100
AcDbLine
 10
32.148643
 20
7.926818
 30
0.0
 11
32.768691
 21
9.087916
 31
0.0
  0
LINE
  5
269
100
AcDbEntity
  8
Q
 62
7
100
AcDbLine
 10
32.768691
 20
9.087916
 30
0.0
 11
33.448393
 21
10.247814
 31
0.0
  0
LINE
  5
26a
100
AcDbEntity
  8
Q
 62
7
100
AcDbLine
 10
33.448393
 20
10.247814
 30
0.0
 11
34.182327
 21
11.403720
 31
0.0
  0
LINE
  5
26b
100
AcDbEntity
  8
Q
 62
7
100
AcDbLine
 10
34.182327
 20
11.403720
 30
0.0
 11
34.965070
 21
12.552843
 31
0.0
  0
LINE
  5
26c
100
AcDbEntity
  8
Q
 62
7
100
AcDbLine
 10
34.965070
 20
12.552843
 30
0.0
 11
35.791197
 21
13.692392
 31
0.0
  0
LINE
  5
26d
100
AcDbEntity
  8
Q
 62
7
100
AcDbLine
 10
35.791197
 20
13.692392
 30
0.0
 11
36.655287
 21
14.819574
 31
0.0
  0
LINE
  5
26e
100
AcDbEntity
  8
Q
 62
7
100
AcDbLine
 10
36.655287
 20
14.819574
 30
0.0
 11
37.551916
 21
15.931599
 31
0.0
  0
LINE
  5
26f
100
AcDbEntity
  8
Q
 62
7
100
AcDbLine
 10
37.551916
 20
15.931599
 30
0.0
 11
38.475660
 21
17.025676
 31
0.0
  0
LINE
  5
270
100
AcDbEntity
  8
Q
 62
7
100
AcDbLine
 10
38.475660
 20
17.025676
 30
0.0
 11
39.421098
 21
18.099012
 31
0.0
  0
LINE
  5
271
100
AcDbEntity
  8
Q
 62
7
100
AcDbLine
 10
39.421098
 20
18.099012
 30
0.0
 11
40.382804
 21
19.148817
 31
0.0
  0
LINE
  5
272
100
AcDbEntity
  8
Q
 62
7
100
AcDbLine
 10
40.382804
 20
19.148817
 30
0.0
 11
41.355357
 21
20.172299
 31
0.0
  0
LINE
  5
273
100
AcDbEntity
  8
Q
 62
7
100
AcDbLine
 10
41.355357
 20
20.172299
 30
0.0
 11
42.333333
 21
21.166667
 31
0.0
  0
LINE
  5
274
100
AcDbEntity
  8
Q
 62
7
100
AcDbLine
 10
42.333333
 20
21.166667
 30
0.0
 11
42.333333
 21
42.333333
 31
0.0
  0
LINE
  5
275
100
AcDbEntity
  8
Q
 62
7
100
AcDbLine
 10
42.333333
 20
42.333333
 30
0.0
 11
21.166667
 21
42.333333
 31
0.0
  0
LINE
  5
276
100
AcDbEntity
  8
Q
 62
7
100
AcDbLine
 10
21.166667
 20
42.333333
 30
0.0
 11
18.875927
 21
40.056934
 31
0.0
  0
LINE
  5
277
100
AcDbEntity
  8
Q
 62
7
100
AcDbLine
 10
18.875927
 20
40.056934
 30
0.0
 11
16.728662
 21
37.936471
 31
0.0
  0
LINE
  5
278
100
AcDbEntity
  8
Q
 62
7
100
AcDbLine
 10
16.728662
 20
37.936471
 30
0.0
 11
14.722625
 21
35.945376
 31
0.0
  0
LINE
  5
279
100
AcDbEntity
  8
Q
 62
7
100
AcDbLine
 10
14.722625
 20
35.945376
 30
0.0
 11
12.855569
 21
34.057076
 31
0.0
  0
LINE
  5
27a
100
AcDbEntity
  8
Q
 62
7
100
AcDbLine
 10
12.855569
 20
34.057076
 30
0.0
 11
11.125248
 21
32.245002
 31
0.0
  0
LINE
  5
27b
100
AcDbEntity
  8
Q
 62
7
100
AcDbLine
 10
11.125248
 20
32.245002
 30
0.0
 11
9.529417
 21
30.482582
 31
0.0
  0
LINE
  5
27c
100
AcDbEntity
  8
Q
 62
7
100
AcDbLine
 10
9.529417
 20
30.482582
 30
0.0
 11
8.065827
 21
28.743246
 31
0.0
  0
LINE
  5
27d
100
AcDbEntity
  8
Q
 62
7
100
AcDbLine
 10
8.065827
 20
28.743246
 30
0.0
 11
6.732234
 21
27.000423
 31
0.0
  0
LINE
  5
27e
100
AcDbEntity
  8
Q
 62
7
100
AcDbLine
 10
6.732234
 20
27.000423
 30
0.0
 11
5.526391
 21
25.227542
 31
0.0
  0
LINE
  5
27f
100
AcDbEntity
  8
Q
 62
7
100
AcDbLine
 10
5.526391
 20
25.227542
 30
0.0
 11
4.446051
 21
23.398033
 31
0.0
  0
LINE
  5
280
100
AcDbEntity
  8
Q
 62
7
100
AcDbLine
 10
4.446051
 20
23.398033
 30
0.0
 11
3.488968
 21
21.485325
 31
0.0
  0
LINE
  5
281
100
AcDbEntity
  8
Q
 62
7
100
AcDbLine
 10
3.488968
 20
21.485325
 30
0.0
 11
2.652896
 21
19.462847
 31
0.0
  0
LINE
  5
282
100
AcDbEntity
  8
Q
 62
7
100
AcDbLine
 10
2.652896
 20
19.462847
 30
0.0
 11
1.935588
 21
17.304028
 31
0.0
  0
LINE
  5
283
100
AcDbEntity
  8
Q
 62
7
100
AcDbLine
 10
1.935588
 20
17.304028
 30
0.0
 11
1.334799
 21
14.982297
 31
0.0
  0
LINE
  5
284
100
AcDbEntity
  8
Q
 62
7
100
AcDbLine
 10
1.334799
 20
14.982297
 30
0.0
 11
0.848281
 21
12.471085
 31
0.0
  0
LINE
  5
285
100
AcDbEntity
  8
Q
 62
7
100
AcDbLine
 10
0.848281
 20
12.471085
 30
0.0
 11
0.473789
 21
9.743820
 31
0.0
  0
LINE
  5
286
100
AcDbEntity
  8
Q
 62
7
100
AcDbLine
 10
0.473789
 20
9.743820
 30
0.0
 11
0.209075
 21
6.773931
 31
0.0
  0
LINE
  5
287
100
AcDbEntity
  8
Q
 62
7
100
AcDbLine
 10
0.209075
 20
6.773931
 30
0.0
 11
0.051894
 21
3.534848
 31
0.0
  0
LINE
  5
288
100
AcDbEntity
  8
Q
 62
7
100
AcDbLine
 10
0.051894
 20
3.534848
 30
0.0
 11
0.000000
 21
0.000000
 31
0.0
  0
LINE
  5
289
100
AcDbEntity
  8
Q
 62
7
100
AcDbLine
 10
0.000000
 20
0.000000
 30
0.0
 11
0.000000
 21
0.000000
 31
0.0
  0
LINE
  5
28a
100
AcDbEntity
  8
W
 62
7
100
AcDbLine
 10
42.333333
 20
0.000000
 30
0.0
 11
12.399146
 21
0.000000
 31
0.0
  0
LINE
  5
28b
100
AcDbEntity
  8
W
 62
7
100
AcDbLine
 10
12.399146
 20
0.000000
 30
0.0
 11
12.348530
 21
1.091341
 31
0.0
  0
LINE
  5
28c
100
AcDbEntity
  8
W
 62
7
100
AcDbLine
 10
12.348530
 20
1.091341
 30
0.0
 11
12.200297
 21
2.201022
 31
0.0
  0
LINE
  5
28d
100
AcDbEntity
  8
W
 62
7
100
AcDbLine
 10
12.200297
 20
2.201022
 30
0.0
 11
11.959870
 21
3.326251
 31
0.0
  0
LINE
  5
28e
100
AcDbEntity
  8
W
 62
7
100
AcDbLine
 10
11.959870
 20
3.326251
 30
0.0
 11
11.632673
 21
4.464236
 31
0.0
  0
LINE
  5
28f
100
AcDbEntity
  8
W
 62
7
100
AcDbLine
 10
11.632673
 20
4.464236
 30
0.0
 11
11.224129
 21
5.612187
 31
0.0
  0
LINE
  5
290
100
AcDbEntity
  8
W
 62
7
100
AcDbLine
 10
11.224129
 20
5.612187
 30
0.0
 11
10.739660
 21
6.767311
 31
0.0
  0
LINE
  5
291
100
AcDbEntity
  8
W
 62
7
100
AcDbLine
 10
10.739660
 20
6.767311
 30
0.0
 11
10.184690
 21
7.926818
 31
0.0
  0
LINE
  5
292
100
AcDbEntity
  8
W
 62
7
100
AcDbLine
 10
10.184690
 20
7.926818
 30
0.0
 11
9.564642
 21
9.087916
 31
0.0
  0
LINE
  5
293
100
AcDbEntity
  8
W
 62
7
100
AcDbLine
 10
9.564642
 20
9.087916
 30
0.0
 11
8.884940
 21
10.247814
 31
0.0
  0
LINE
  5
294
100
AcDbEntity
  8
W
 62
7
100
AcDbLine
 10
8.884940
 20
10.247814
 30
0.0
 11
8.151006
 21
11.403720
 31
0.0
  0
LINE
  5
295
100
AcDbEntity
  8
W
 62
7
100
AcDbLine
 10
8.151006
 20
11.403720
 30
0.0
 11
7.368264
 21
12.552843
 31
0.0
  0
LINE
  5
296
100
AcDbEntity
  8
W
 62
7
100
AcDbLine
 10
7.368264
 20
12.552843
 30
0.0
 11
6.542136
 21
13.692392
 31
0.0
  0
LINE
  5
297
100
AcDbEntity
  8
W
 62
7
100
AcDbLine
 10
6.542136
 20
13.692392
 30
0.0
 11
5.678046
 21
14.819574
 31
0.0
  0
LINE
  5
298
100
AcDbEntity
  8
W
 62
7
100
AcDbLine
 10
5.678046
 20
14.819574
 30
0.0
 11
4.781417
 21
15.931599
 31
0.0
  0
LINE
  5
299
100
AcDbEntity
  8
W
 62
7
100
AcDbLine
 10
4.781417
 20
15.931599
 30
0.0
 11
3.857673
 21
17.025676
 31
0.0
  0
LINE
  5
29a
100
AcDbEntity
  8
W
 62
7
100
AcDbLine
 10
3.857673
 20
17.025676
 30
0.0
 11
2.912236
 21
18.099012
 31
0.0
  0
LINE
  5
29b
100
AcDbEntity
  8
W
 62
7
100
AcDbLine
 10
2.912236
 20
18.099012
 30
0.0
 11
1.950529
 21
19.148817
 31
0.0
  0
LINE
  5
29c
100
AcDbEntity
  8
W
 62
7
100
AcDbLine
 10
1.950529
 20
19.148817
 30
0.0
 11
0.977976
 21
20.172299
 31
0.0
  0
LINE
  5
29d
100
AcDbEntity
  8
W
 62
7
100
AcDbLine
 10
0.977976
 20
20.172299
 30
0.0
 11
0.000000
 21
21.166667
 31
0.0
  0
LINE
  5
29e
100
AcDbEntity
  8
W
 62
7
100
AcDbLine
 10
0.000000
 20
21.166667
 30
0.0
 11
0.000000
 21
42.333333
 31
0.0
  0
LINE
  5
29f
100
AcDbEntity
  8
W
 62
7
100
AcDbLine
 10
0.000000
 20
42.333333
 30
0.0
 11
21.166667
 21
42.333333
 31
0.0
  0
LINE
  5
2a0
100
AcDbEntity
  8
W
 62
7
100
AcDbLine
 10
21.166667
 20
42.333333
 30
0.0
 11
23.457406
 21
40.056934
 31
0.0
  0
LINE
  5
2a1
100
AcDbEntity
  8
W
 62
7
100
AcDbLine
 10
23.457406
 20
40.056934
 30
0.0
 11
25.604671
 21
37.936471
 31
0.0
  0
LINE
  5
2a2
100
AcDbEntity
  8
W
 62
7
100
AcDbLine
 10
25.604671
 20
37.936471
 30
0.0
 11
27.610709
 21
35.945376
 31
0.0
  0
LINE
  5
2a3
100
AcDbEntity
  8
W
 62
7
100
AcDbLine
 10
27.610709
 20
35.945376
 30
0.0
 11
29.477764
 21
34.057076
 31
0.0
  0
LINE
  5
2a4
100
AcDbEntity
  8
W
 62
7
100
AcDbLine
 10
29.477764
 20
34.057076
 30
0.0
 11
31.208085
 21
32.245002
 31
0.0
  0
LINE
  5
2a5
100
AcDbEntity
  8
W
 62
7
100
AcDbLine
 10
31.208085
 20
32.245002
 30
0.0
 11
32.803917
 21
30.482582
 31
0.0
  0
LINE
  5
2a6
100
AcDbEntity
  8
W
 62
7
100
AcDbLine
 10
32.803917
 20
30.482582
 30
0.0
 11
34.267506
 21
28.743246
 31
0.0
  0
LINE
  5
2a7
100
AcDbEntity
  8
W
 62
7
100
AcDbLine
 10
34.267506
 20
28.743246
 30
0.0
 11
35.601099
 21
27.000423
 31
0.0
  0
LINE
  5
2a8
100
AcDbEntity
  8
W
 62
7
100
AcDbLine
 10
35.601099
 20
27.000423
 30
0.0
 11
36.806943
 21
25.227542
 31
0.0
  0
LINE
  5
2a9
100
AcDbEntity
  8
W
 62
7
100
AcDbLine
 10
36.806943
 20
25.227542
 30
0.0
 11
37.887282
 21
23.398033
 31
0.0
  0
LINE
  5
2aa
100
AcDbEntity
  8
W
 62
7
100
AcDbLine
 10
37.887282
 20
23.398033
 30
0.0
 11
38.844365
 21
21.485325
 31
0.0
  0
LINE
  5
2ab
100
AcDbEntity
  8
W
 62
7
100
AcDbLine
 10
38.844365
 20
21.485325
 30
0.0
 11
39.680437
 21
19.462847
 31
0.0
  0
LINE
  5
2ac
100
AcDbEntity
  8
W
 62
7
100
AcDbLine
 10
39.680437
 20
19.462847
 30
0.0
 11
40.397745
 21
17.304028
 31
0.0
  0
LINE
  5
2ad
100
AcDbEntity
  8
W
 62
7
100
AcDbLine
 10
40.397745
 20
17.304028
 30
0.0
 11
40.998535
 21
14.982297
 31
0.0
  0
LINE
  5
2ae
100
AcDbEntity
  8
W
 62
7
100
AcDbLine
 10
40.998535
 20
14.982297
 30
0.0
 11
41.485052
 21
12.471085
 31
0.0
  0
LINE
  5
2af
100
AcDbEntity
  8
W
 62
7
100
AcDbLine
 10
41.485052
 20
12.471085
 30
0.0
 11
41.859545
 21
9.743820
 31
0.0
  0
LINE
  5
2b0
100
AcDbEntity
  8
W
 62
7
100
AcDbLine
 10
41.859545
 20
9.743820
 30
0.0
 11
42.124258
 21
6.773931
 31
0.0
  0
LINE
  5
2b1
100
AcDbEntity
  8
W
 62
7
100
AcDbLine
 10
42.124258
 20
6.773931
 30
0.0
 11
42.281439
 21
3.534848
 31
0.0
  0
LINE
  5
2b2
100
AcDbEntity
  8
W
 62
7
100
AcDbLine
 10
42.281439
 20
3.534848
 30
0.0
 11
42.333333
 21
0.000000
 31
0.0
  0
LINE
  5
2b3
100
AcDbEntity
  8
W
 62
7
100
AcDbLine
 10
42.333333
 20
0.000000
 30
0.0
 11
42.333333
 21
0.000000
 31
0.0
  0
LINE
  5
2b4
100
AcDbEntity
  8
A
 62
7
100
AcDbLine
 10
0.000000
 20
42.333333
 30
0.0
 11
29.934187
 21
42.333333
 31
0.0
  0
LINE
  5
2b5
100
AcDbEntity
  8
A
 62
7
100
AcDbLine
 10
29.934187
 20
42.333333
 30
0.0
 11
29.984803
 21
41.241992
 31
0.0
  0
LINE
  5
2b6
100
AcDbEntity
  8
A
 62
7
100
AcDbLine
 10
29.984803
 20
41.241992
 30
0.0
 11
30.133036
 21
40.132312
 31
0.0
  0
LINE
  5
2b7
100
AcDbEntity
  8
A
 62
7
100
AcDbLine
 10
30.133036
 20
40.132312
 30
0.0
 11
30.373463
 21
39.007083
 31
0.0
  0
LINE
  5
2b8
100
AcDbEntity
  8
A
 62
7
100
AcDbLine
 10
30.373463
 20
39.007083
 30
0.0
 11
30.700660
 21
37.869097
 31
0.0
  0
LINE
  5
2b9
100
AcDbEntity
  8
A
 62
7
100
AcDbLine
 10
30.700660
 20
37.869097
 30
0.0
 11
31.109205
 21
36.721147
 31
0.0
  0
LINE
  5
2ba
100
AcDbEntity
  8
A
 62
7
100
AcDbLine
 10
31.109205
 20
36.721147
 30
0.0
 11
31.593673
 21
35.566022
 31
0.0
  0
LINE
  5
2bb
100
AcDbEntity
  8
A
 62
7
100
AcDbLine
 10
31.593673
 20
35.566022
 30
0.0
 11
32.148643
 21
34.406515
 31
0.0
  0
LINE
  5
2bc
100
AcDbEntity
  8
A
 62
7
100
AcDbLine
 10
32.148643
 20
34.406515
 30
0.0
 11
32.768691
 21
33.245417
 31
0.0
  0
LINE
  5
2bd
100
AcDbEntity
  8
A
 62
7
100
AcDbLine
 10
32.768691
 20
33.245417
 30
0.0
 11
33.448393
 21
32.085519
 31
0.0
  0
LINE
  5
2be
100
AcDbEntity
  8
A
 62
7
100
AcDbLine
 10
33.448393
 20
32.085519
 30
0.0
 11
34.182327
 21
30.929613
 31
0.0
  0
LINE
  5
2bf
100
AcDbEntity
  8
A
 62
7
100
AcDbLine
 10
34.182327
 20
30.929613
 30
0.0
 11
34.965070
 21
29.780490
 31
0.0
  0
LINE
  5
2c0
100
AcDbEntity
  8
A
 62
7
100
AcDbLine
 10
34.965070
 20
29.780490
 30
0.0
 11
35.791197
 21
28.640942
 31
0.0
  0
LINE
  5
2c1
100
AcDbEntity
  8
A
 62
7
100
AcDbLine
 10
35.791197
 20
28.640942
 30
0.0
 11
36.655287
 21
27.513759
 31
0.0
  0
LINE
  5
2c2
100
AcDbEntity
  8
A
 62
7
100
AcDbLine
 10
36.655287
 20
27.513759
 30
0.0
 11
37.551916
 21
26.401734
 31
0.0
  0
LINE
  5
2c3
100
AcDbEntity
  8
A
 62
7
100
AcDbLine
 10
37.551916
 20
26.401734
 30
0.0
 11
38.475660
 21
25.307657
 31
0.0
  0
LINE
  5
2c4
100
AcDbEntity
  8
A
 62
7
100
AcDbLine
 10
38.475660
 20
25.307657
 30
0.0
 11
39.421098
 21
24.234321
 31
0.0
  0
LINE
  5
2c5
100
AcDbEntity
  8
A
 62
7
100
AcDbLine
 10
39.421098
 20
24.234321
 30
0.0
 11
40.382804
 21
23.184516
 31
0.0
  0
LINE
  5
2c6
100
AcDbEntity
  8
A
 62
7
100
AcDbLine
 10
40.382804
 20
23.184516
 30
0.0
 11
41.355357
 21
22.161034
 31
0.0
  0
LINE
  5
2c7
100
AcDbEntity
  8
A
 62
7
100
AcDbLine
 10
41.355357
 20
22.161034
 30
0.0
 11
42.333333
 21
21.166667
 31
0.0
  0
LINE
  5
2c8
100
AcDbEntity
  8
A
 62
7
100
AcDbLine
 10
42.333333
 20
21.166667
 30
0.0
 11
42.333333
 21
-0.000000
 31
0.0
  0
LINE
  5
2c9
100
AcDbEntity
  8
A
 62
7
100
AcDbLine
 10
42.333333
 20
-0.000000
 30
0.0
 11
21.166667
 21
-0.000000
 31
0.0
  0
LINE
  5
2ca
100
AcDbEntity
  8
A
 62
7
100
AcDbLine
 10
21.166667
 20
-0.000000
 30
0.0
 11
18.875927
 21
2.276400
 31
0.0
  0
LINE
  5
2cb
100
AcDbEntity
  8
A
 62
7
100
AcDbLine
 10
18.875927
 20
2.276400
 30
0.0
 11
16.728662
 21
4.396862
 31
0.0
  0
LINE
  5
2cc
100
AcDbEntity
  8
A
 62
7
100
AcDbLine
 10
16.728662
 20
4.396862
 30
0.0
 11
14.722625
 21
6.387957
 31
0.0
  0
LINE
  5
2cd
100
AcDbEntity
  8
A
 62
7
100
AcDbLine
 10
14.722625
 20
6.387957
 30
0.0
 11
12.855569
 21
8.276257
 31
0.0
  0
LINE
  5
2ce
100
AcDbEntity
  8
A
 62
7
100
AcDbLine
 10
12.855569
 20
8.276257
 30
0.0
 11
11.125248
 21
10.088331
 31
0.0
  0
LINE
  5
2cf
100
AcDbEntity
  8
A
 62
7
100
AcDbLine
 10
11.125248
 20
10.088331
 30
0.0
 11
9.529417
 21
11.850751
 31
0.0
  0
LINE
  5
2d0
100
AcDbEntity
  8
A
 62
7
100
AcDbLine
 10
9.529417
 20
11.850751
 30
0.0
 11
8.065827
 21
13.590087
 31
0.0
  0
LINE
  5
2d1
100
AcDbEntity
  8
A
 62
7
100
AcDbLine
 10
8.065827
 20
13.590087
 30
0.0
 11
6.732234
 21
15.332910
 31
0.0
  0
LINE
  5
2d2
100
AcDbEntity
  8
A
 62
7
100
AcDbLine
 10
6.732234
 20
15.332910
 30
0.0
 11
5.526391
 21
17.105791
 31
0.0
  0
LINE
  5
2d3
100
AcDbEntity
  8
A
 62
7
100
AcDbLine
 10
5.526391
 20
17.105791
 30
0.0
 11
4.446051
 21
18.935300
 31
0.0
  0
LINE
  5
2d4
100
AcDbEntity
  8
A
 62
7
100
AcDbLine
 10
4.446051
 20
18.935300
 30
0.0
 11
3.488968
 21
20.848008
 31
0.0
  0
LINE
  5
2d5
100
AcDbEntity
  8
A
 62
7
100
AcDbLine
 10
3.488968
 20
20.848008
 30
0.0
 11
2.652896
 21
22.870487
 31
0.0
  0
LINE
  5
2d6
100
AcDbEntity
  8
A
 62
7
100
AcDbLine
 10
2.652896
 20
22.870487
 30
0.0
 11
1.935588
 21
25.029306
 31
0.0
  0
LINE
  5
2d7
100
AcDbEntity
  8
A
 62
7
100
AcDbLine
 10
1.935588
 20
25.029306
 30
0.0
 11
1.334799
 21
27.351036
 31
0.0
  0
LINE
  5
2d8
100
AcDbEntity
  8
A
 62
7
100
AcDbLine
 10
1.334799
 20
27.351036
 30
0.0
 11
0.848281
 21
29.862248
 31
0.0
  0
LINE
  5
2d9
100
AcDbEntity
  8
A
 62
7
100
AcDbLine
 10
0.848281
 20
29.862248
 30
0.0
 11
0.473789
 21
32.589513
 31
0.0
  0
LINE
  5
2da
100
AcDbEntity
  8
A
 62
7
100
AcDbLine
 10
0.473789
 20
32.589513
 30
0.0
 11
0.209075
 21
35.559402
 31
0.0
  0
LINE
  5
2db
100
AcDbEntity
  8
A
 62
7
100
AcDbLine
 10
0.209075
 20
35.559402
 30
0.0
 11
0.051894
 21
38.798485
 31
0.0
  0
LINE
  5
2dc
100
AcDbEntity
  8
A
 62
7
100
AcDbLine
 10
0.051894
 20
38.798485
 30
0.0
 11
0.000000
 21
42.333333
 31
0.0
  0
LINE
  5
2dd
100
AcDbEntity
  8
A
 62
7
100
AcDbLine
 10
0.000000
 20
42.333333
 30
0.0
 11
0.000000
 21
42.333333
 31
0.0
  0
LINE
  5
2de
100
AcDbEntity
  8
S
 62
7
100
AcDbLine
 10
42.333333
 20
42.333333
 30
0.0
 11
12.399146
 21
42.333333
 31
0.0
  0
LINE
  5
2df
100
AcDbEntity
  8
S
 62
7
100
AcDbLine
 10
12.399146
 20
42.333333
 30
0.0
 11
12.348530
 21
41.241992
 31
0.0
  0
LINE
  5
2e0
100
AcDbEntity
  8
S
 62
7
100
AcDbLine
 10
12.348530
 20
41.241992
 30
0.0
 11
12.200297
 21
40.132312
 31
0.0
  0
LINE
  5
2e1
100
AcDbEntity
  8
S
 62
7
100
AcDbLine
 10
12.200297
 20
40.132312
 30
0.0
 11
11.959870
 21
39.007083
 31
0.0
  0
LINE
  5
2e2
100
AcDbEntity
  8
S
 62
7
100
AcDbLine
 10
11.959870
 20
39.007083
 30
0.0
 11
11.632673
 21
37.869097
 31
0.0
  0
LINE
  5
2e3
100
AcDbEntity
  8
S
 62
7
100
AcDbLine
 10
11.632673
 20
37.869097
 30
0.0
 11
11.224129
 21
36.721147
 31
0.0
  0
LINE
  5
2e4
100
AcDbEntity
  8
S
 62
7
100
AcDbLine
 10
11.224129
 20
36.721147
 30
0.0
 11
10.739660
 21
35.566022
 31
0.0
  0
LINE
  5
2e5
100
AcDbEntity
  8
S
 62
7
100
AcDbLine
 10
10.739660
 20
35.566022
 30
0.0
 11
10.184690
 21
34.406515
 31
0.0
  0
LINE
  5
2e6
100
AcDbEntity
  8
S
 62
7
100
AcDbLine
 10
10.184690
 20
34.406515
 30
0.0
 11
9.564642
 21
33.245417
 31
0.0
  0
LINE
  5
2e7
100
AcDbEntity
  8
S
 62
7
100
AcDbLine
 10
9.564642
 20
33.245417
 30
0.0
 11
8.884940
 21
32.085519
 31
0.0
  0
LINE
  5
2e8
100
AcDbEntity
  8
S
 62
7
100
AcDbLine
 10
8.884940
 20
32.085519
 30
0.0
 11
8.151006
 21
30.929613
 31
0.0
  0
LINE
  5
2e9
100
AcDbEntity
  8
S
 62
7
100
AcDbLine
 10
8.151006
 20
30.929613
 30
0.0
 11
7.368264
 21
29.780490
 31
0.0
  0
LINE
  5
2ea
100
AcDbEntity
  8
S
 62
7
100
AcDbLine
 10
7.368264
 20
29.780490
 30
0.0
 11
6.542136
 21
28.640942
 31
0.0
  0
LINE
  5
2eb
100
AcDbEntity
  8
S
 62
7
100
AcDbLine
 10
6.542136
 20
28.640942
 30
0.0
 11
5.678046
 21
27.513759
 31
0.0
  0
LINE
  5
2ec
100
AcDbEntity
  8
S
 62
7
100
AcDbLine
 10
5.678046
 20
27.513759
 30
0.0
 11
4.781417
 21
26.401734
 31
0.0
  0
LINE
  5
2ed
100
AcDbEntity
  8
S
 62
7
100
AcDbLine
 10
4.781417
 20
26.401734
 30
0.0
 11
3.857673
 21
25.307657
 31
0.0
  0
LINE
  5
2ee
100
AcDbEntity
  8
S
 62
7
100
AcDbLine
 10
3.857673
 20
25.307657
 30
0.0
 11
2.912236
 21
24.234321
 31
0.0
  0
LINE
  5
2ef
100
AcDbEntity
  8
S
 62
7
100
AcDbLine
 10
2.912236
 20
24.234321
 30
0.0
 11
1.950529
 21
23.184516
 31
0.0
  0
LINE
  5
2f0
100
AcDbEntity
  8
S
 62
7
100
AcDbLine
 10
1.950529
 20
23.184516
 30
0.0
 11
0.977976
 21
22.161034
 31
0.0
  0
LINE
  5
2f1
100
AcDbEntity
  8
S
 62
7
100
AcDbLine
 10
0.977976
 20
22.161034
 30
0.0
 11
0.000000
 21
21.166667
 31
0.0
  0
LINE
  5
2f2
100
AcDbEntity
  8
S
 62
7
100
AcDbLine
 10
0.000000
 20
21.166667
 30
0.0
 11
0.000000
 21
-0.000000
 31
0.0
  0
LINE
  5
2f3
100
AcDbEntity
  8
S
 62
7
100
AcDbLine
 10
0.000000
 20
-0.000000
 30
0.0
 11
21.166667
 21
-0.000000
 31
0.0
  0
LINE
  5
2f4
100
AcDbEntity
  8
S
 62
7
100
AcDbLine
 10
21.166667
 20
-0.000000
 30
0.0
 11
23.457406
 21
2.276400
 31
0.0
  0
LINE
  5
2f5
100
AcDbEntity
  8
S
 62
7
100
AcDbLine
 10
23.457406
 20
2.276400
 30
0.0
 11
25.604671
 21
4.396862
 31
0.0
  0
LINE
  5
2f6
100
AcDbEntity
  8
S
 62
7
100
AcDbLine
 10
25.604671
 20
4.396862
 30
0.0
 11
27.610709
 21
6.387957
 31
0.0
  0
LINE
  5
2f7
100
AcDbEntity
  8
S
 62
7
100
AcDbLine
 10
27.610709
 20
6.387957
 30
0.0
 11
29.477764
 21
8.276257
 31
0.0
  0
LINE
  5
2f8
100
AcDbEntity
  8
S
 62
7
100
AcDbLine
 10
29.477764
 20
8.276257
 30
0.0
 11
31.208085
 21
10.088331
 31
0.0
  0
LINE
  5
2f9
100
AcDbEntity
  8
S
 62
7
100
AcDbLine
 10
31.208085
 20
10.088331
 30
0.0
 11
32.803917
 21
11.850751
 31
0.0
  0
LINE
  5
2fa
100
AcDbEntity
  8
S
 62
7
100
AcDbLine
 10
32.803917
 20
11.850751
 30
0.0
 11
34.267506
 21
13.590087
 31
0.0
  0
LINE
  5
2fb
100
AcDbEntity
  8
S
 62
7
100
AcDbLine
 10
34.267506
 20
13.590087
 30
0.0
 11
35.601099
 21
15.332910
 31
0.0
  0
LINE
  5
2fc
100
AcDbEntity
  8
S
 62
7
100
AcDbLine
 10
35.601099
 20
15.332910
 30
0.0
 11
36.806943
 21
17.105791
 31
0.0
  0
LINE
  5
2fd
100
AcDbEntity
  8
S
 62
7
100
AcDbLine
 10
36.806943
 20
17.105791
 30
0.0
 11
37.887282
 21
18.935300
 31
0.0
  0
LINE
  5
2fe
100
AcDbEntity
  8
S
 62
7
100
AcDbLine
 10
37.887282
 20
18.935300
 30
0.0
 11
38.844365
 21
20.848008
 31
0.0
  0
LINE
  5
2ff
100
AcDbEntity
  8
S
 62
7
100
AcDbLine
 10
38.844365
 20
20.848008
 30
0.0
 11
39.680437
 21
22.870487
 31
0.0
  0
LINE
  5
300
100
AcDbEntity
  8
S
 62
7
100
AcDbLine
 10
39.680437
 20
22.870487
 30
0.0
 11
40.397745
 21
25.029306
 31
0.0
  0
LINE
  5
301
100
AcDbEntity
  8
S
 62
7
100
AcDbLine
 10
40.397745
 20
25.029306
 30
0.0
 11
40.998535
 21
27.351036
 31
0.0
  0
LINE
  5
302
100
AcDbEntity
  8
S
 62
7
100
AcDbLine
 10
40.998535
 20
27.351036
 30
0.0
 11
41.485052
 21
29.862248
 31
0.0
  0
LINE
  5
303
100
AcDbEntity
  8
S
 62
7
100
AcDbLine
 10
41.485052
 20
29.862248
 30
0.0
 11
41.859545
 21
32.589513
 31
0.0
  0
LINE
  5
304
100
AcDbEntity
  8
S
 62
7
100
AcDbLine
 10
41.859545
 20
32.589513
 30
0.0
 11
42.124258
 21
35.559402
 31
0.0
  0
LINE
  5
305
100
AcDbEntity
  8
S
 62
7
100
AcDbLine
 10
42.124258
 20
35.559402
 30
0.0
 11
42.281439
 21
38.798485
 31
0.0
  0
LINE
  5
306
100
AcDbEntity
  8
S
 62
7
100
AcDbLine
 10
42.281439
 20
38.798485
 30
0.0
 11
42.333333
 21
42.333333
 31
0.0
  0
LINE
  5
307
100
AcDbEntity
  8
S
 62
7
100
AcDbLine
 10
42.333333
 20
42.333333
 30
0.0
 11
42.333333
 21
42.333333
 31
0.0
  0
LINE
  5
308
100
AcDbEntity
  8
e_
 62
7
100
AcDbLine
 10
0.000000
 20
0.000000
 30
0.0
 11
0.000000
 21
21.166667
 31
0.0
  0
LINE
  5
309
100
AcDbEntity
  8
e_
 62
7
100
AcDbLine
 10
0.000000
 20
21.166667
 30
0.0
 11
21.166667
 21
0.000000
 31
0.0
  0
LINE
  5
30a
100
AcDbEntity
  8
e_
 62
7
100
AcDbLine
 10
21.166667
 20
0.000000
 30
0.0
 11
0.000000
 21
0.000000
 31
0.0
  0
LINE
  5
30b
100
AcDbEntity
  8
e_
 62
7
100
AcDbLine
 10
42.333333
 20
42.333333
 30
0.0
 11
42.333333
 21
12.399146
 31
0.0
  0
LINE
  5
30c
100
AcDbEntity
  8
e_
 62
7
100
AcDbLine
 10
42.333333
 20
12.399146
 30
0.0
 11
41.242506
 21
12.349044
 31
0.0
  0
LINE
  5
30d
100
AcDbEntity
  8
e_
 62
7
100
AcDbLine
 10
41.242506
 20
12.349044
 30
0.0
 11
40.136426
 21
12.204412
 31
0.0
  0
LINE
  5
30e
100
AcDbEntity
  8
e_
 62
7
100
AcDbLine
 10
40.136426
 20
12.204412
 30
0.0
 11
39.020970
 21
11.973757
 31
0.0
  0
LINE
  5
30f
100
AcDbEntity
  8
e_
 62
7
100
AcDbLine
 10
39.020970
 20
11.973757
 30
0.0
 11
37.902014
 21
11.665590
 31
0.0
  0
LINE
  5
310
100
AcDbEntity
  8
e_
 62
7
100
AcDbLine
 10
37.902014
 20
11.665590
 30
0.0
 11
36.785438
 21
11.288420
 31
0.0
  0
LINE
  5
311
100
AcDbEntity
  8
e_
 62
7
100
AcDbLine
 10
36.785438
 20
11.288420
 30
0.0
 11
35.677117
 21
10.850755
 31
0.0
  0
LINE
  5
312
100
AcDbEntity
  8
e_
 62
7
100
AcDbLine
 10
35.677117
 20
10.850755
 30
0.0
 11
34.582930
 21
10.361105
 31
0.0
  0
LINE
  5
313
100
AcDbEntity
  8
e_
 62
7
100
AcDbLine
 10
34.582930
 20
10.361105
 30
0.0
 11
33.508753
 21
9.827979
 31
0.0
  0
LINE
  5
314
100
AcDbEntity
  8
e_
 62
7
100
AcDbLine
 10
33.508753
 20
9.827979
 30
0.0
 11
32.460464
 21
9.259885
 31
0.0
  0
LINE
  5
315
100
AcDbEntity
  8
e_
 62
7
100
AcDbLine
 10
32.460464
 20
9.259885
 30
0.0
 11
31.443941
 21
8.665334
 31
0.0
  0
LINE
  5
316
100
AcDbEntity
  8
e_
 62
7
100
AcDbLine
 10
31.443941
 20
8.665334
 30
0.0
 11
30.465061
 21
8.052835
 31
0.0
  0
LINE
  5
317
100
AcDbEntity
  8
e_
 62
7
100
AcDbLine
 10
30.465061
 20
8.052835
 30
0.0
 11
29.529701
 21
7.430895
 31
0.0
  0
LINE
  5
318
100
AcDbEntity
  8
e_
 62
7
100
AcDbLine
 10
29.529701
 20
7.430895
 30
0.0
 11
28.643738
 21
6.808025
 31
0.0
  0
LINE
  5
319
100
AcDbEntity
  8
e_
 62
7
100
AcDbLine
 10
28.643738
 20
6.808025
 30
0.0
 11
27.813051
 21
6.192734
 31
0.0
  0
LINE
  5
31a
100
AcDbEntity
  8
e_
 62
7
100
AcDbLine
 10
27.813051
 20
6.192734
 30
0.0
 11
27.043515
 21
5.593531
 31
0.0
  0
LINE
  5
31b
100
AcDbEntity
  8
e_
 62
7
100
AcDbLine
 10
27.043515
 20
5.593531
 30
0.0
 11
26.341010
 21
5.018924
 31
0.0
  0
LINE
  5
31c
100
AcDbEntity
  8
e_
 62
7
100
AcDbLine
 10
26.341010
 20
5.018924
 30
0.0
 11
25.711411
 21
4.477424
 31
0.0
  0
LINE
  5
31d
100
AcDbEntity
  8
e_
 62
7
100
AcDbLine
 10
25.711411
 20
4.477424
 30
0.0
 11
25.160597
 21
3.977539
 31
0.0
  0
LINE
  5
31e
100
AcDbEntity
  8
e_
 62
7
100
AcDbLine
 10
25.160597
 20
3.977539
 30
0.0
 11
24.694444
 21
3.527778
 31
0.0
  0
LINE
  5
31f
100
AcDbEntity
  8
e_
 62
7
100
AcDbLine
 10
24.694444
 20
3.527778
 30
0.0
 11
3.527778
 21
24.694444
 31
0.0
  0
LINE
  5
320
100
AcDbEntity
  8
e_
 62
7
100
AcDbLine
 10
3.527778
 20
24.694444
 30
0.0
 11
5.275962
 21
26.456969
 31
0.0
  0
LINE
  5
321
100
AcDbEntity
  8
e_
 62
7
100
AcDbLine
 10
5.275962
 20
26.456969
 30
0.0
 11
6.923757
 21
28.131566
 31
0.0
  0
LINE
  5
322
100
AcDbEntity
  8
e_
 62
7
100
AcDbLine
 10
6.923757
 20
28.131566
 30
0.0
 11
8.494646
 21
29.717397
 31
0.0
  0
LINE
  5
323
100
AcDbEntity
  8
e_
 62
7
100
AcDbLine
 10
8.494646
 20
29.717397
 30
0.0
 11
10.012115
 21
31.213622
 31
0.0
  0
LINE
  5
324
100
AcDbEntity
  8
e_
 62
7
100
AcDbLine
 10
10.012115
 20
31.213622
 30
0.0
 11
11.499648
 21
32.619402
 31
0.0
  0
LINE
  5
325
100
AcDbEntity
  8
e_
 62
7
100
AcDbLine
 10
11.499648
 20
32.619402
 30
0.0
 11
12.980730
 21
33.933896
 31
0.0
  0
LINE
  5
326
100
AcDbEntity
  8
e_
 62
7
100
AcDbLine
 10
12.980730
 20
33.933896
 30
0.0
 11
14.478847
 21
35.156265
 31
0.0
  0
LINE
  5
327
100
AcDbEntity
  8
e_
 62
7
100
AcDbLine
 10
14.478847
 20
35.156265
 30
0.0
 11
16.017481
 21
36.285670
 31
0.0
  0
LINE
  5
328
100
AcDbEntity
  8
e_
 62
7
100
AcDbLine
 10
16.017481
 20
36.285670
 30
0.0
 11
17.620119
 21
37.321271
 31
0.0
  0
LINE
  5
329
100
AcDbEntity
  8
e_
 62
7
100
AcDbLine
 10
17.620119
 20
37.321271
 30
0.0
 11
19.310245
 21
38.262228
 31
0.0
  0
LINE
  5
32a
100
AcDbEntity
  8
e_
 62
7
100
AcDbLine
 10
19.310245
 20
38.262228
 30
0.0
 11
21.111345
 21
39.107701
 31
0.0
  0
LINE
  5
32b
100
AcDbEntity
  8
e_
 62
7
100
AcDbLine
 10
21.111345
 20
39.107701
 30
0.0
 11
23.046901
 21
39.856852
 31
0.0
  0
LINE
  5
32c
100
AcDbEntity
  8
e_
 62
7
100
AcDbLine
 10
23.046901
 20
39.856852
 30
0.0
 11
25.140401
 21
40.508840
 31
0.0
  0
LINE
  5
32d
100
AcDbEntity
  8
e_
 62
7
100
AcDbLine
 10
25.140401
 20
40.508840
 30
0.0
 11
27.415327
 21
41.062826
 31
0.0
  0
LINE
  5
32e
100
AcDbEntity
  8
e_
 62
7
100
AcDbLine
 10
27.415327
 20
41.062826
 30
0.0
 11
29.895165
 21
41.517969
 31
0.0
  0
LINE
  5
32f
100
AcDbEntity
  8
e_
 62
7
100
AcDbLine
 10
29.895165
 20
41.517969
 30
0.0
 11
32.603400
 21
41.873432
 31
0.0
  0
LINE
  5
330
100
AcDbEntity
  8
e_
 62
7
100
AcDbLine
 10
32.603400
 20
41.873432
 30
0.0
 11
35.563517
 21
42.128373
 31
0.0
  0
LINE
  5
331
100
AcDbEntity
  8
e_
 62
7
100
AcDbLine
 10
35.563517
 20
42.128373
 30
0.0
 11
38.799000
 21
42.281953
 31
0.0
  0
LINE
  5
332
100
AcDbEntity
  8
e_
 62
7
100
AcDbLine
 10
38.799000
 20
42.281953
 30
0.0
 11
42.333333
 21
42.333333
 31
0.0
  0
LINE
  5
333
100
AcDbEntity
  8
e_
 62
7
100
AcDbLine
 10
42.333333
 20
42.333333
 30
0.0
 11
42.333333
 21
42.333333
 31
0.0
  0
LINE
  5
334
100
AcDbEntity
  8
r_
 62
7
100
AcDbLine
 10
42.333333
 20
0.000000
 30
0.0
 11
42.333333
 21
21.166667
 31
0.0
  0
LINE
  5
335
100
AcDbEntity
  8
r_
 62
7
100
AcDbLine
 10
42.333333
 20
21.166667
 30
0.0
 11
21.166667
 21
0.000000
 31
0.0
  0
LINE
  5
336
100
AcDbEntity
  8
r_
 62
7
100
AcDbLine
 10
21.166667
 20
0.000000
 30
0.0
 11
42.333333
 21
0.000000
 31
0.0
  0
LINE
  5
337
100
AcDbEntity
  8
r_
 62
7
100
AcDbLine
 10
0.000000
 20
42.333333
 30
0.0
 11
0.000000
 21
12.399146
 31
0.0
  0
LINE
  5
338
100
AcDbEntity
  8
r_
 62
7
100
AcDbLine
 10
0.000000
 20
12.399146
 30
0.0
 11
1.090827
 21
12.349044
 31
0.0
  0
LINE
  5
339
100
AcDbEntity
  8
r_
 62
7
100
AcDbLine
 10
1.090827
 20
12.349044
 30
0.0
 11
2.196907
 21
12.204412
 31
0.0
  0
LINE
  5
33a
100
AcDbEntity
  8
r_
 62
7
100
AcDbLine
 10
2.196907
 20
12.204412
 30
0.0
 11
3.312364
 21
11.973757
 31
0.0
  0
LINE
  5
33b
100
AcDbEntity
  8
r_
 62
7
100
AcDbLine
 10
3.312364
 20
11.973757
 30
0.0
 11
4.431319
 21
11.665590
 31
0.0
  0
LINE
  5
33c
100
AcDbEntity
  8
r_
 62
7
100
AcDbLine
 10
4.431319
 20
11.665590
 30
0.0
 11
5.547896
 21
11.288420
 31
0.0
  0
LINE
  5
33d
100
AcDbEntity
  8
r_
 62
7
100
AcDbLine
 10
5.547896
 20
11.288420
 30
0.0
 11
6.656216
 21
10.850755
 31
0.0
  0
LINE
  5
33e
100
AcDbEntity
  8
r_
 62
7
100
AcDbLine
 10
6.656216
 20
10.850755
 30
0.0
 11
7.750404
 21
10.361105
 31
0.0
  0
LINE
  5
33f
100
AcDbEntity
  8
r_
 62
7
100
AcDbLine
 10
7.750404
 20
10.361105
 30
0.0
 11
8.824580
 21
9.827979
 31
0.0
  0
LINE
  5
340
100
AcDbEntity
  8
r_
 62
7
100
AcDbLine
 10
8.824580
 20
9.827979
 30
0.0
 11
9.872869
 21
9.259885
 31
0.0
  0
LINE
  5
341
100
AcDbEntity
  8
r_
 62
7
100
AcDbLine
 10
9.872869
 20
9.259885
 30
0.0
 11
10.889392
 21
8.665334
 31
0.0
  0
LINE
  5
342
100
AcDbEntity
  8
r_
 62
7
100
AcDbLine
 10
10.889392
 20
8.665334
 30
0.0
 11
11.868272
 21
8.052835
 31
0.0
  0
LINE
  5
343
100
AcDbEntity
  8
r_
 62
7
100
AcDbLine
 10
11.868272
 20
8.052835
 30
0.0
 11
12.803632
 21
7.430895
 31
0.0
  0
LINE
  5
344
100
AcDbEntity
  8
r_
 62
7
100
AcDbLine
 10
12.803632
 20
7.430895
 30
0.0
 11
13.689595
 21
6.808025
 31
0.0
  0
LINE
  5
345
100
AcDbEntity
  8
r_
 62
7
100
AcDbLine
 10
13.689595
 20
6.808025
 30
0.0
 11
14.520283
 21
6.192734
 31
0.0
  0
LINE
  5
346
100
AcDbEntity
  8
r_
 62
7
100
AcDbLine
 10
14.520283
 20
6.192734
 30
0.0
 11
15.289818
 21
5.593531
 31
0.0
  0
LINE
  5
347
100
AcDbEntity
  8
r_
 62
7
100
AcDbLine
 10
15.289818
 20
5.593531
 30
0.0
 11
15.992324
 21
5.018924
 31
0.0
  0
LINE
  5
348
100
AcDbEntity
  8
r_
 62
7
100
AcDbLine
 10
15.992324
 20
5.018924
 30
0.0
 11
16.621922
 21
4.477424
 31
0.0
  0
LINE
  5
349
100
AcDbEntity
  8
r_
 62
7
100
AcDbLine
 10
16.621922
 20
4.477424
 30
0.0
 11
17.172736
 21
3.977539
 31
0.0
  0
LINE
  5
34a
100
AcDbEntity
  8
r_
 62
7
100
AcDbLine
 10
17.172736
 20
3.977539
 30
0.0
 11
17.638889
 21
3.527778
 31
0.0
  0
LINE
  5
34b
100
AcDbEntity
  8
r_
 62
7
100
AcDbLine
 10
17.638889
 20
3.527778
 30
0.0
 11
38.805556
 21
24.694444
 31
0.0
  0
LINE
  5
34c
100
AcDbEntity
  8
r_
 62
7
100
AcDbLine
 10
38.805556
 20
24.694444
 30
0.0
 11
37.057371
 21
26.456969
 31
0.0
  0
LINE
  5
34d
100
AcDbEntity
  8
r_
 62
7
100
AcDbLine
 10
37.057371
 20
26.456969
 30
0.0
 11
35.409577
 21
28.131566
 31
0.0
  0
LINE
  5
34e
100
AcDbEntity
  8
r_
 62
7
100
AcDbLine
 10
35.409577
 20
28.131566
 30
0.0
 11
33.838687
 21
29.717397
 31
0.0
  0
LINE
  5
34f
100
AcDbEntity
  8
r_
 62
7
100
AcDbLine
 10
33.838687
 20
29.717397
 30
0.0
 11
32.321218
 21
31.213622
 31
0.0
  0
LINE
  5
350
100
AcDbEntity
  8
r_
 62
7
100
AcDbLine
 10
32.321218
 20
31.213622
 30
0.0
 11
30.833685
 21
32.619402
 31
0.0
  0
LINE
  5
351
100
AcDbEntity
  8
r_
 62
7
100
AcDbLine
 10
30.833685
 20
32.619402
 30
0.0
 11
29.352603
 21
33.933896
 31
0.0
  0
LINE
  5
352
100
AcDbEntity
  8
r_
 62
7
100
AcDbLine
 10
29.352603
 20
33.933896
 30
0.0
 11
27.854487
 21
35.156265
 31
0.0
  0
LINE
  5
353
100
AcDbEntity
  8
r_
 62
7
100
AcDbLine
 10
27.854487
 20
35.156265
 30
0.0
 11
26.315852
 21
36.285670
 31
0.0
  0
LINE
  5
354
100
AcDbEntity
  8
r_
 62
7
100
AcDbLine
 10
26.315852
 20
36.285670
 30
0.0
 11
24.713214
 21
37.321271
 31
0.0
  0
LINE
  5
355
100
AcDbEntity
  8
r_
 62
7
100
AcDbLine
 10
24.713214
 20
37.321271
 30
0.0
 11
23.023088
 21
38.262228
 31
0.0
  0
LINE
  5
356
100
AcDbEntity
  8
r_
 62
7
100
AcDbLine
 10
23.023088
 20
38.262228
 30
0.0
 11
21.221989
 21
39.107701
 31
0.0
  0
LINE
  5
357
100
AcDbEntity
  8
r_
 62
7
100
AcDbLine
 10
21.221989
 20
39.107701
 30
0.0
 11
19.286432
 21
39.856852
 31
0.0
  0
LINE
  5
358
100
AcDbEntity
  8
r_
 62
7
100
AcDbLine
 10
19.286432
 20
39.856852
 30
0.0
 11
17.192933
 21
40.508840
 31
0.0
  0
LINE
  5
359
100
AcDbEntity
  8
r_
 62
7
100
AcDbLine
 10
17.192933
 20
40.508840
 30
0.0
 11
14.918006
 21
41.062826
 31
0.0
  0
LINE
  5
35a
100
AcDbEntity
  8
r_
 62
7
100
AcDbLine
 10
14.918006
 20
41.062826
 30
0.0
 11
12.438168
 21
41.517969
 31
0.0
  0
LINE
  5
35b
100
AcDbEntity
  8
r_
 62
7
100
AcDbLine
 10
12.438168
 20
41.517969
 30
0.0
 11
9.729933
 21
41.873432
 31
0.0
  0
LINE
  5
35c
100
AcDbEntity
  8
r_
 62
7
100
AcDbLine
 10
9.729933
 20
41.873432
 30
0.0
 11
6.769817
 21
42.128373
 31
0.0
  0
LINE
  5
35d
100
AcDbEntity
  8
r_
 62
7
100
AcDbLine
 10
6.769817
 20
42.128373
 30
0.0
 11
3.534334
 21
42.281953
 31
0.0
  0
LINE
  5
35e
100
AcDbEntity
  8
r_
 62
7
100
AcDbLine
 10
3.534334
 20
42.281953
 30
0.0
 11
0.000000
 21
42.333333
 31
0.0
  0
LINE
  5
35f
100
AcDbEntity
  8
r_
 62
7
100
AcDbLine
 10
0.000000
 20
42.333333
 30
0.0
 11
0.000000
 21
42.333333
 31
0.0
  0
LINE
  5
360
100
AcDbEntity
  8
d_
 62
7
100
AcDbLine
 10
0.000000
 20
42.333333
 30
0.0
 11
0.000000
 21
21.166667
 31
0.0
  0
LINE
  5
361
100
AcDbEntity
  8
d_
 62
7
100
AcDbLine
 10
0.000000
 20
21.166667
 30
0.0
 11
21.166667
 21
42.333333
 31
0.0
  0
LINE
  5
362
100
AcDbEntity
  8
d_
 62
7
100
AcDbLine
 10
21.166667
 20
42.333333
 30
0.0
 11
0.000000
 21
42.333333
 31
0.0
  0
LINE
  5
363
100
AcDbEntity
  8
d_
 62
7
100
AcDbLine
 10
42.333333
 20
0.000000
 30
0.0
 11
42.333333
 21
29.934187
 31
0.0
  0
LINE
  5
364
100
AcDbEntity
  8
d_
 62
7
100
AcDbLine
 10
42.333333
 20
29.934187
 30
0.0
 11
41.242506
 21
29.984289
 31
0.0
  0
LINE
  5
365
100
AcDbEntity
  8
d_
 62
7
100
AcDbLine
 10
41.242506
 20
29.984289
 30
0.0
 11
40.136426
 21
30.128922
 31
0.0
  0
LINE
  5
366
100
AcDbEntity
  8
d_
 62
7
100
AcDbLine
 10
40.136426
 20
30.128922
 30
0.0
 11
39.020970
 21
30.359576
 31
0.0
  0
LINE
  5
367
100
AcDbEntity
  8
d_
 62
7
100
AcDbLine
 10
39.020970
 20
30.359576
 30
0.0
 11
37.902014
 21
30.667743
 31
0.0
  0
LINE
  5
368
100
AcDbEntity
  8
d_
 62
7
100
AcDbLine
 10
37.902014
 20
30.667743
 30
0.0
 11
36.785438
 21
31.044914
 31
0.0
  0
LINE
  5
369
100
AcDbEntity
  8
d_
 62
7
100
AcDbLine
 10
36.785438
 20
31.044914
 30
0.0
 11
35.677117
 21
31.482578
 31
0.0
  0
LINE
  5
36a
100
AcDbEntity
  8
d_
 62
7
100
AcDbLine
 10
35.677117
 20
31.482578
 30
0.0
 11
34.582930
 21
31.972229
 31
0.0
  0
LINE
  5
36b
100
AcDbEntity
  8
d_
 62
7
100
AcDbLine
 10
34.582930
 20
31.972229
 30
0.0
 11
33.508753
 21
32.505355
 31
0.0
  0
LINE
  5
36c
100
AcDbEntity
  8
d_
 62
7
100
AcDbLine
 10
33.508753
 20
32.505355
 30
0.0
 11
32.460464
 21
33.073448
 31
0.0
  0
LINE
  5
36d
100
AcDbEntity
  8
d_
 62
7
100
AcDbLine
 10
32.460464
 20
33.073448
 30
0.0
 11
31.443941
 21
33.667999
 31
0.0
  0
LINE
  5
36e
100
AcDbEntity
  8
d_
 62
7
100
AcDbLine
 10
31.443941
 20
33.667999
 30
0.0
 11
30.465061
 21
34.280499
 31
0.0
  0
LINE
  5
36f
100
AcDbEntity
  8
d_
 62
7
100
AcDbLine
 10
30.465061
 20
34.280499
 30
0.0
 11
29.529701
 21
34.902438
 31
0.0
  0
LINE
  5
370
100
AcDbEntity
  8
d_
 62
7
100
AcDbLine
 10
29.529701
 20
34.902438
 30
0.0
 11
28.643738
 21
35.525308
 31
0.0
  0
LINE
  5
371
100
AcDbEntity
  8
d_
 62
7
100
AcDbLine
 10
28.643738
 20
35.525308
 30
0.0
 11
27.813051
 21
36.140599
 31
0.0
  0
LINE
  5
372
100
AcDbEntity
  8
d_
 62
7
100
AcDbLine
 10
27.813051
 20
36.140599
 30
0.0
 11
27.043515
 21
36.739802
 31
0.0
  0
LINE
  5
373
100
AcDbEntity
  8
d_
 62
7
100
AcDbLine
 10
27.043515
 20
36.739802
 30
0.0
 11
26.341010
 21
37.314409
 31
0.0
  0
LINE
  5
374
100
AcDbEntity
  8
d_
 62
7
100
AcDbLine
 10
26.341010
 20
37.314409
 30
0.0
 11
25.711411
 21
37.855909
 31
0.0
  0
LINE
  5
375
100
AcDbEntity
  8
d_
 62
7
100
AcDbLine
 10
25.711411
 20
37.855909
 30
0.0
 11
25.160597
 21
38.355795
 31
0.0
  0
LINE
  5
376
100
AcDbEntity
  8
d_
 62
7
100
AcDbLine
 10
25.160597
 20
38.355795
 30
0.0
 11
24.694444
 21
38.805556
 31
0.0
  0
LINE
  5
377
100
AcDbEntity
  8
d_
 62
7
100
AcDbLine
 10
24.694444
 20
38.805556
 30
0.0
 11
3.527778
 21
17.638889
 31
0.0
  0
LINE
  5
378
100
AcDbEntity
  8
d_
 62
7
100
AcDbLine
 10
3.527778
 20
17.638889
 30
0.0
 11
5.275962
 21
15.876365
 31
0.0
  0
LINE
  5
379
100
AcDbEntity
  8
d_
 62
7
100
AcDbLine
 10
5.275962
 20
15.876365
 30
0.0
 11
6.923757
 21
14.201767
 31
0.0
  0
LINE
  5
37a
100
AcDbEntity
  8
d_
 62
7
100
AcDbLine
 10
6.923757
 20
14.201767
 30
0.0
 11
8.494646
 21
12.615936
 31
0.0
  0
LINE
  5
37b
100
AcDbEntity
  8
d_
 62
7
100
AcDbLine
 10
8.494646
 20
12.615936
 30
0.0
 11
10.012115
 21
11.119711
 31
0.0
  0
LINE
  5
37c
100
AcDbEntity
  8
d_
 62
7
100
AcDbLine
 10
10.012115
 20
11.119711
 30
0.0
 11
11.499648
 21
9.713931
 31
0.0
  0
LINE
  5
37d
100
AcDbEntity
  8
d_
 62
7
100
AcDbLine
 10
11.499648
 20
9.713931
 30
0.0
 11
12.980730
 21
8.399437
 31
0.0
  0
LINE
  5
37e
100
AcDbEntity
  8
d_
 62
7
100
AcDbLine
 10
12.980730
 20
8.399437
 30
0.0
 11
14.478847
 21
7.177068
 31
0.0
  0
LINE
  5
37f
100
AcDbEntity
  8
d_
 62
7
100
AcDbLine
 10
14.478847
 20
7.177068
 30
0.0
 11
16.017481
 21
6.047663
 31
0.0
  0
LINE
  5
380
100
AcDbEntity
  8
d_
 62
7
100
AcDbLine
 10
16.017481
 20
6.047663
 30
0.0
 11
17.620119
 21
5.012062
 31
0.0
  0
LINE
  5
381
100
AcDbEntity
  8
d_
 62
7
100
AcDbLine
 10
17.620119
 20
5.012062
 30
0.0
 11
19.310245
 21
4.071106
 31
0.0
  0
LINE
  5
382
100
AcDbEntity
  8
d_
 62
7
100
AcDbLine
 10
19.310245
 20
4.071106
 30
0.0
 11
21.111345
 21
3.225632
 31
0.0
  0
LINE
  5
383
100
AcDbEntity
  8
d_
 62
7
100
AcDbLine
 10
21.111345
 20
3.225632
 30
0.0
 11
23.046901
 21
2.476481
 31
0.0
  0
LINE
  5
384
100
AcDbEntity
  8
d_
 62
7
100
AcDbLine
 10
23.046901
 20
2.476481
 30
0.0
 11
25.140401
 21
1.824493
 31
0.0
  0
LINE
  5
385
100
AcDbEntity
  8
d_
 62
7
100
AcDbLine
 10
25.140401
 20
1.824493
 30
0.0
 11
27.415327
 21
1.270508
 31
0.0
  0
LINE
  5
386
100
AcDbEntity
  8
d_
 62
7
100
AcDbLine
 10
27.415327
 20
1.270508
 30
0.0
 11
29.895165
 21
0.815364
 31
0.0
  0
LINE
  5
387
100
AcDbEntity
  8
d_
 62
7
100
AcDbLine
 10
29.895165
 20
0.815364
 30
0.0
 11
32.603400
 21
0.459902
 31
0.0
  0
LINE
  5
388
100
AcDbEntity
  8
d_
 62
7
100
AcDbLine
 10
32.603400
 20
0.459902
 30
0.0
 11
35.563517
 21
0.204960
 31
0.0
  0
LINE
  5
389
100
AcDbEntity
  8
d_
 62
7
100
AcDbLine
 10
35.563517
 20
0.204960
 30
0.0
 11
38.799000
 21
0.051380
 31
0.0
  0
LINE
  5
38a
100
AcDbEntity
  8
d_
 62
7
100
AcDbLine
 10
38.799000
 20
0.051380
 30
0.0
 11
42.333333
 21
0.000000
 31
0.0
  0
LINE
  5
38b
100
AcDbEntity
  8
d_
 62
7
100
AcDbLine
 10
42.333333
 20
0.000000
 30
0.0
 11
42.333333
 21
0.000000
 31
0.0
  0
LINE
  5
38c
100
AcDbEntity
  8
f_
 62
7
100
AcDbLine
 10
42.333333
 20
42.333333
 30
0.0
 11
42.333333
 21
21.166667
 31
0.0
  0
LINE
  5
38d
100
AcDbEntity
  8
f_
 62
7
100
AcDbLine
 10
42.333333
 20
21.166667
 30
0.0
 11
21.166667
 21
42.333333
 31
0.0
  0
LINE
  5
38e
100
AcDbEntity
  8
f_
 62
7
100
AcDbLine
 10
21.166667
 20
42.333333
 30
0.0
 11
42.333333
 21
42.333333
 31
0.0
  0
LINE
  5
38f
100
AcDbEntity
  8
f_
 62
7
100
AcDbLine
 10
0.000000
 20
-0.000000
 30
0.0
 11
-0.000000
 21
29.934187
 31
0.0
  0
LINE
  5
390
100
AcDbEntity
  8
f_
 62
7
100
AcDbLine
 10
-0.000000
 20
29.934187
 30
0.0
 11
1.090827
 21
29.984289
 31
0.0
  0
LINE
  5
391
100
AcDbEntity
  8
f_
 62
7
100
AcDbLine
 10
1.090827
 20
29.984289
 30
0.0
 11
2.196907
 21
30.128922
 31
0.0
  0
LINE
  5
392
100
AcDbEntity
  8
f_
 62
7
100
AcDbLine
 10
2.196907
 20
30.128922
 30
0.0
 11
3.312364
 21
30.359576
 31
0.0
  0
LINE
  5
393
100
AcDbEntity
  8
f_
 62
7
100
AcDbLine
 10
3.312364
 20
30.359576
 30
0.0
 11
4.431319
 21
30.667743
 31
0.0
  0
LINE
  5
394
100
AcDbEntity
  8
f_
 62
7
100
AcDbLine
 10
4.431319
 20
30.667743
 30
0.0
 11
5.547896
 21
31.044914
 31
0.0
  0
LINE
  5
395
100
AcDbEntity
  8
f_
 62
7
100
AcDbLine
 10
5.547896
 20
31.044914
 30
0.0
 11
6.656216
 21
31.482578
 31
0.0
  0
LINE
  5
396
100
AcDbEntity
  8
f_
 62
7
100
AcDbLine
 10
6.656216
 20
31.482578
 30
0.0
 11
7.750404
 21
31.972229
 31
0.0
  0
LINE
  5
397
100
AcDbEntity
  8
f_
 62
7
100
AcDbLine
 10
7.750404
 20
31.972229
 30
0.0
 11
8.824580
 21
32.505355
 31
0.0
  0
LINE
  5
398
100
AcDbEntity
  8
f_
 62
7
100
AcDbLine
 10
8.824580
 20
32.505355
 30
0.0
 11
9.872869
 21
33.073448
 31
0.0
  0
LINE
  5
399
100
AcDbEntity
  8
f_
 62
7
100
AcDbLine
 10
9.872869
 20
33.073448
 30
0.0
 11
10.889392
 21
33.667999
 31
0.0
  0
LINE
  5
39a
100
AcDbEntity
  8
f_
 62
7
100
AcDbLine
 10
10.889392
 20
33.667999
 30
0.0
 11
11.868272
 21
34.280499
 31
0.0
  0
LINE
  5
39b
100
AcDbEntity
  8
f_
 62
7
100
AcDbLine
 10
11.868272
 20
34.280499
 30
0.0
 11
12.803632
 21
34.902438
 31
0.0
  0
LINE
  5
39c
100
AcDbEntity
  8
f_
 62
7
100
AcDbLine
 10
12.803632
 20
34.902438
 30
0.0
 11
13.689595
 21
35.525308
 31
0.0
  0
LINE
  5
39d
100
AcDbEntity
  8
f_
 62
7
100
AcDbLine
 10
13.689595
 20
35.525308
 30
0.0
 11
14.520283
 21
36.140599
 31
0.0
  0
LINE
  5
39e
100
AcDbEntity
  8
f_
 62
7
100
AcDbLine
 10
14.520283
 20
36.140599
 30
0.0
 11
15.289818
 21
36.739802
 31
0.0
  0
LINE
  5
39f
100
AcDbEntity
  8
f_
 62
7
100
AcDbLine
 10
15.289818
 20
36.739802
 30
0.0
 11
15.992324
 21
37.314409
 31
0.0
  0
LINE
  5
3a0
100
AcDbEntity
  8
f_
 62
7
100
AcDbLine
 10
15.992324
 20
37.314409
 30
0.0
 11
16.621922
 21
37.855909
 31
0.0
  0
LINE
  5
3a1
100
AcDbEntity
  8
f_
 62
7
100
AcDbLine
 10
16.621922
 20
37.855909
 30
0.0
 11
17.172736
 21
38.355795
 31
0.0
  0
LINE
  5
3a2
100
AcDbEntity
  8
f_
 62
7
100
AcDbLine
 10
17.172736
 20
38.355795
 30
0.0
 11
17.638889
 21
38.805556
 31
0.0
  0
LINE
  5
3a3
100
AcDbEntity
  8
f_
 62
7
100
AcDbLine
 10
17.638889
 20
38.805556
 30
0.0
 11
38.805556
 21
17.638889
 31
0.0
  0
LINE
  5
3a4
100
AcDbEntity
  8
f_
 62
7
100
AcDbLine
 10
38.805556
 20
17.638889
 30
0.0
 11
37.057371
 21
15.876365
 31
0.0
  0
LINE
  5
3a5
100
AcDbEntity
  8
f_
 62
7
100
AcDbLine
 10
37.057371
 20
15.876365
 30
0.0
 11
35.409577
 21
14.201767
 31
0.0
  0
LINE
  5
3a6
100
AcDbEntity
  8
f_
 62
7
100
AcDbLine
 10
35.409577
 20
14.201767
 30
0.0
 11
33.838687
 21
12.615936
 31
0.0
  0
LINE
  5
3a7
100
AcDbEntity
  8
f_
 62
7
100
AcDbLine
 10
33.838687
 20
12.615936
 30
0.0
 11
32.321218
 21
11.119711
 31
0.0
  0
LINE
  5
3a8
100
AcDbEntity
  8
f_
 62
7
100
AcDbLine
 10
32.321218
 20
11.119711
 30
0.0
 11
30.833685
 21
9.713931
 31
0.0
  0
LINE
  5
3a9
100
AcDbEntity
  8
f_
 62
7
100
AcDbLine
 10
30.833685
 20
9.713931
 30
0.0
 11
29.352603
 21
8.399437
 31
0.0
  0
LINE
  5
3aa
100
AcDbEntity
  8
f_
 62
7
100
AcDbLine
 10
29.352603
 20
8.399437
 30
0.0
 11
27.854487
 21
7.177068
 31
0.0
  0
LINE
  5
3ab
100
AcDbEntity
  8
f_
 62
7
100
AcDbLine
 10
27.854487
 20
7.177068
 30
0.0
 11
26.315852
 21
6.047663
 31
0.0
  0
LINE
  5
3ac
100
AcDbEntity
  8
f_
 62
7
100
AcDbLine
 10
26.315852
 20
6.047663
 30
0.0
 11
24.713214
 21
5.012062
 31
0.0
  0
LINE
  5
3ad
100
AcDbEntity
  8
f_
 62
7
100
AcDbLine
 10
24.713214
 20
5.012062
 30
0.0
 11
23.023088
 21
4.071106
 31
0.0
  0
LINE
  5
3ae
100
AcDbEntity
  8
f_
 62
7
100
AcDbLine
 10
23.023088
 20
4.071106
 30
0.0
 11
21.221989
 21
3.225632
 31
0.0
  0
LINE
  5
3af
100
AcDbEntity
  8
f_
 62
7
100
AcDbLine
 10
21.221989
 20
3.225632
 30
0.0
 11
19.286432
 21
2.476481
 31
0.0
  0
LINE
  5
3b0
100
AcDbEntity
  8
f_
 62
7
100
AcDbLine
 10
19.286432
 20
2.476481
 30
0.0
 11
17.192933
 21
1.824493
 31
0.0
  0
LINE
  5
3b1
100
AcDbEntity
  8
f_
 62
7
100
AcDbLine
 10
17.192933
 20
1.824493
 30
0.0
 11
14.918006
 21
1.270508
 31
0.0
  0
LINE
  5
3b2
100
AcDbEntity
  8
f_
 62
7
100
AcDbLine
 10
14.918006
 20
1.270508
 30
0.0
 11
12.438168
 21
0.815364
 31
0.0
  0
LINE
  5
3b3
100
AcDbEntity
  8
f_
 62
7
100
AcDbLine
 10
12.438168
 20
0.815364
 30
0.0
 11
9.729933
 21
0.459902
 31
0.0
  0
LINE
  5
3b4
100
AcDbEntity
  8
f_
 62
7
100
AcDbLine
 10
9.729933
 20
0.459902
 30
0.0
 11
6.769817
 21
0.204960
 31
0.0
  0
LINE
  5
3b5
100
AcDbEntity
  8
f_
 62
7
100
AcDbLine
 10
6.769817
 20
0.204960
 30
0.0
 11
3.534334
 21
0.051380
 31
0.0
  0
LINE
  5
3b6
100
AcDbEntity
  8
f_
 62
7
100
AcDbLine
 10
3.534334
 20
0.051380
 30
0.0
 11
0.000000
 21
-0.000000
 31
0.0
  0
LINE
  5
3b7
100
AcDbEntity
  8
f_
 62
7
100
AcDbLine
 10
0.000000
 20
-0.000000
 30
0.0
 11
0.000000
 21
-0.000000
 31
0.0
  0
LINE
  5
3b8
100
AcDbEntity
  8
E
 62
7
100
AcDbLine
 10
42.333333
 20
42.333333
 30
0.0
 11
21.166667
 21
42.333333
 31
0.0
  0
LINE
  5
3b9
100
AcDbEntity
  8
E
 62
7
100
AcDbLine
 10
21.166667
 20
42.333333
 30
0.0
 11
42.333333
 21
21.166667
 31
0.0
  0
LINE
  5
3ba
100
AcDbEntity
  8
E
 62
7
100
AcDbLine
 10
42.333333
 20
21.166667
 30
0.0
 11
42.333333
 21
42.333333
 31
0.0
  0
LINE
  5
3bb
100
AcDbEntity
  8
E
 62
7
100
AcDbLine
 10
0.000000
 20
0.000000
 30
0.0
 11
29.934187
 21
0.000000
 31
0.0
  0
LINE
  5
3bc
100
AcDbEntity
  8
E
 62
7
100
AcDbLine
 10
29.934187
 20
0.000000
 30
0.0
 11
29.984289
 21
1.090827
 31
0.0
  0
LINE
  5
3bd
100
AcDbEntity
  8
E
 62
7
100
AcDbLine
 10
29.984289
 20
1.090827
 30
0.0
 11
30.128922
 21
2.196907
 31
0.0
  0
LINE
  5
3be
100
AcDbEntity
  8
E
 62
7
100
AcDbLine
 10
30.128922
 20
2.196907
 30
0.0
 11
30.359576
 21
3.312364
 31
0.0
  0
LINE
  5
3bf
100
AcDbEntity
  8
E
 62
7
100
AcDbLine
 10
30.359576
 20
3.312364
 30
0.0
 11
30.667743
 21
4.431319
 31
0.0
  0
LINE
  5
3c0
100
AcDbEntity
  8
E
 62
7
100
AcDbLine
 10
30.667743
 20
4.431319
 30
0.0
 11
31.044914
 21
5.547896
 31
0.0
  0
LINE
  5
3c1
100
AcDbEntity
  8
E
 62
7
100
AcDbLine
 10
31.044914
 20
5.547896
 30
0.0
 11
31.482578
 21
6.656216
 31
0.0
  0
LINE
  5
3c2
100
AcDbEntity
  8
E
 62
7
100
AcDbLine
 10
31.482578
 20
6.656216
 30
0.0
 11
31.972229
 21
7.750404
 31
0.0
  0
LINE
  5
3c3
100
AcDbEntity
  8
E
 62
7
100
AcDbLine
 10
31.972229
 20
7.750404
 30
0.0
 11
32.505355
 21
8.824580
 31
0.0
  0
LINE
  5
3c4
100
AcDbEntity
  8
E
 62
7
100
AcDbLine
 10
32.505355
 20
8.824580
 30
0.0
 11
33.073448
 21
9.872869
 31
0.0
  0
LINE
  5
3c5
100
AcDbEntity
  8
E
 62
7
100
AcDbLine
 10
33.073448
 20
9.872869
 30
0.0
 11
33.667999
 21
10.889392
 31
0.0
  0
LINE
  5
3c6
100
AcDbEntity
  8
E
 62
7
100
AcDbLine
 10
33.667999
 20
10.889392
 30
0.0
 11
34.280499
 21
11.868272
 31
0.0
  0
LINE
  5
3c7
100
AcDbEntity
  8
E
 62
7
100
AcDbLine
 10
34.280499
 20
11.868272
 30
0.0
 11
34.902438
 21
12.803632
 31
0.0
  0
LINE
  5
3c8
100
AcDbEntity
  8
E
 62
7
100
AcDbLine
 10
34.902438
 20
12.803632
 30
0.0
 11
35.525308
 21
13.689595
 31
0.0
  0
LINE
  5
3c9
100
AcDbEntity
  8
E
 62
7
100
AcDbLine
 10
35.525308
 20
13.689595
 30
0.0
 11
36.140599
 21
14.520283
 31
0.0
  0
LINE
  5
3ca
100
AcDbEntity
  8
E
 62
7
100
AcDbLine
 10
36.140599
 20
14.520283
 30
0.0
 11
36.739802
 21
15.289818
 31
0.0
  0
LINE
  5
3cb
100
AcDbEntity
  8
E
 62
7
100
AcDbLine
 10
36.739802
 20
15.289818
 30
0.0
 11
37.314409
 21
15.992324
 31
0.0
  0
LINE
  5
3cc
100
AcDbEntity
  8
E
 62
7
100
AcDbLine
 10
37.314409
 20
15.992324
 30
0.0
 11
37.855909
 21
16.621922
 31
0.0
  0
LINE
  5
3cd
100
AcDbEntity
  8
E
 62
7
100
AcDbLine
 10
37.855909
 20
16.621922
 30
0.0
 11
38.355795
 21
17.172736
 31
0.0
  0
LINE
  5
3ce
100
AcDbEntity
  8
E
 62
7
100
AcDbLine
 10
38.355795
 20
17.172736
 30
0.0
 11
38.805556
 21
17.638889
 31
0.0
  0
LINE
  5
3cf
100
AcDbEntity
  8
E
 62
7
100
AcDbLine
 10
38.805556
 20
17.638889
 30
0.0
 11
17.638889
 21
38.805556
 31
0.0
  0
LINE
  5
3d0
100
AcDbEntity
  8
E
 62
7
100
AcDbLine
 10
17.638889
 20
38.805556
 30
0.0
 11
15.876365
 21
37.057371
 31
0.0
  0
LINE
  5
3d1
100
AcDbEntity
  8
E
 62
7
100
AcDbLine
 10
15.876365
 20
37.057371
 30
0.0
 11
14.201767
 21
35.409577
 31
0.0
  0
LINE
  5
3d2
100
AcDbEntity
  8
E
 62
7
100
AcDbLine
 10
14.201767
 20
35.409577
 30
0.0
 11
12.615936
 21
33.838687
 31
0.0
  0
LINE
  5
3d3
100
AcDbEntity
  8
E
 62
7
100
AcDbLine
 10
12.615936
 20
33.838687
 30
0.0
 11
11.119711
 21
32.321218
 31
0.0
  0
LINE
  5
3d4
100
AcDbEntity
  8
E
 62
7
100
AcDbLine
 10
11.119711
 20
32.321218
 30
0.0
 11
9.713931
 21
30.833685
 31
0.0
  0
LINE
  5
3d5
100
AcDbEntity
  8
E
 62
7
100
AcDbLine
 10
9.713931
 20
30.833685
 30
0.0
 11
8.399437
 21
29.352603
 31
0.0
  0
LINE
  5
3d6
100
AcDbEntity
  8
E
 62
7
100
AcDbLine
 10
8.399437
 20
29.352603
 30
0.0
 11
7.177068
 21
27.854487
 31
0.0
  0
LINE
  5
3d7
100
AcDbEntity
  8
E
 62
7
100
AcDbLine
 10
7.177068
 20
27.854487
 30
0.0
 11
6.047663
 21
26.315852
 31
0.0
  0
LINE
  5
3d8
100
AcDbEntity
  8
E
 62
7
100
AcDbLine
 10
6.047663
 20
26.315852
 30
0.0
 11
5.012062
 21
24.713214
 31
0.0
  0
LINE
  5
3d9
100
AcDbEntity
  8
E
 62
7
100
AcDbLine
 10
5.012062
 20
24.713214
 30
0.0
 11
4.071106
 21
23.023088
 31
0.0
  0
LINE
  5
3da
100
AcDbEntity
  8
E
 62
7
100
AcDbLine
 10
4.071106
 20
23.023088
 30
0.0
 11
3.225632
 21
21.221989
 31
0.0
  0
LINE
  5
3db
100
AcDbEntity
  8
E
 62
7
100
AcDbLine
 10
3.225632
 20
21.221989
 30
0.0
 11
2.476481
 21
19.286432
 31
0.0
  0
LINE
  5
3dc
100
AcDbEntity
  8
E
 62
7
100
AcDbLine
 10
2.476481
 20
19.286432
 30
0.0
 11
1.824493
 21
17.192933
 31
0.0
  0
LINE
  5
3dd
100
AcDbEntity
  8
E
 62
7
100
AcDbLine
 10
1.824493
 20
17.192933
 30
0.0
 11
1.270508
 21
14.918006
 31
0.0
  0
LINE
  5
3de
100
AcDbEntity
  8
E
 62
7
100
AcDbLine
 10
1.270508
 20
14.918006
 30
0.0
 11
0.815364
 21
12.438168
 31
0.0
  0
LINE
  5
3df
100
AcDbEntity
  8
E
 62
7
100
AcDbLine
 10
0.815364
 20
12.438168
 30
0.0
 11
0.459902
 21
9.729933
 31
0.0
  0
LINE
  5
3e0
100
AcDbEntity
  8
E
 62
7
100
AcDbLine
 10
0.459902
 20
9.729933
 30
0.0
 11
0.204960
 21
6.769817
 31
0.0
  0
LINE
  5
3e1
100
AcDbEntity
  8
E
 62
7
100
AcDbLine
 10
0.204960
 20
6.769817
 30
0.0
 11
0.051380
 21
3.534334
 31
0.0
  0
LINE
  5
3e2
100
AcDbEntity
  8
E
 62
7
100
AcDbLine
 10
0.051380
 20
3.534334
 30
0.0
 11
0.000000
 21
0.000000
 31
0.0
  0
LINE
  5
3e3
100
AcDbEntity
  8
E
 62
7
100
AcDbLine
 10
0.000000
 20
0.000000
 30
0.0
 11
0.000000
 21
0.000000
 31
0.0
  0
LINE
  5
3e4
100
AcDbEntity
  8
R
 62
7
100
AcDbLine
 10
0.000000
 20
42.333333
 30
0.0
 11
21.166667
 21
42.333333
 31
0.0
  0
LINE
  5
3e5
100
AcDbEntity
  8
R
 62
7
100
AcDbLine
 10
21.166667
 20
42.333333
 30
0.0
 11
0.000000
 21
21.166667
 31
0.0
  0
LINE
  5
3e6
100
AcDbEntity
  8
R
 62
7
100
AcDbLine
 10
0.000000
 20
21.166667
 30
0.0
 11
0.000000
 21
42.333333
 31
0.0
  0
LINE
  5
3e7
100
AcDbEntity
  8
R
 62
7
100
AcDbLine
 10
42.333333
 20
0.000000
 30
0.0
 11
12.399146
 21
0.000000
 31
0.0
  0
LINE
  5
3e8
100
AcDbEntity
  8
R
 62
7
100
AcDbLine
 10
12.399146
 20
0.000000
 30
0.0
 11
12.349044
 21
1.090827
 31
0.0
  0
LINE
  5
3e9
100
AcDbEntity
  8
R
 62
7
100
AcDbLine
 10
12.349044
 20
1.090827
 30
0.0
 11
12.204412
 21
2.196907
 31
0.0
  0
LINE
  5
3ea
100
AcDbEntity
  8
R
 62
7
100
AcDbLine
 10
12.204412
 20
2.196907
 30
0.0
 11
11.973757
 21
3.312364
 31
0.0
  0
LINE
  5
3eb
100
AcDbEntity
  8
R
 62
7
100
AcDbLine
 10
11.973757
 20
3.312364
 30
0.0
 11
11.665590
 21
4.431319
 31
0.0
  0
LINE
  5
3ec
100
AcDbEntity
  8
R
 62
7
100
AcDbLine
 10
11.665590
 20
4.431319
 30
0.0
 11
11.288420
 21
5.547896
 31
0.0
  0
LINE
  5
3ed
100
AcDbEntity
  8
R
 62
7
100
AcDbLine
 10
11.288420
 20
5.547896
 30
0.0
 11
10.850755
 21
6.656216
 31
0.0
  0
LINE
  5
3ee
100
AcDbEntity
  8
R
 62
7
100
AcDbLine
 10
10.850755
 20
6.656216
 30
0.0
 11
10.361105
 21
7.750404
 31
0.0
  0
LINE
  5
3ef
100
AcDbEntity
  8
R
 62
7
100
AcDbLine
 10
10.361105
 20
7.750404
 30
0.0
 11
9.827979
 21
8.824580
 31
0.0
  0
LINE
  5
3f0
100
AcDbEntity
  8
R
 62
7
100
AcDbLine
 10
9.827979
 20
8.824580
 30
0.0
 11
9.259885
 21
9.872869
 31
0.0
  0
LINE
  5
3f1
100
AcDbEntity
  8
R
 62
7
100
AcDbLine
 10
9.259885
 20
9.872869
 30
0.0
 11
8.665334
 21
10.889392
 31
0.0
  0
LINE
  5
3f2
100
AcDbEntity
  8
R
 62
7
100
AcDbLine
 10
8.665334
 20
10.889392
 30
0.0
 11
8.052835
 21
11.868272
 31
0.0
  0
LINE
  5
3f3
100
AcDbEntity
  8
R
 62
7
100
AcDbLine
 10
8.052835
 20
11.868272
 30
0.0
 11
7.430895
 21
12.803632
 31
0.0
  0
LINE
  5
3f4
100
AcDbEntity
  8
R
 62
7
100
AcDbLine
 10
7.430895
 20
12.803632
 30
0.0
 11
6.808025
 21
13.689595
 31
0.0
  0
LINE
  5
3f5
100
AcDbEntity
  8
R
 62
7
100
AcDbLine
 10
6.808025
 20
13.689595
 30
0.0
 11
6.192734
 21
14.520283
 31
0.0
  0
LINE
  5
3f6
100
AcDbEntity
  8
R
 62
7
100
AcDbLine
 10
6.192734
 20
14.520283
 30
0.0
 11
5.593531
 21
15.289818
 31
0.0
  0
LINE
  5
3f7
100
AcDbEntity
  8
R
 62
7
100
AcDbLine
 10
5.593531
 20
15.289818
 30
0.0
 11
5.018924
 21
15.992324
 31
0.0
  0
LINE
  5
3f8
100
AcDbEntity
  8
R
 62
7
100
AcDbLine
 10
5.018924
 20
15.992324
 30
0.0
 11
4.477424
 21
16.621922
 31
0.0
  0
LINE
  5
3f9
100
AcDbEntity
  8
R
 62
7
100
AcDbLine
 10
4.477424
 20
16.621922
 30
0.0
 11
3.977539
 21
17.172736
 31
0.0
  0
LINE
  5
3fa
100
AcDbEntity
  8
R
 62
7
100
AcDbLine
 10
3.977539
 20
17.172736
 30
0.0
 11
3.527778
 21
17.638889
 31
0.0
  0
LINE
  5
3fb
100
AcDbEntity
  8
R
 62
7
100
AcDbLine
 10
3.527778
 20
17.638889
 30
0.0
 11
24.694444
 21
38.805556
 31
0.0
  0
LINE
  5
3fc
100
AcDbEntity
  8
R
 62
7
100
AcDbLine
 10
24.694444
 20
38.805556
 30
0.0
 11
26.456969
 21
37.057371
 31
0.0
  0
LINE
  5
3fd
100
AcDbEntity
  8
R
 62
7
100
AcDbLine
 10
26.456969
 20
37.057371
 30
0.0
 11
28.131566
 21
35.409577
 31
0.0
  0
LINE
  5
3fe
100
AcDbEntity
  8
R
 62
7
100
AcDbLine
 10
28.131566
 20
35.409577
 30
0.0
 11
29.717397
 21
33.838687
 31
0.0
  0
LINE
  5
3ff
100
AcDbEntity
  8
R
 62
7
100
AcDbLine
 10
29.717397
 20
33.838687
 30
0.0
 11
31.213622
 21
32.321218
 31
0.0
  0
LINE
  5
400
100
AcDbEntity
  8
R
 62
7
100
AcDbLine
 10
31.213622
 20
32.321218
 30
0.0
 11
32.619402
 21
30.833685
 31
0.0
  0
LINE
  5
401
100
AcDbEntity
  8
R
 62
7
100
AcDbLine
 10
32.619402
 20
30.833685
 30
0.0
 11
33.933896
 21
29.352603
 31
0.0
  0
LINE
  5
402
100
AcDbEntity
  8
R
 62
7
100
AcDbLine
 10
33.933896
 20
29.352603
 30
0.0
 11
35.156265
 21
27.854487
 31
0.0
  0
LINE
  5
403
100
AcDbEntity
  8
R
 62
7
100
AcDbLine
 10
35.156265
 20
27.854487
 30
0.0
 11
36.285670
 21
26.315852
 31
0.0
  0
LINE
  5
404
100
AcDbEntity
  8
R
 62
7
100
AcDbLine
 10
36.285670
 20
26.315852
 30
0.0
 11
37.321271
 21
24.713214
 31
0.0
  0
LINE
  5
405
100
AcDbEntity
  8
R
 62
7
100
AcDbLine
 10
37.321271
 20
24.713214
 30
0.0
 11
38.262228
 21
23.023088
 31
0.0
  0
LINE
  5
406
100
AcDbEntity
  8
R
 62
7
100
AcDbLine
 10
38.262228
 20
23.023088
 30
0.0
 11
39.107701
 21
21.221989
 31
0.0
  0
LINE
  5
407
100
AcDbEntity
  8
R
 62
7
100
AcDbLine
 10
39.107701
 20
21.221989
 30
0.0
 11
39.856852
 21
19.286432
 31
0.0
  0
LINE
  5
408
100
AcDbEntity
  8
R
 62
7
100
AcDbLine
 10
39.856852
 20
19.286432
 30
0.0
 11
40.508840
 21
17.192933
 31
0.0
  0
LINE
  5
409
100
AcDbEntity
  8
R
 62
7
100
AcDbLine
 10
40.508840
 20
17.192933
 30
0.0
 11
41.062826
 21
14.918006
 31
0.0
  0
LINE
  5
40a
100
AcDbEntity
  8
R
 62
7
100
AcDbLine
 10
41.062826
 20
14.918006
 30
0.0
 11
41.517969
 21
12.438168
 31
0.0
  0
LINE
  5
40b
100
AcDbEntity
  8
R
 62
7
100
AcDbLine
 10
41.517969
 20
12.438168
 30
0.0
 11
41.873432
 21
9.729933
 31
0.0
  0
LINE
  5
40c
100
AcDbEntity
  8
R
 62
7
100
AcDbLine
 10
41.873432
 20
9.729933
 30
0.0
 11
42.128373
 21
6.769817
 31
0.0
  0
LINE
  5
40d
100
AcDbEntity
  8
R
 62
7
100
AcDbLine
 10
42.128373
 20
6.769817
 30
0.0
 11
42.281953
 21
3.534334
 31
0.0
  0
LINE
  5
40e
100
AcDbEntity
  8
R
 62
7
100
AcDbLine
 10
42.281953
 20
3.534334
 30
0.0
 11
42.333333
 21
0.000000
 31
0.0
  0
LINE
  5
40f
100
AcDbEntity
  8
R
 62
7
100
AcDbLine
 10
42.333333
 20
0.000000
 30
0.0
 11
42.333333
 21
0.000000
 31
0.0
  0
LINE
  5
410
100
AcDbEntity
  8
D
 62
7
100
AcDbLine
 10
42.333333
 20
-0.000000
 30
0.0
 11
21.166667
 21
-0.000000
 31
0.0
  0
LINE
  5
411
100
AcDbEntity
  8
D
 62
7
100
AcDbLine
 10
21.166667
 20
-0.000000
 30
0.0
 11
42.333333
 21
21.166667
 31
0.0
  0
LINE
  5
412
100
AcDbEntity
  8
D
 62
7
100
AcDbLine
 10
42.333333
 20
21.166667
 30
0.0
 11
42.333333
 21
-0.000000
 31
0.0
  0
LINE
  5
413
100
AcDbEntity
  8
D
 62
7
100
AcDbLine
 10
0.000000
 20
42.333333
 30
0.0
 11
29.934187
 21
42.333333
 31
0.0
  0
LINE
  5
414
100
AcDbEntity
  8
D
 62
7
100
AcDbLine
 10
29.934187
 20
42.333333
 30
0.0
 11
29.984289
 21
41.242506
 31
0.0
  0
LINE
  5
415
100
AcDbEntity
  8
D
 62
7
100
AcDbLine
 10
29.984289
 20
41.242506
 30
0.0
 11
30.128922
 21
40.136426
 31
0.0
  0
LINE
  5
416
100
AcDbEntity
  8
D
 62
7
100
AcDbLine
 10
30.128922
 20
40.136426
 30
0.0
 11
30.359576
 21
39.020970
 31
0.0
  0
LINE
  5
417
100
AcDbEntity
  8
D
 62
7
100
AcDbLine
 10
30.359576
 20
39.020970
 30
0.0
 11
30.667743
 21
37.902014
 31
0.0
  0
LINE
  5
418
100
AcDbEntity
  8
D
 62
7
100
AcDbLine
 10
30.667743
 20
37.902014
 30
0.0
 11
31.044914
 21
36.785438
 31
0.0
  0
LINE
  5
419
100
AcDbEntity
  8
D
 62
7
100
AcDbLine
 10
31.044914
 20
36.785438
 30
0.0
 11
31.482578
 21
35.677117
 31
0.0
  0
LINE
  5
41a
100
AcDbEntity
  8
D
 62
7
100
AcDbLine
 10
31.482578
 20
35.677117
 30
0.0
 11
31.972229
 21
34.582930
 31
0.0
  0
LINE
  5
41b
100
AcDbEntity
  8
D
 62
7
100
AcDbLine
 10
31.972229
 20
34.582930
 30
0.0
 11
32.505355
 21
33.508753
 31
0.0
  0
LINE
  5
41c
100
AcDbEntity
  8
D
 62
7
100
AcDbLine
 10
32.505355
 20
33.508753
 30
0.0
 11
33.073448
 21
32.460464
 31
0.0
  0
LINE
  5
41d
100
AcDbEntity
  8
D
 62
7
100
AcDbLine
 10
33.073448
 20
32.460464
 30
0.0
 11
33.667999
 21
31.443941
 31
0.0
  0
LINE
  5
41e
100
AcDbEntity
  8
D
 62
7
100
AcDbLine
 10
33.667999
 20
31.443941
 30
0.0
 11
34.280499
 21
30.465061
 31
0.0
  0
LINE
  5
41f
100
AcDbEntity
  8
D
 62
7
100
AcDbLine
 10
34.280499
 20
30.465061
 30
0.0
 11
34.902438
 21
29.529701
 31
0.0
  0
LINE
  5
420
100
AcDbEntity
  8
D
 62
7
100
AcDbLine
 10
34.902438
 20
29.529701
 30
0.0
 11
35.525308
 21
28.643738
 31
0.0
  0
LINE
  5
421
100
AcDbEntity
  8
D
 62
7
100
AcDbLine
 10
35.525308
 20
28.643738
 30
0.0
 11
36.140599
 21
27.813051
 31
0.0
  0
LINE
  5
422
100
AcDbEntity
  8
D
 62
7
100
AcDbLine
 10
36.140599
 20
27.813051
 30
0.0
 11
36.739802
 21
27.043515
 31
0.0
  0
LINE
  5
423
100
AcDbEntity
  8
D
 62
7
100
AcDbLine
 10
36.739802
 20
27.043515
 30
0.0
 11
37.314409
 21
26.341010
 31
0.0
  0
LINE
  5
424
100
AcDbEntity
  8
D
 62
7
100
AcDbLine
 10
37.314409
 20
26.341010
 30
0.0
 11
37.855909
 21
25.711411
 31
0.0
  0
LINE
  5
425
100
AcDbEntity
  8
D
 62
7
100
AcDbLine
 10
37.855909
 20
25.711411
 30
0.0
 11
38.355795
 21
25.160597
 31
0.0
  0
LINE
  5
426
100
AcDbEntity
  8
D
 62
7
100
AcDbLine
 10
38.355795
 20
25.160597
 30
0.0
 11
38.805556
 21
24.694444
 31
0.0
  0
LINE
  5
427
100
AcDbEntity
  8
D
 62
7
100
AcDbLine
 10
38.805556
 20
24.694444
 30
0.0
 11
17.638889
 21
3.527778
 31
0.0
  0
LINE
  5
428
100
AcDbEntity
  8
D
 62
7
100
AcDbLine
 10
17.638889
 20
3.527778
 30
0.0
 11
15.876365
 21
5.275962
 31
0.0
  0
LINE
  5
429
100
AcDbEntity
  8
D
 62
7
100
AcDbLine
 10
15.876365
 20
5.275962
 30
0.0
 11
14.201767
 21
6.923757
 31
0.0
  0
LINE
  5
42a
100
AcDbEntity
  8
D
 62
7
100
AcDbLine
 10
14.201767
 20
6.923757
 30
0.0
 11
12.615936
 21
8.494646
 31
0.0
  0
LINE
  5
42b
100
AcDbEntity
  8
D
 62
7
100
AcDbLine
 10
12.615936
 20
8.494646
 30
0.0
 11
11.119711
 21
10.012115
 31
0.0
  0
LINE
  5
42c
100
AcDbEntity
  8
D
 62
7
100
AcDbLine
 10
11.119711
 20
10.012115
 30
0.0
 11
9.713931
 21
11.499648
 31
0.0
  0
LINE
  5
42d
100
AcDbEntity
  8
D
 62
7
100
AcDbLine
 10
9.713931
 20
11.499648
 30
0.0
 11
8.399437
 21
12.980730
 31
0.0
  0
LINE
  5
42e
100
AcDbEntity
  8
D
 62
7
100
AcDbLine
 10
8.399437
 20
12.980730
 30
0.0
 11
7.177068
 21
14.478847
 31
0.0
  0
LINE
  5
42f
100
AcDbEntity
  8
D
 62
7
100
AcDbLine
 10
7.177068
 20
14.478847
 30
0.0
 11
6.047663
 21
16.017481
 31
0.0
  0
LINE
  5
430
100
AcDbEntity
  8
D
 62
7
100
AcDbLine
 10
6.047663
 20
16.017481
 30
0.0
 11
5.012062
 21
17.620119
 31
0.0
  0
LINE
  5
431
100
AcDbEntity
  8
D
 62
7
100
AcDbLine
 10
5.012062
 20
17.620119
 30
0.0
 11
4.071106
 21
19.310245
 31
0.0
  0
LINE
  5
432
100
AcDbEntity
  8
D
 62
7
100
AcDbLine
 10
4.071106
 20
19.310245
 30
0.0
 11
3.225632
 21
21.111345
 31
0.0
  0
LINE
  5
433
100
AcDbEntity
  8
D
 62
7
100
AcDbLine
 10
3.225632
 20
21.111345
 30
0.0
 11
2.476481
 21
23.046901
 31
0.0
  0
LINE
  5
434
100
AcDbEntity
  8
D
 62
7
100
AcDbLine
 10
2.476481
 20
23.046901
 30
0.0
 11
1.824493
 21
25.140401
 31
0.0
  0
LINE
  5
435
100
AcDbEntity
  8
D
 62
7
100
AcDbLine
 10
1.824493
 20
25.140401
 30
0.0
 11
1.270508
 21
27.415327
 31
0.0
  0
LINE
  5
436
100
AcDbEntity
  8
D
 62
7
100
AcDbLine
 10
1.270508
 20
27.415327
 30
0.0
 11
0.815364
 21
29.895165
 31
0.0
  0
LINE
  5
437
100
AcDbEntity
  8
D
 62
7
100
AcDbLine
 10
0.815364
 20
29.895165
 30
0.0
 11
0.459902
 21
32.603400
 31
0.0
  0
LINE
  5
438
100
AcDbEntity
  8
D
 62
7
100
AcDbLine
 10
0.459902
 20
32.603400
 30
0.0
 11
0.204960
 21
35.563517
 31
0.0
  0
LINE
  5
439
100
AcDbEntity
  8
D
 62
7
100
AcDbLine
 10
0.204960
 20
35.563517
 30
0.0
 11
0.051380
 21
38.799000
 31
0.0
  0
LINE
  5
43a
100
AcDbEntity
  8
D
 62
7
100
AcDbLine
 10
0.051380
 20
38.799000
 30
0.0
 11
0.000000
 21
42.333333
 31
0.0
  0
LINE
  5
43b
100
AcDbEntity
  8
D
 62
7
100
AcDbLine
 10
0.000000
 20
42.333333
 30
0.0
 11
0.000000
 21
42.333333
 31
0.0
  0
LINE
  5
43c
100
AcDbEntity
  8
F
 62
7
100
AcDbLine
 10
0.000000
 20
-0.000000
 30
0.0
 11
21.166667
 21
-0.000000
 31
0.0
  0
LINE
  5
43d
100
AcDbEntity
  8
F
 62
7
100
AcDbLine
 10
21.166667
 20
-0.000000
 30
0.0
 11
0.000000
 21
21.166667
 31
0.0
  0
LINE
  5
43e
100
AcDbEntity
  8
F
 62
7
100
AcDbLine
 10
0.000000
 20
21.166667
 30
0.0
 11
0.000000
 21
-0.000000
 31
0.0
  0
LINE
  5
43f
100
AcDbEntity
  8
F
 62
7
100
AcDbLine
 10
42.333333
 20
42.333333
 30
0.0
 11
12.399146
 21
42.333333
 31
0.0
  0
LINE
  5
440
100
AcDbEntity
  8
F
 62
7
100
AcDbLine
 10
12.399146
 20
42.333333
 30
0.0
 11
12.349044
 21
41.242506
 31
0.0
  0
LINE
  5
441
100
AcDbEntity
  8
F
 62
7
100
AcDbLine
 10
12.349044
 20
41.242506
 30
0.0
 11
12.204412
 21
40.136426
 31
0.0
  0
LINE
  5
442
100
AcDbEntity
  8
F
 62
7
100
AcDbLine
 10
12.204412
 20
40.136426
 30
0.0
 11
11.973757
 21
39.020970
 31
0.0
  0
LINE
  5
443
100
AcDbEntity
  8
F
 62
7
100
AcDbLine
 10
11.973757
 20
39.020970
 30
0.0
 11
11.665590
 21
37.902014
 31
0.0
  0
LINE
  5
444
100
AcDbEntity
  8
F
 62
7
100
AcDbLine
 10
11.665590
 20
37.902014
 30
0.0
 11
11.288420
 21
36.785438
 31
0.0
  0
LINE
  5
445
100
AcDbEntity
  8
F
 62
7
100
AcDbLine
 10
11.288420
 20
36.785438
 30
0.0
 11
10.850755
 21
35.677117
 31
0.0
  0
LINE
  5
446
100
AcDbEntity
  8
F
 62
7
100
AcDbLine
 10
10.850755
 20
35.677117
 30
0.0
 11
10.361105
 21
34.582930
 31
0.0
  0
LINE
  5
447
100
AcDbEntity
  8
F
 62
7
100
AcDbLine
 10
10.361105
 20
34.582930
 30
0.0
 11
9.827979
 21
33.508753
 31
0.0
  0
LINE
  5
448
100
AcDbEntity
  8
F
 62
7
100
AcDbLine
 10
9.827979
 20
33.508753
 30
0.0
 11
9.259885
 21
32.460464
 31
0.0
  0
LINE
  5
449
100
AcDbEntity
  8
F
 62
7
100
AcDbLine
 10
9.259885
 20
32.460464
 30
0.0
 11
8.665334
 21
31.443941
 31
0.0
  0
LINE
  5
44a
100
AcDbEntity
  8
F
 62
7
100
AcDbLine
 10
8.665334
 20
31.443941
 30
0.0
 11
8.052835
 21
30.465061
 31
0.0
  0
LINE
  5
44b
100
AcDbEntity
  8
F
 62
7
100
AcDbLine
 10
8.052835
 20
30.465061
 30
0.0
 11
7.430895
 21
29.529701
 31
0.0
  0
LINE
  5
44c
100
AcDbEntity
  8
F
 62
7
100
AcDbLine
 10
7.430895
 20
29.529701
 30
0.0
 11
6.808025
 21
28.643738
 31
0.0
  0
LINE
  5
44d
100
AcDbEntity
  8
F
 62
7
100
AcDbLine
 10
6.808025
 20
28.643738
 30
0.0
 11
6.192734
 21
27.813051
 31
0.0
  0
LINE
  5
44e
100
AcDbEntity
  8
F
 62
7
100
AcDbLine
 10
6.192734
 20
27.813051
 30
0.0
 11
5.593531
 21
27.043515
 31
0.0
  0
LINE
  5
44f
100
AcDbEntity
  8
F
 62
7
100
AcDbLine
 10
5.593531
 20
27.043515
 30
0.0
 11
5.018924
 21
26.341010
 31
0.0
  0
LINE
  5
450
100
AcDbEntity
  8
F
 62
7
100
AcDbLine
 10
5.018924
 20
26.341010
 30
0.0
 11
4.477424
 21
25.711411
 31
0.0
  0
LINE
  5
451
100
AcDbEntity
  8
F
 62
7
100
AcDbLine
 10
4.477424
 20
25.711411
 30
0.0
 11
3.977539
 21
25.160597
 31
0.0
  0
LINE
  5
452
100
AcDbEntity
  8
F
 62
7
100
AcDbLine
 10
3.977539
 20
25.160597
 30
0.0
 11
3.527778
 21
24.694444
 31
0.0
  0
LINE
  5
453
100
AcDbEntity
  8
F
 62
7
100
AcDbLine
 10
3.527778
 20
24.694444
 30
0.0
 11
24.694444
 21
3.527778
 31
0.0
  0
LINE
  5
454
100
AcDbEntity
  8
F
 62
7
100
AcDbLine
 10
24.694444
 20
3.527778
 30
0.0
 11
26.456969
 21
5.275962
 31
0.0
  0
LINE
  5
455
100
AcDbEntity
  8
F
 62
7
100
AcDbLine
 10
26.456969
 20
5.275962
 30
0.0
 11
28.131566
 21
6.923757
 31
0.0
  0
LINE
  5
456
100
AcDbEntity
  8
F
 62
7
100
AcDbLine
 10
28.131566
 20
6.923757
 30
0.0
 11
29.717397
 21
8.494646
 31
0.0
  0
LINE
  5
457
100
AcDbEntity
  8
F
 62
7
100
AcDbLine
 10
29.717397
 20
8.494646
 30
0.0
 11
31.213622
 21
10.012115
 31
0.0
  0
LINE
  5
458
100
AcDbEntity
  8
F
 62
7
100
AcDbLine
 10
31.213622
 20
10.012115
 30
0.0
 11
32.619402
 21
11.499648
 31
0.0
  0
LINE
  5
459
100
AcDbEntity
  8
F
 62
7
100
AcDbLine
 10
32.619402
 20
11.499648
 30
0.0
 11
33.933896
 21
12.980730
 31
0.0
  0
LINE
  5
45a
100
AcDbEntity
  8
F
 62
7
100
AcDbLine
 10
33.933896
 20
12.980730
 30
0.0
 11
35.156265
 21
14.478847
 31
0.0
  0
LINE
  5
45b
100
AcDbEntity
  8
F
 62
7
100
AcDbLine
 10
35.156265
 20
14.478847
 30
0.0
 11
36.285670
 21
16.017481
 31
0.0
  0
LINE
  5
45c
100
AcDbEntity
  8
F
 62
7
100
AcDbLine
 10
36.285670
 20
16.017481
 30
0.0
 11
37.321271
 21
17.620119
 31
0.0
  0
LINE
  5
45d
100
AcDbEntity
  8
F
 62
7
100
AcDbLine
 10
37.321271
 20
17.620119
 30
0.0
 11
38.262228
 21
19.310245
 31
0.0
  0
LINE
  5
45e
100
AcDbEntity
  8
F
 62
7
100
AcDbLine
 10
38.262228
 20
19.310245
 30
0.0
 11
39.107701
 21
21.111345
 31
0.0
  0
LINE
  5
45f
100
AcDbEntity
  8
F
 62
7
100
AcDbLine
 10
39.107701
 20
21.111345
 30
0.0
 11
39.856852
 21
23.046901
 31
0.0
  0
LINE
  5
460
100
AcDbEntity
  8
F
 62
7
100
AcDbLine
 10
39.856852
 20
23.046901
 30
0.0
 11
40.508840
 21
25.140401
 31
0.0
  0
LINE
  5
461
100
AcDbEntity
  8
F
 62
7
100
AcDbLine
 10
40.508840
 20
25.140401
 30
0.0
 11
41.062826
 21
27.415327
 31
0.0
  0
LINE
  5
462
100
AcDbEntity
  8
F
 62
7
100
AcDbLine
 10
41.062826
 20
27.415327
 30
0.0
 11
41.517969
 21
29.895165
 31
0.0
  0
LINE
  5
463
100
AcDbEntity
  8
F
 62
7
100
AcDbLine
 10
41.517969
 20
29.895165
 30
0.0
 11
41.873432
 21
32.603400
 31
0.0
  0
LINE
  5
464
100
AcDbEntity
  8
F
 62
7
100
AcDbLine
 10
41.873432
 20
32.603400
 30
0.0
 11
42.128373
 21
35.563517
 31
0.0
  0
LINE
  5
465
100
AcDbEntity
  8
F
 62
7
100
AcDbLine
 10
42.128373
 20
35.563517
 30
0.0
 11
42.281953
 21
38.799000
 31
0.0
  0
LINE
  5
466
100
AcDbEntity
  8
F
 62
7
100
AcDbLine
 10
42.281953
 20
38.799000
 30
0.0
 11
42.333333
 21
42.333333
 31
0.0
  0
LINE
  5
467
100
AcDbEntity
  8
F
 62
7
100
AcDbLine
 10
42.333333
 20
42.333333
 30
0.0
 11
42.333333
 21
42.333333
 31
0.0
  0
LINE
  5
468
100
AcDbEntity
  8
t_
 62
7
100
AcDbLine
 10
0.000000
 20
0.000000
 30
0.0
 11
0.000000
 21
21.166667
 31
0.0
  0
LINE
  5
469
100
AcDbEntity
  8
t_
 62
7
100
AcDbLine
 10
0.000000
 20
21.166667
 30
0.0
 11
21.166667
 21
0.000000
 31
0.0
  0
LINE
  5
46a
100
AcDbEntity
  8
t_
 62
7
100
AcDbLine
 10
21.166667
 20
0.000000
 30
0.0
 11
0.000000
 21
0.000000
 31
0.0
  0
LINE
  5
46b
100
AcDbEntity
  8
t_
 62
7
100
AcDbLine
 10
42.333333
 20
42.333333
 30
0.0
 11
42.333333
 21
21.166667
 31
0.0
  0
LINE
  5
46c
100
AcDbEntity
  8
t_
 62
7
100
AcDbLine
 10
42.333333
 20
21.166667
 30
0.0
 11
24.694444
 21
3.527778
 31
0.0
  0
LINE
  5
46d
100
AcDbEntity
  8
t_
 62
7
100
AcDbLine
 10
24.694444
 20
3.527778
 30
0.0
 11
3.527778
 21
24.694444
 31
0.0
  0
LINE
  5
46e
100
AcDbEntity
  8
t_
 62
7
100
AcDbLine
 10
3.527778
 20
24.694444
 30
0.0
 11
21.166667
 21
42.333333
 31
0.0
  0
LINE
  5
46f
100
AcDbEntity
  8
t_
 62
7
100
AcDbLine
 10
21.166667
 20
42.333333
 30
0.0
 11
42.333333
 21
42.333333
 31
0.0
  0
LINE
  5
470
100
AcDbEntity
  8
y_
 62
7
100
AcDbLine
 10
42.333333
 20
0.000000
 30
0.0
 11
42.333333
 21
21.166667
 31
0.0
  0
LINE
  5
471
100
AcDbEntity
  8
y_
 62
7
100
AcDbLine
 10
42.333333
 20
21.166667
 30
0.0
 11
21.166667
 21
0.000000
 31
0.0
  0
LINE
  5
472
100
AcDbEntity
  8
y_
 62
7
100
AcDbLine
 10
21.166667
 20
0.000000
 30
0.0
 11
42.333333
 21
0.000000
 31
0.0
  0
LINE
  5
473
100
AcDbEntity
  8
y_
 62
7
100
AcDbLine
 10
0.000000
 20
42.333333
 30
0.0
 11
0.000000
 21
21.166667
 31
0.0
  0
LINE
  5
474
100
AcDbEntity
  8
y_
 62
7
100
AcDbLine
 10
0.000000
 20
21.166667
 30
0.0
 11
17.638889
 21
3.527778
 31
0.0
  0
LINE
  5
475
100
AcDbEntity
  8
y_
 62
7
100
AcDbLine
 10
17.638889
 20
3.527778
 30
0.0
 11
38.805556
 21
24.694444
 31
0.0
  0
LINE
  5
476
100
AcDbEntity
  8
y_
 62
7
100
AcDbLine
 10
38.805556
 20
24.694444
 30
0.0
 11
21.166667
 21
42.333333
 31
0.0
  0
LINE
  5
477
100
AcDbEntity
  8
y_
 62
7
100
AcDbLine
 10
21.166667
 20
42.333333
 30
0.0
 11
0.000000
 21
42.333333
 31
0.0
  0
LINE
  5
478
100
AcDbEntity
  8
g_
 62
7
100
AcDbLine
 10
0.000000
 20
42.333333
 30
0.0
 11
0.000000
 21
21.166667
 31
0.0
  0
LINE
  5
479
100
AcDbEntity
  8
g_
 62
7
100
AcDbLine
 10
0.000000
 20
21.166667
 30
0.0
 11
21.166667
 21
42.333333
 31
0.0
  0
LINE
  5
47a
100
AcDbEntity
  8
g_
 62
7
100
AcDbLine
 10
21.166667
 20
42.333333
 30
0.0
 11
0.000000
 21
42.333333
 31
0.0
  0
LINE
  5
47b
100
AcDbEntity
  8
g_
 62
7
100
AcDbLine
 10
42.333333
 20
0.000000
 30
0.0
 11
42.333333
 21
21.166667
 31
0.0
  0
LINE
  5
47c
100
AcDbEntity
  8
g_
 62
7
100
AcDbLine
 10
42.333333
 20
21.166667
 30
0.0
 11
24.694444
 21
38.805556
 31
0.0
  0
LINE
  5
47d
100
AcDbEntity
  8
g_
 62
7
100
AcDbLine
 10
24.694444
 20
38.805556
 30
0.0
 11
3.527778
 21
17.638889
 31
0.0
  0
LINE
  5
47e
100
AcDbEntity
  8
g_
 62
7
100
AcDbLine
 10
3.527778
 20
17.638889
 30
0.0
 11
21.166667
 21
0.000000
 31
0.0
  0
LINE
  5
47f
100
AcDbEntity
  8
g_
 62
7
100
AcDbLine
 10
21.166667
 20
0.000000
 30
0.0
 11
42.333333
 21
0.000000
 31
0.0
  0
LINE
  5
480
100
AcDbEntity
  8
h_
 62
7
100
AcDbLine
 10
42.333333
 20
42.333333
 30
0.0
 11
42.333333
 21
21.166667
 31
0.0
  0
LINE
  5
481
100
AcDbEntity
  8
h_
 62
7
100
AcDbLine
 10
42.333333
 20
21.166667
 30
0.0
 11
21.166667
 21
42.333333
 31
0.0
  0
LINE
  5
482
100
AcDbEntity
  8
h_
 62
7
100
AcDbLine
 10
21.166667
 20
42.333333
 30
0.0
 11
42.333333
 21
42.333333
 31
0.0
  0
LINE
  5
483
100
AcDbEntity
  8
h_
 62
7
100
AcDbLine
 10
0.000000
 20
-0.000000
 30
0.0
 11
0.000000
 21
21.166667
 31
0.0
  0
LINE
  5
484
100
AcDbEntity
  8
h_
 62
7
100
AcDbLine
 10
0.000000
 20
21.166667
 30
0.0
 11
17.638889
 21
38.805556
 31
0.0
  0
LINE
  5
485
100
AcDbEntity
  8
h_
 62
7
100
AcDbLine
 10
17.638889
 20
38.805556
 30
0.0
 11
38.805556
 21
17.638889
 31
0.0
  0
LINE
  5
486
100
AcDbEntity
  8
h_
 62
7
100
AcDbLine
 10
38.805556
 20
17.638889
 30
0.0
 11
21.166667
 21
-0.000000
 31
0.0
  0
LINE
  5
487
100
AcDbEntity
  8
h_
 62
7
100
AcDbLine
 10
21.166667
 20
-0.000000
 30
0.0
 11
0.000000
 21
-0.000000
 31
0.0
  0
LINE
  5
488
100
AcDbEntity
  8
T
 62
7
100
AcDbLine
 10
42.333333
 20
42.333333
 30
0.0
 11
21.166667
 21
42.333333
 31
0.0
  0
LINE
  5
489
100
AcDbEntity
  8
T
 62
7
100
AcDbLine
 10
21.166667
 20
42.333333
 30
0.0
 11
42.333333
 21
21.166667
 31
0.0
  0
LINE
  5
48a
100
AcDbEntity
  8
T
 62
7
100
AcDbLine
 10
42.333333
 20
21.166667
 30
0.0
 11
42.333333
 21
42.333333
 31
0.0
  0
LINE
  5
48b
100
AcDbEntity
  8
T
 62
7
100
AcDbLine
 10
0.000000
 20
0.000000
 30
0.0
 11
21.166667
 21
0.000000
 31
0.0
  0
LINE
  5
48c
100
AcDbEntity
  8
T
 62
7
100
AcDbLine
 10
21.166667
 20
0.000000
 30
0.0
 11
38.805556
 21
17.638889
 31
0.0
  0
LINE
  5
48d
100
AcDbEntity
  8
T
 62
7
100
AcDbLine
 10
38.805556
 20
17.638889
 30
0.0
 11
17.638889
 21
38.805556
 31
0.0
  0
LINE
  5
48e
100
AcDbEntity
  8
T
 62
7
100
AcDbLine
 10
17.638889
 20
38.805556
 30
0.0
 11
0.000000
 21
21.166667
 31
0.0
  0
LINE
  5
48f
100
AcDbEntity
  8
T
 62
7
100
AcDbLine
 10
0.000000
 20
21.166667
 30
0.0
 11
0.000000
 21
0.000000
 31
0.0
  0
LINE
  5
490
100
AcDbEntity
  8
Y
 62
7
100
AcDbLine
 10
0.000000
 20
42.333333
 30
0.0
 11
21.166667
 21
42.333333
 31
0.0
  0
LINE
  5
491
100
AcDbEntity
  8
Y
 62
7
100
AcDbLine
 10
21.166667
 20
42.333333
 30
0.0
 11
0.000000
 21
21.166667
 31
0.0
  0
LINE
  5
492
100
AcDbEntity
  8
Y
 62
7
100
AcDbLine
 10
0.000000
 20
21.166667
 30
0.0
 11
0.000000
 21
42.333333
 31
0.0
  0
LINE
  5
493
100
AcDbEntity
  8
Y
 62
7
100
AcDbLine
 10
42.333333
 20
0.000000
 30
0.0
 11
21.166667
 21
0.000000
 31
0.0
  0
LINE
  5
494
100
AcDbEntity
  8
Y
 62
7
100
AcDbLine
 10
21.166667
 20
0.000000
 30
0.0
 11
3.527778
 21
17.638889
 31
0.0
  0
LINE
  5
495
100
AcDbEntity
  8
Y
 62
7
100
AcDbLine
 10
3.527778
 20
17.638889
 30
0.0
 11
24.694444
 21
38.805556
 31
0.0
  0
LINE
  5
496
100
AcDbEntity
  8
Y
 62
7
100
AcDbLine
 10
24.694444
 20
38.805556
 30
0.0
 11
42.333333
 21
21.166667
 31
0.0
  0
LINE
  5
497
100
AcDbEntity
  8
Y
 62
7
100
AcDbLine
 10
42.333333
 20
21.166667
 30
0.0
 11
42.333333
 21
0.000000
 31
0.0
  0
LINE
  5
498
100
AcDbEntity
  8
G
 62
7
100
AcDbLine
 10
42.333333
 20
-0.000000
 30
0.0
 11
21.166667
 21
-0.000000
 31
0.0
  0
LINE
  5
499
100
AcDbEntity
  8
G
 62
7
100
AcDbLine
 10
21.166667
 20
-0.000000
 30
0.0
 11
42.333333
 21
21.166667
 31
0.0
  0
LINE
  5
49a
100
AcDbEntity
  8
G
 62
7
100
AcDbLine
 10
42.333333
 20
21.166667
 30
0.0
 11
42.333333
 21
-0.000000
 31
0.0
  0
LINE
  5
49b
100
AcDbEntity
  8
G
 62
7
100
AcDbLine
 10
0.000000
 20
42.333333
 30
0.0
 11
21.166667
 21
42.333333
 31
0.0
  0
LINE
  5
49c
100
AcDbEntity
  8
G
 62
7
100
AcDbLine
 10
21.166667
 20
42.333333
 30
0.0
 11
38.805556
 21
24.694444
 31
0.0
  0
LINE
  5
49d
100
AcDbEntity
  8
G
 62
7
100
AcDbLine
 10
38.805556
 20
24.694444
 30
0.0
 11
17.638889
 21
3.527778
 31
0.0
  0
LINE
  5
49e
100
AcDbEntity
  8
G
 62
7
100
AcDbLine
 10
17.638889
 20
3.527778
 30
0.0
 11
0.000000
 21
21.166667
 31
0.0
  0
LINE
  5
49f
100
AcDbEntity
  8
G
 62
7
100
AcDbLine
 10
0.000000
 20
21.166667
 30
0.0
 11
0.000000
 21
42.333333
 31
0.0
  0
LINE
  5
4a0
100
AcDbEntity
  8
H
 62
7
100
AcDbLine
 10
0.000000
 20
-0.000000
 30
0.0
 11
21.166667
 21
-0.000000
 31
0.0
  0
LINE
  5
4a1
100
AcDbEntity
  8
H
 62
7
100
AcDbLine
 10
21.166667
 20
-0.000000
 30
0.0
 11
0.000000
 21
21.166667
 31
0.0
  0
LINE
  5
4a2
100
AcDbEntity
  8
H
 62
7
100
AcDbLine
 10
0.000000
 20
21.166667
 30
0.0
 11
0.000000
 21
-0.000000
 31
0.0
  0
LINE
  5
4a3
100
AcDbEntity
  8
H
 62
7
100
AcDbLine
 10
42.333333
 20
42.333333
 30
0.0
 11
21.166667
 21
42.333333
 31
0.0
  0
LINE
  5
4a4
100
AcDbEntity
  8
H
 62
7
100
AcDbLine
 10
21.166667
 20
42.333333
 30
0.0
 11
3.527778
 21
24.694444
 31
0.0
  0
LINE
  5
4a5
100
AcDbEntity
  8
H
 62
7
100
AcDbLine
 10
3.527778
 20
24.694444
 30
0.0
 11
24.694444
 21
3.527778
 31
0.0
  0
LINE
  5
4a6
100
AcDbEntity
  8
H
 62
7
100
AcDbLine
 10
24.694444
 20
3.527778
 30
0.0
 11
42.333333
 21
21.166667
 31
0.0
  0
LINE
  5
4a7
100
AcDbEntity
  8
H
 62
7
100
AcDbLine
 10
42.333333
 20
21.166667
 30
0.0
 11
42.333333
 21
42.333333
 31
0.0
  0
LINE
  5
4a8
100
AcDbEntity
  8
|
 62
7
100
AcDbLine
 10
0.000000
 20
0.000000
 30
0.0
 11
0.000000
 21
42.333333
 31
0.0
  0
LINE
  5
4a9
100
AcDbEntity
  8
|
 62
7
100
AcDbLine
 10
0.000000
 20
42.333333
 30
0.0
 11
29.934187
 21
42.333333
 31
0.0
  0
LINE
  5
4aa
100
AcDbEntity
  8
|
 62
7
100
AcDbLine
 10
29.934187
 20
42.333333
 30
0.0
 11
29.934187
 21
-0.000000
 31
0.0
  0
LINE
  5
4ab
100
AcDbEntity
  8
|
 62
7
100
AcDbLine
 10
29.934187
 20
-0.000000
 30
0.0
 11
0.000000
 21
0.000000
 31
0.0
  0
LINE
  5
4ac
100
AcDbEntity
  8
-
 62
7
100
AcDbLine
 10
0.000000
 20
42.333333
 30
0.0
 11
42.333333
 21
42.333333
 31
0.0
  0
LINE
  5
4ad
100
AcDbEntity
  8
-
 62
7
100
AcDbLine
 10
42.333333
 20
42.333333
 30
0.0
 11
42.333333
 21
12.399146
 31
0.0
  0
LINE
  5
4ae
100
AcDbEntity
  8
-
 62
7
100
AcDbLine
 10
42.333333
 20
12.399146
 30
0.0
 11
0.000000
 21
12.399146
 31
0.0
  0
LINE
  5
4af
100
AcDbEntity
  8
-
 62
7
100
AcDbLine
 10
0.000000
 20
12.399146
 30
0.0
 11
0.000000
 21
42.333333
 31
0.0
  0
LINE
  5
4b0
100
AcDbEntity
  8
_
 62
7
100
AcDbLine
 10
42.333333
 20
0.000000
 30
0.0
 11
0.000000
 21
-0.000000
 31
0.0
  0
LINE
  5
4b1
100
AcDbEntity
  8
_
 62
7
100
AcDbLine
 10
0.000000
 20
-0.000000
 30
0.0
 11
-0.000000
 21
29.934187
 31
0.0
  0
LINE
  5
4b2
100
AcDbEntity
  8
_
 62
7
100
AcDbLine
 10
-0.000000
 20
29.934187
 30
0.0
 11
42.333333
 21
29.934187
 31
0.0
  0
LINE
  5
4b3
100
AcDbEntity
  8
_
 62
7
100
AcDbLine
 10
42.333333
 20
29.934187
 30
0.0
 11
42.333333
 21
0.000000
 31
0.0
  0
LINE
  5
4b4
100
AcDbEntity
  8
!
 62
7
100
AcDbLine
 10
42.333333
 20
42.333333
 30
0.0
 11
42.333333
 21
0.000000
 31
0.0
  0
LINE
  5
4b5
100
AcDbEntity
  8
!
 62
7
100
AcDbLine
 10
42.333333
 20
0.000000
 30
0.0
 11
12.399146
 21
0.000000
 31
0.0
  0
LINE
  5
4b6
100
AcDbEntity
  8
!
 62
7
100
AcDbLine
 10
12.399146
 20
0.000000
 30
0.0
 11
12.399146
 21
42.333333
 31
0.0
  0
LINE
  5
4b7
100
AcDbEntity
  8
!
 62
7
100
AcDbLine
 10
12.399146
 20
42.333333
 30
0.0
 11
42.333333
 21
42.333333
 31
0.0
  0
ENDSEC
  0
SECTION
  2
OBJECTS
  0
DICTIONARY
  5
C
330
0
100
AcDbDictionary
  3
ACAD_GROUP
350
D
  3
ACAD_MLINESTYLE
350
17
  0
DICTIONARY
  5
D
330
C
100
AcDbDictionary
  0
DICTIONARY
  5
1A
330
C
100
AcDbDictionary
  0
DICTIONARY
  5
17
330
C
100
AcDbDictionary
  3
STANDARD
350
18
  0
DICTIONARY
  5
19
330
C
100
AcDbDictionary
  0
ENDSEC
  0
EOF
